<?xml version="1.0" encoding="utf-8"?>
<!-- Generator: Adobe Illustrator 16.0.1, SVG Export Plug-In . SVG Version: 6.00 Build 0)  -->
<!DOCTYPE svg PUBLIC "-//W3C//DTD SVG 1.1//EN" "http://www.w3.org/Graphics/SVG/1.1/DTD/svg11.dtd">
<svg version="1.1" xmlns="http://www.w3.org/2000/svg" xmlns:xlink="http://www.w3.org/1999/xlink" x="0px" y="0px" width="620px"
	 height="617.969px" viewBox="0 0 620 617.969" enable-background="new 0 0 620 617.969" xml:space="preserve">
<g id="north_antrim">
	<g>
		<g id="north_antrim_x5F_1_1_">
			<path fill="#F1F1F1" d="M381.676,50.954c0,1.65-1.35,3-3,3h-40.153c-1.65,0-3-1.35-3-3V10.799c0-1.65,1.35-3,3-3h40.153
				c1.65,0,3,1.35,3,3V50.954z"/>
			<path fill="none" stroke="#FFFFFF" stroke-width="0.5" stroke-miterlimit="10" d="M381.676,50.954c0,1.65-1.35,3-3,3h-40.153
				c-1.65,0-3-1.35-3-3V10.799c0-1.65,1.35-3,3-3h40.153c1.65,0,3,1.35,3,3V50.954z"/>
		</g>
		<g id="north_antrim_x5F_2_1_">
			<path fill="#F1F1F1" d="M427.829,50.954c0,1.65-1.35,3-3,3h-40.153c-1.65,0-3-1.35-3-3V10.799c0-1.65,1.35-3,3-3h40.153
				c1.65,0,3,1.35,3,3V50.954z"/>
			<path fill="none" stroke="#FFFFFF" stroke-width="0.5" stroke-miterlimit="10" d="M427.829,50.954c0,1.65-1.35,3-3,3h-40.153
				c-1.65,0-3-1.35-3-3V10.799c0-1.65,1.35-3,3-3h40.153c1.65,0,3,1.35,3,3V50.954z"/>
		</g>
		<g id="north_antrim_x5F_4">
			<path fill="#F1F1F1" d="M381.676,97.107c0,1.65-1.35,3-3,3h-40.153c-1.65,0-3-1.35-3-3V56.954c0-1.649,1.35-3,3-3h40.153
				c1.65,0,3,1.351,3,3V97.107z"/>
			<path fill="none" stroke="#FFFFFF" stroke-width="0.5" stroke-miterlimit="10" d="M381.676,97.107c0,1.65-1.35,3-3,3h-40.153
				c-1.65,0-3-1.35-3-3V56.954c0-1.649,1.35-3,3-3h40.153c1.65,0,3,1.351,3,3V97.107z"/>
		</g>
		<g id="north_antrim_x5F_3_1_">
			<path fill="#F1F1F1" d="M427.829,97.107c0,1.65-1.35,3-3,3h-40.153c-1.65,0-3-1.35-3-3V56.954c0-1.649,1.35-3,3-3h40.153
				c1.65,0,3,1.351,3,3V97.107z"/>
			<path fill="none" stroke="#FFFFFF" stroke-width="0.5" stroke-miterlimit="10" d="M427.829,97.107c0,1.65-1.35,3-3,3h-40.153
				c-1.65,0-3-1.35-3-3V56.954c0-1.649,1.35-3,3-3h40.153c1.65,0,3,1.351,3,3V97.107z"/>
		</g>
		<g id="north_antrim_x5F_5">
			<path fill="#F1F1F1" d="M381.676,143.261c0,1.65-1.35,3-3,3h-40.153c-1.65,0-3-1.35-3-3v-40.153c0-1.65,1.35-3,3-3h40.153
				c1.65,0,3,1.35,3,3V143.261z"/>
			<path fill="none" stroke="#FFFFFF" stroke-width="0.5" stroke-miterlimit="10" d="M381.676,143.261c0,1.65-1.35,3-3,3h-40.153
				c-1.65,0-3-1.35-3-3v-40.153c0-1.65,1.35-3,3-3h40.153c1.65,0,3,1.35,3,3V143.261z"/>
		</g>
		<g id="north_antrim_x5F_6">
			<path fill="#F1F1F1" d="M427.829,143.261c0,1.65-1.35,3-3,3h-40.153c-1.65,0-3-1.35-3-3v-40.153c0-1.65,1.35-3,3-3h40.153
				c1.65,0,3,1.35,3,3V143.261z"/>
			<path fill="none" stroke="#FFFFFF" stroke-width="0.5" stroke-miterlimit="10" d="M427.829,143.261c0,1.65-1.35,3-3,3h-40.153
				c-1.65,0-3-1.35-3-3v-40.153c0-1.65,1.35-3,3-3h40.153c1.65,0,3,1.35,3,3V143.261z"/>
		</g>
	</g>
	<text id="North_Antrim" transform="matrix(1 0 0 1 353.7578 108.9678)"><tspan x="0" y="0" fill="#333333" font-family="'DS4DisplaySansMedium'" font-size="14">North</tspan><tspan x="0" y="18" fill="#333333" font-family="'DS4DisplaySansMedium'" font-size="14">Antrim</tspan></text>
</g>
<g id="east_antrim">
	<g>
		
			<rect id="east_antrim_x5F_1" x="427.829" y="53.954" fill="#F1F1F1" stroke="#FFFFFF" stroke-width="0.3" stroke-miterlimit="10" width="46.154" height="46.154"/>
		
			<rect id="east_antrim_x5F_4" x="427.829" y="100.107" fill="#F1F1F1" stroke="#FFFFFF" stroke-width="0.3" stroke-miterlimit="10" width="46.154" height="46.153"/>
		
			<rect id="east_antrim_x5F_5" x="427.829" y="146.261" fill="#F1F1F1" stroke="#FFFFFF" stroke-width="0.3" stroke-miterlimit="10" width="46.154" height="46.154"/>
		
			<rect id="east_antrim_x5F_2" x="473.983" y="53.954" fill="#F1F1F1" stroke="#FFFFFF" stroke-width="0.3" stroke-miterlimit="10" width="46.153" height="46.154"/>
		
			<rect id="east_antrim_x5F_3" x="473.983" y="100.107" fill="#F1F1F1" stroke="#FFFFFF" stroke-width="0.3" stroke-miterlimit="10" width="46.153" height="46.153"/>
		
			<rect id="east_antrim_x5F_6" x="473.983" y="146.261" fill="#F1F1F1" stroke="#FFFFFF" stroke-width="0.3" stroke-miterlimit="10" width="46.153" height="46.154"/>
	</g>
	<text transform="matrix(1 0 0 1 443.8574 108.9678)"><tspan x="0" y="0" fill="#333333" font-family="'DS4DisplaySansMedium'" font-size="14">East</tspan><tspan x="0" y="18" fill="#333333" font-family="'DS4DisplaySansMedium'" font-size="14">Antrim</tspan></text>
</g>
<g id="south_antrim">
	<g>
		<g id="south_antrim_x5F_5">
			<path fill="#F1F1F1" d="M520.137,281.722c0,1.649-1.35,3-3,3h-40.153c-1.65,0-3-1.351-3-3v-40.153c0-1.65,1.35-3,3-3h40.153
				c1.65,0,3,1.35,3,3V281.722z"/>
			<path fill="none" stroke="#FFFFFF" stroke-width="0.5" stroke-miterlimit="10" d="M520.137,281.722c0,1.649-1.35,3-3,3h-40.153
				c-1.65,0-3-1.351-3-3v-40.153c0-1.65,1.35-3,3-3h40.153c1.65,0,3,1.35,3,3V281.722z"/>
		</g>
		<g id="south_antrim_x5F_4">
			<path fill="#F1F1F1" d="M520.137,235.57c0,1.65-1.35,3-3,3h-40.153c-1.65,0-3-1.35-3-3v-40.155c0-1.65,1.35-3,3-3h40.153
				c1.65,0,3,1.35,3,3V235.57z"/>
			<path fill="none" stroke="#FFFFFF" stroke-width="0.5" stroke-miterlimit="10" d="M520.137,235.57c0,1.65-1.35,3-3,3h-40.153
				c-1.65,0-3-1.35-3-3v-40.155c0-1.65,1.35-3,3-3h40.153c1.65,0,3,1.35,3,3V235.57z"/>
		</g>
		<g id="south_antrim_x5F_3_2_">
			<path fill="#F1F1F1" d="M473.983,235.57c0,1.65-1.35,3-3,3h-40.154c-1.65,0-3-1.35-3-3v-40.155c0-1.65,1.35-3,3-3h40.154
				c1.65,0,3,1.35,3,3V235.57z"/>
			<path fill="none" stroke="#FFFFFF" stroke-width="0.5" stroke-miterlimit="10" d="M473.983,235.57c0,1.65-1.35,3-3,3h-40.154
				c-1.65,0-3-1.35-3-3v-40.155c0-1.65,1.35-3,3-3h40.154c1.65,0,3,1.35,3,3V235.57z"/>
		</g>
		<g id="south_antrim_x5F_6">
			<path fill="#F1F1F1" d="M473.983,281.722c0,1.649-1.35,3-3,3h-40.154c-1.65,0-3-1.351-3-3v-40.153c0-1.65,1.35-3,3-3h40.154
				c1.65,0,3,1.35,3,3V281.722z"/>
			<path fill="none" stroke="#FFFFFF" stroke-width="0.5" stroke-miterlimit="10" d="M473.983,281.722c0,1.649-1.35,3-3,3h-40.154
				c-1.65,0-3-1.351-3-3v-40.153c0-1.65,1.35-3,3-3h40.154c1.65,0,3,1.35,3,3V281.722z"/>
		</g>
		<g id="south_antrim_x5F_2_1_">
			<path fill="#F1F1F1" d="M427.829,235.57c0,1.65-1.35,3-3,3h-40.153c-1.65,0-3-1.35-3-3v-40.155c0-1.65,1.35-3,3-3h40.153
				c1.65,0,3,1.35,3,3V235.57z"/>
			<path fill="none" stroke="#FFFFFF" stroke-width="0.5" stroke-miterlimit="10" d="M427.829,235.57c0,1.65-1.35,3-3,3h-40.153
				c-1.65,0-3-1.35-3-3v-40.155c0-1.65,1.35-3,3-3h40.153c1.65,0,3,1.35,3,3V235.57z"/>
		</g>
		<g id="south_antrim_x5F_1">
			<path fill="#F1F1F1" d="M427.829,189.415c0,1.65-1.35,3-3,3h-40.153c-1.65,0-3-1.35-3-3v-40.154c0-1.65,1.35-3,3-3h40.153
				c1.65,0,3,1.35,3,3V189.415z"/>
			<path fill="none" stroke="#FFFFFF" stroke-width="0.5" stroke-miterlimit="10" d="M427.829,189.415c0,1.65-1.35,3-3,3h-40.153
				c-1.65,0-3-1.35-3-3v-40.154c0-1.65,1.35-3,3-3h40.153c1.65,0,3,1.35,3,3V189.415z"/>
		</g>
	</g>
	<text transform="matrix(1 0 0 1 443.8574 232.6309)"><tspan x="0" y="0" fill="#333333" font-family="'DS4DisplaySansMedium'" font-size="14">South</tspan><tspan x="0" y="18" fill="#333333" font-family="'DS4DisplaySansMedium'" font-size="14">Antrim</tspan></text>
</g>
<g id="east_londonderry">
	<g>
		<g id="east_londonderry_x5F_5_3_">
			<path fill="#F1F1F1" d="M335.522,97.107c0,1.65-1.35,3-3,3h-40.154c-1.65,0-3-1.35-3-3V56.954c0-1.649,1.35-3,3-3h40.154
				c1.65,0,3,1.351,3,3V97.107z"/>
			<path fill="none" stroke="#FFFFFF" stroke-width="0.5" stroke-miterlimit="10" d="M335.522,97.107c0,1.65-1.35,3-3,3h-40.154
				c-1.65,0-3-1.35-3-3V56.954c0-1.649,1.35-3,3-3h40.154c1.65,0,3,1.351,3,3V97.107z"/>
		</g>
		<g id="east_londonderry_x5F_6_1_">
			<path fill="#F1F1F1" d="M335.522,143.261c0,1.65-1.35,3-3,3h-40.154c-1.65,0-3-1.35-3-3v-40.153c0-1.65,1.35-3,3-3h40.154
				c1.65,0,3,1.35,3,3V143.261z"/>
			<path fill="none" stroke="#FFFFFF" stroke-width="0.5" stroke-miterlimit="10" d="M335.522,143.261c0,1.65-1.35,3-3,3h-40.154
				c-1.65,0-3-1.35-3-3v-40.153c0-1.65,1.35-3,3-3h40.154c1.65,0,3,1.35,3,3V143.261z"/>
		</g>
		<g id="east_londonderry_x5F_4">
			<path fill="#F1F1F1" d="M289.368,97.107c0,1.65-1.35,3-3,3h-40.154c-1.65,0-3-1.35-3-3V56.954c0-1.649,1.35-3,3-3h40.154
				c1.65,0,3,1.351,3,3V97.107z"/>
			<path fill="none" stroke="#FFFFFF" stroke-width="0.5" stroke-miterlimit="10" d="M289.368,97.107c0,1.65-1.35,3-3,3h-40.154
				c-1.65,0-3-1.35-3-3V56.954c0-1.649,1.35-3,3-3h40.154c1.65,0,3,1.351,3,3V97.107z"/>
		</g>
		<g id="east_londonderry_x5F_3">
			<path fill="#F1F1F1" d="M289.368,143.261c0,1.65-1.35,3-3,3h-40.154c-1.65,0-3-1.35-3-3v-40.153c0-1.65,1.35-3,3-3h40.154
				c1.65,0,3,1.35,3,3V143.261z"/>
			<path fill="none" stroke="#FFFFFF" stroke-width="0.5" stroke-miterlimit="10" d="M289.368,143.261c0,1.65-1.35,3-3,3h-40.154
				c-1.65,0-3-1.35-3-3v-40.153c0-1.65,1.35-3,3-3h40.154c1.65,0,3,1.35,3,3V143.261z"/>
		</g>
		<g id="east_londonderry_x5F_1">
			<path fill="#F1F1F1" d="M197.061,143.261c0,1.65-1.35,3-3,3h-40.156c-1.65,0-3-1.35-3-3v-40.153c0-1.65,1.35-3,3-3h40.156
				c1.65,0,3,1.35,3,3V143.261z"/>
			<path fill="none" stroke="#FFFFFF" stroke-width="0.5" stroke-miterlimit="10" d="M197.061,143.261c0,1.65-1.35,3-3,3h-40.156
				c-1.65,0-3-1.35-3-3v-40.153c0-1.65,1.35-3,3-3h40.156c1.65,0,3,1.35,3,3V143.261z"/>
		</g>
		<g id="east_londonderry_x5F_2">
			<path fill="#F1F1F1" d="M243.214,143.261c0,1.65-1.35,3-3,3h-40.153c-1.65,0-3-1.35-3-3v-40.153c0-1.65,1.35-3,3-3h40.153
				c1.65,0,3,1.35,3,3V143.261z"/>
			<path fill="none" stroke="#FFFFFF" stroke-width="0.5" stroke-miterlimit="10" d="M243.214,143.261c0,1.65-1.35,3-3,3h-40.153
				c-1.65,0-3-1.35-3-3v-40.153c0-1.65,1.35-3,3-3h40.153c1.65,0,3,1.35,3,3V143.261z"/>
		</g>
	</g>
	<text transform="matrix(1 0 0 1 170.0605 126.9678)" fill="#333333" font-family="'DS4DisplaySansMedium'" font-size="14">East Londonderry</text>
</g>
<g id="mid_ulster">
	<g>
		<g id="mid_ulster_x5F_4">
			<path fill="#F1F1F1" d="M289.368,189.415c0,1.65-1.35,3-3,3h-40.154c-1.65,0-3-1.35-3-3v-40.154c0-1.65,1.35-3,3-3h40.154
				c1.65,0,3,1.35,3,3V189.415z"/>
			<path fill="none" stroke="#FFFFFF" stroke-width="0.5" stroke-miterlimit="10" d="M289.368,189.415c0,1.65-1.35,3-3,3h-40.154
				c-1.65,0-3-1.35-3-3v-40.154c0-1.65,1.35-3,3-3h40.154c1.65,0,3,1.35,3,3V189.415z"/>
		</g>
		<g id="mid_ulster_x5F_2_1_">
			<path fill="#F1F1F1" d="M243.214,189.415c0,1.65-1.35,3-3,3h-40.153c-1.65,0-3-1.35-3-3v-40.154c0-1.65,1.35-3,3-3h40.153
				c1.65,0,3,1.35,3,3V189.415z"/>
			<path fill="none" stroke="#FFFFFF" stroke-width="0.5" stroke-miterlimit="10" d="M243.214,189.415c0,1.65-1.35,3-3,3h-40.153
				c-1.65,0-3-1.35-3-3v-40.154c0-1.65,1.35-3,3-3h40.153c1.65,0,3,1.35,3,3V189.415z"/>
		</g>
		<g id="mid_ulster_x5F_5">
			<path fill="#F1F1F1" d="M289.368,235.569c0,1.65-1.35,3-3,3h-40.154c-1.65,0-3-1.35-3-3v-40.154c0-1.65,1.35-3,3-3h40.154
				c1.65,0,3,1.35,3,3V235.569z"/>
			<path fill="none" stroke="#FFFFFF" stroke-width="0.5" stroke-miterlimit="10" d="M289.368,235.569c0,1.65-1.35,3-3,3h-40.154
				c-1.65,0-3-1.35-3-3v-40.154c0-1.65,1.35-3,3-3h40.154c1.65,0,3,1.35,3,3V235.569z"/>
		</g>
		<g id="mid_ulster_x5F_1_1_">
			<path fill="#F1F1F1" d="M197.061,189.415c0,1.65-1.35,3-3,3h-40.156c-1.65,0-3-1.35-3-3v-40.154c0-1.65,1.35-3,3-3h40.156
				c1.65,0,3,1.35,3,3V189.415z"/>
			<path fill="none" stroke="#FFFFFF" stroke-width="0.5" stroke-miterlimit="10" d="M197.061,189.415c0,1.65-1.35,3-3,3h-40.156
				c-1.65,0-3-1.35-3-3v-40.154c0-1.65,1.35-3,3-3h40.156c1.65,0,3,1.35,3,3V189.415z"/>
		</g>
		<g id="mid_ulster_x5F_3_1_">
			<path fill="#F1F1F1" d="M243.214,235.569c0,1.65-1.35,3-3,3h-40.153c-1.65,0-3-1.35-3-3v-40.154c0-1.65,1.35-3,3-3h40.153
				c1.65,0,3,1.35,3,3V235.569z"/>
			<path fill="none" stroke="#FFFFFF" stroke-width="0.5" stroke-miterlimit="10" d="M243.214,235.569c0,1.65-1.35,3-3,3h-40.153
				c-1.65,0-3-1.35-3-3v-40.154c0-1.65,1.35-3,3-3h40.153c1.65,0,3,1.35,3,3V235.569z"/>
		</g>
		<g id="mid_ulster_x5F_6">
			<path fill="#F1F1F1" d="M289.368,281.722c0,1.649-1.35,3-3,3h-40.154c-1.65,0-3-1.351-3-3v-40.153c0-1.65,1.35-3,3-3h40.154
				c1.65,0,3,1.35,3,3V281.722z"/>
			<path fill="none" stroke="#FFFFFF" stroke-width="0.5" stroke-miterlimit="10" d="M289.368,281.722c0,1.649-1.35,3-3,3h-40.154
				c-1.65,0-3-1.351-3-3v-40.153c0-1.65,1.35-3,3-3h40.154c1.65,0,3,1.35,3,3V281.722z"/>
		</g>
	</g>
	<text transform="matrix(1 0 0 1 170.2354 174.2378)" fill="#333333" font-family="'DS4DisplaySansMedium'" font-size="14">Mid Ulster</text>
</g>
<g id="foyle">
	<g>
		<g id="foyle_x5F_4_1_">
			<path fill="#F1F1F1" d="M153.905,238.569c-1.65,0-3-1.35-3-3v-40.154c0-1.65,1.35-3,3-3h40.156c1.65,0,3,1.35,3,3v40.154
				c0,1.65-1.35,3-3,3H153.905z"/>
			<path fill="none" stroke="#FFFFFF" stroke-width="0.5" stroke-miterlimit="10" d="M153.905,238.569c-1.65,0-3-1.35-3-3v-40.154
				c0-1.65,1.35-3,3-3h40.156c1.65,0,3,1.35,3,3v40.154c0,1.65-1.35,3-3,3H153.905z"/>
		</g>
		<g id="foyle_x5F_1_1_">
			<path fill="#F1F1F1" d="M107.75,146.261c-1.65,0-3-1.35-3-3v-40.153c0-1.65,1.35-3,3-3h40.155c1.65,0,3,1.35,3,3l-0.001,40.153
				c0,1.65-1.35,3-3,3H107.75z"/>
			<path fill="none" stroke="#FFFFFF" stroke-width="0.5" stroke-miterlimit="10" d="M107.75,146.261c-1.65,0-3-1.35-3-3v-40.153
				c0-1.65,1.35-3,3-3h40.155c1.65,0,3,1.35,3,3l-0.001,40.153c0,1.65-1.35,3-3,3H107.75z"/>
		</g>
		<g id="foyle_x5F_5">
			<path fill="#F1F1F1" d="M153.905,284.722c-1.65,0-3-1.351-3-3l0.004-40.153c0-1.65,1.35-3,3-3h40.152c1.65,0,3,1.35,3,3
				l0.001,40.153c0,1.649-1.35,3-3,3H153.905z"/>
			<path fill="none" stroke="#FFFFFF" stroke-width="0.5" stroke-miterlimit="10" d="M153.905,284.722c-1.65,0-3-1.351-3-3
				l0.004-40.153c0-1.65,1.35-3,3-3h40.152c1.65,0,3,1.35,3,3l0.001,40.153c0,1.649-1.35,3-3,3H153.905z"/>
		</g>
		<g id="foyle_x5F_2">
			<path fill="#F1F1F1" d="M107.752,192.415c-1.65,0-3-1.35-3-3v-40.154c0-1.65,1.35-3,3-3l40.157-0.001c1.65,0,3,1.35,3,3v40.156
				c0,1.65-1.35,3-3,3H107.752z"/>
			<path fill="none" stroke="#FFFFFF" stroke-width="0.5" stroke-miterlimit="10" d="M107.752,192.415c-1.65,0-3-1.35-3-3v-40.154
				c0-1.65,1.35-3,3-3l40.157-0.001c1.65,0,3,1.35,3,3v40.156c0,1.65-1.35,3-3,3H107.752z"/>
		</g>
		<g id="foyle_x5F_3">
			<path fill="#F1F1F1" d="M107.755,238.571c-1.65,0-3-1.35-3-3v-40.156c0-1.65,1.35-3,3-3l40.15,0.003c1.65,0,3,1.35,3,3v40.153
				c0,1.65-1.35,3-3,3H107.755z"/>
			<path fill="none" stroke="#FFFFFF" stroke-width="0.5" stroke-miterlimit="10" d="M107.755,238.571c-1.65,0-3-1.35-3-3v-40.156
				c0-1.65,1.35-3,3-3l40.15,0.003c1.65,0,3,1.35,3,3v40.153c0,1.65-1.35,3-3,3H107.755z"/>
		</g>
		<g id="foyle_x5F_6">
			<path fill="#F1F1F1" d="M200.061,284.722c-1.65,0-3-1.351-3-3v-40.153c0-1.65,1.35-3,3-3h40.155c1.65,0,3,1.35,3,3l-0.002,40.153
				c0,1.649-1.35,3-3,3H200.061z"/>
			<path fill="none" stroke="#FFFFFF" stroke-width="0.5" stroke-miterlimit="10" d="M200.061,284.722c-1.65,0-3-1.351-3-3v-40.153
				c0-1.65,1.35-3,3-3h40.155c1.65,0,3,1.35,3,3l-0.002,40.153c0,1.649-1.35,3-3,3H200.061z"/>
		</g>
	</g>
	<text transform="matrix(1 0 0 1 120.1699 220.1689)" fill="#333333" font-family="'DS4DisplaySansMedium'" font-size="14">Foyle</text>
</g>
<g id="west_tyrone">
	<g>
		<g id="west_tyrone_x5F_6">
			<path fill="#F1F1F1" d="M104.752,420.184c0,1.65-1.35,3-3,3H61.598c-1.65,0-3-1.35-3-3v-40.153c0-1.649,1.35-3,3-3h40.154
				c1.65,0,3,1.351,3,3V420.184z"/>
			<path fill="none" stroke="#FFFFFF" stroke-width="0.5" stroke-miterlimit="10" d="M104.752,420.184c0,1.65-1.35,3-3,3H61.598
				c-1.65,0-3-1.35-3-3v-40.153c0-1.649,1.35-3,3-3h40.154c1.65,0,3,1.351,3,3V420.184z"/>
		</g>
		<g id="west_tyrone_x5F_2">
			<path fill="#F1F1F1" d="M197.061,327.877c0,1.65-1.35,3-3,3h-40.156c-1.65,0-3-1.35-3-3v-40.155c0-1.65,1.35-3,3-3h40.156
				c1.65,0,3,1.35,3,3V327.877z"/>
			<path fill="none" stroke="#FFFFFF" stroke-width="0.5" stroke-miterlimit="10" d="M197.061,327.877c0,1.65-1.35,3-3,3h-40.156
				c-1.65,0-3-1.35-3-3v-40.155c0-1.65,1.35-3,3-3h40.156c1.65,0,3,1.35,3,3V327.877z"/>
		</g>
		<g id="west_tyrone_x5F_1_1_">
			<path fill="#F1F1F1" d="M243.214,327.877c0,1.65-1.35,3-3,3h-40.153c-1.65,0-3-1.35-3-3v-40.155c0-1.65,1.35-3,3-3h40.153
				c1.65,0,3,1.35,3,3V327.877z"/>
			<path fill="none" stroke="#FFFFFF" stroke-width="0.5" stroke-miterlimit="10" d="M243.214,327.877c0,1.65-1.35,3-3,3h-40.153
				c-1.65,0-3-1.35-3-3v-40.155c0-1.65,1.35-3,3-3h40.153c1.65,0,3,1.35,3,3V327.877z"/>
		</g>
		<g id="west_tyrone_x5F_4">
			<path fill="#F1F1F1" d="M150.905,374.031c0,1.65-1.35,3-3,3h-40.153c-1.65,0-3-1.35-3-3v-40.154c0-1.65,1.35-3,3-3h40.153
				c1.65,0,3,1.35,3,3V374.031z"/>
			<path fill="none" stroke="#FFFFFF" stroke-width="0.5" stroke-miterlimit="10" d="M150.905,374.031c0,1.65-1.35,3-3,3h-40.153
				c-1.65,0-3-1.35-3-3v-40.154c0-1.65,1.35-3,3-3h40.153c1.65,0,3,1.35,3,3V374.031z"/>
		</g>
		<g id="west_tyrone_x5F_3">
			<path fill="#F1F1F1" d="M197.061,374.031c0,1.65-1.35,3-3,3h-40.156c-1.65,0-3-1.35-3-3v-40.154c0-1.65,1.35-3,3-3h40.156
				c1.65,0,3,1.35,3,3V374.031z"/>
			<path fill="none" stroke="#FFFFFF" stroke-width="0.5" stroke-miterlimit="10" d="M197.061,374.031c0,1.65-1.35,3-3,3h-40.156
				c-1.65,0-3-1.35-3-3v-40.154c0-1.65,1.35-3,3-3h40.156c1.65,0,3,1.35,3,3V374.031z"/>
		</g>
		<g id="west_tyrone_x5F_5_1_">
			<path fill="#F1F1F1" d="M104.752,374.031c0,1.65-1.35,3-3,3H61.598c-1.65,0-3-1.35-3-3v-40.154c0-1.65,1.35-3,3-3h40.154
				c1.65,0,3,1.35,3,3V374.031z"/>
			<path fill="none" stroke="#FFFFFF" stroke-width="0.5" stroke-miterlimit="10" d="M104.752,374.031c0,1.65-1.35,3-3,3H61.598
				c-1.65,0-3-1.35-3-3v-40.154c0-1.65,1.35-3,3-3h40.154c1.65,0,3,1.35,3,3V374.031z"/>
		</g>
	</g>
	<text transform="matrix(1 0 0 1 67.4463 359.4077)" fill="#333333" font-family="'DS4DisplaySansMedium'" font-size="14">West Tyrone</text>
</g>
<g id="fermanagh_and_south_tyrone">
	<g>
		<g id="fermanagh_and_south_tyrone_x5F_3_1_">
			<path fill="#F1F1F1" d="M58.598,558.646c0,1.65-1.35,3-3,3H15.444c-1.65,0-3-1.35-3-3v-40.153c0-1.65,1.35-3,3-3h40.154
				c1.65,0,3,1.35,3,3V558.646z"/>
			<path fill="none" stroke="#FFFFFF" stroke-width="0.5" stroke-miterlimit="10" d="M58.598,558.646c0,1.65-1.35,3-3,3H15.444
				c-1.65,0-3-1.35-3-3v-40.153c0-1.65,1.35-3,3-3h40.154c1.65,0,3,1.35,3,3V558.646z"/>
		</g>
		<g id="fermanagh_and_south_tyrone_x5F_6">
			<path fill="#F1F1F1" d="M58.598,420.184c0,1.65-1.35,3-3,3H15.444c-1.65,0-3-1.35-3-3v-40.153c0-1.649,1.35-3,3-3h40.154
				c1.65,0,3,1.351,3,3V420.184z"/>
			<path fill="none" stroke="#FFFFFF" stroke-width="0.5" stroke-miterlimit="10" d="M58.598,420.184c0,1.65-1.35,3-3,3H15.444
				c-1.65,0-3-1.35-3-3v-40.153c0-1.649,1.35-3,3-3h40.154c1.65,0,3,1.351,3,3V420.184z"/>
		</g>
		<g id="fermanagh_and_south_tyrone_x5F_2_1_">
			<path fill="#F1F1F1" d="M104.752,558.646c0,1.65-1.35,3-3,3H61.598c-1.65,0-3-1.35-3-3v-40.153c0-1.65,1.35-3,3-3h40.154
				c1.65,0,3,1.35,3,3V558.646z"/>
			<path fill="none" stroke="#FFFFFF" stroke-width="0.5" stroke-miterlimit="10" d="M104.752,558.646c0,1.65-1.35,3-3,3H61.598
				c-1.65,0-3-1.35-3-3v-40.153c0-1.65,1.35-3,3-3h40.154c1.65,0,3,1.35,3,3V558.646z"/>
		</g>
		<g id="fermanagh_and_south_tyrone_x5F_1_1_">
			<path fill="#F1F1F1" d="M150.905,558.646c0,1.65-1.35,3-3,3h-40.153c-1.65,0-3-1.35-3-3v-40.153c0-1.65,1.35-3,3-3h40.153
				c1.65,0,3,1.35,3,3V558.646z"/>
			<path fill="none" stroke="#FFFFFF" stroke-width="0.5" stroke-miterlimit="10" d="M150.905,558.646c0,1.65-1.35,3-3,3h-40.153
				c-1.65,0-3-1.35-3-3v-40.153c0-1.65,1.35-3,3-3h40.153c1.65,0,3,1.35,3,3V558.646z"/>
		</g>
		<g id="fermanagh_and_south_tyrone_x5F_5">
			<path fill="#F1F1F1" d="M58.598,466.338c0,1.65-1.35,3-3,3H15.444c-1.65,0-3-1.35-3-3v-40.154c0-1.65,1.35-3,3-3h40.154
				c1.65,0,3,1.35,3,3V466.338z"/>
			<path fill="none" stroke="#FFFFFF" stroke-width="0.5" stroke-miterlimit="10" d="M58.598,466.338c0,1.65-1.35,3-3,3H15.444
				c-1.65,0-3-1.35-3-3v-40.154c0-1.65,1.35-3,3-3h40.154c1.65,0,3,1.35,3,3V466.338z"/>
		</g>
		<g id="fermanagh_and_south_tyrone_x5F_4">
			<path fill="#F1F1F1" d="M58.598,512.492c0,1.65-1.35,3-3,3H15.444c-1.65,0-3-1.35-3-3v-40.154c0-1.65,1.35-3,3-3h40.154
				c1.65,0,3,1.35,3,3V512.492z"/>
			<path fill="none" stroke="#FFFFFF" stroke-width="0.5" stroke-miterlimit="10" d="M58.598,512.492c0,1.65-1.35,3-3,3H15.444
				c-1.65,0-3-1.35-3-3v-40.154c0-1.65,1.35-3,3-3h40.154c1.65,0,3,1.35,3,3V512.492z"/>
		</g>
	</g>
	<text transform="matrix(1 0 0 1 29.5469 534.895)"><tspan x="0" y="0" fill="#333333" font-family="'DS4DisplaySansMedium'" font-size="14">Fermanagh and</tspan><tspan x="0" y="18" fill="#333333" font-family="'DS4DisplaySansMedium'" font-size="14">South Tyrone</tspan></text>
</g>
<g id="newry_and_armagh">
	<g>
		<g id="newry_and_armagh_x5F_5">
			<path fill="#F1F1F1" d="M246.214,607.799c-1.65,0-3-1.35-3-3v-40.154c0-1.65,1.35-3,3-3h40.154c1.65,0,3,1.35,3,3v40.154
				c0,1.65-1.35,3-3,3H246.214z"/>
			<path fill="none" stroke="#FFFFFF" stroke-width="0.5" stroke-miterlimit="10" d="M246.214,607.799c-1.65,0-3-1.35-3-3v-40.154
				c0-1.65,1.35-3,3-3h40.154c1.65,0,3,1.35,3,3v40.154c0,1.65-1.35,3-3,3H246.214z"/>
		</g>
		<g id="newry_and_armagh_x5F_3_1_">
			<path fill="#F1F1F1" d="M200.061,561.646c-1.65,0-3-1.35-3-3v-40.153c0-1.65,1.35-3,3-3h40.153c1.65,0,3,1.35,3,3v40.153
				c0,1.65-1.35,3-3,3H200.061z"/>
			<path fill="none" stroke="#FFFFFF" stroke-width="0.5" stroke-miterlimit="10" d="M200.061,561.646c-1.65,0-3-1.35-3-3v-40.153
				c0-1.65,1.35-3,3-3h40.153c1.65,0,3,1.35,3,3v40.153c0,1.65-1.35,3-3,3H200.061z"/>
		</g>
		<g id="newry_and_armagh_x5F_4">
			<path fill="#F1F1F1" d="M200.061,607.799c-1.65,0-3-1.35-3-3v-40.154c0-1.65,1.35-3,3-3h40.153c1.65,0,3,1.35,3,3v40.154
				c0,1.65-1.35,3-3,3H200.061z"/>
			<path fill="none" stroke="#FFFFFF" stroke-width="0.5" stroke-miterlimit="10" d="M200.061,607.799c-1.65,0-3-1.35-3-3v-40.154
				c0-1.65,1.35-3,3-3h40.153c1.65,0,3,1.35,3,3v40.154c0,1.65-1.35,3-3,3H200.061z"/>
		</g>
		<g id="newry_and_armagh_x5F_2_1_">
			<path fill="#F1F1F1" d="M150.909,518.49c0-1.65,1.35-3,3-3l40.153,0.002c1.65,0,3,1.351,3,3v40.151c0,1.65-1.35,3-3,3
				l-40.153,0.001c-1.65,0-3-1.35-3-3V518.49z"/>
			<path fill="none" stroke="#FFFFFF" stroke-width="0.5" stroke-miterlimit="10" d="M150.909,518.49c0-1.65,1.35-3,3-3
				l40.153,0.002c1.65,0,3,1.351,3,3v40.151c0,1.65-1.35,3-3,3l-40.153,0.001c-1.65,0-3-1.35-3-3V518.49z"/>
		</g>
		<g id="newry_and_armagh_x5F_6">
			<path fill="#F1F1F1" d="M246.214,561.646c-1.65,0-3-1.35-3-3v-40.153c0-1.65,1.35-3,3-3h40.154c1.65,0,3,1.35,3,3v40.153
				c0,1.65-1.35,3-3,3H246.214z"/>
			<path fill="none" stroke="#FFFFFF" stroke-width="0.5" stroke-miterlimit="10" d="M246.214,561.646c-1.65,0-3-1.35-3-3v-40.153
				c0-1.65,1.35-3,3-3h40.154c1.65,0,3,1.35,3,3v40.153c0,1.65-1.35,3-3,3H246.214z"/>
		</g>
		<g id="newry_and_armagh_x5F_1">
			<path fill="#F1F1F1" d="M197.062,515.492l-43.153-0.002c-1.65,0-3-1.351-3-3v-40.152c0-1.65,1.35-3,3-3h40.152c1.65,0,3,1.35,3,3
				L197.062,515.492"/>
			<path fill="none" stroke="#FFFFFF" stroke-width="0.5" stroke-miterlimit="10" d="M197.062,515.492l-43.153-0.002
				c-1.65,0-3-1.351-3-3v-40.152c0-1.65,1.35-3,3-3h40.152c1.65,0,3,1.35,3,3L197.062,515.492"/>
		</g>
	</g>
	<text transform="matrix(1 0 0 1 170.2354 534.895)"><tspan x="0" y="0" fill="#333333" font-family="'DS4DisplaySansMedium'" font-size="14">Newry and</tspan><tspan x="0" y="18" fill="#333333" font-family="'DS4DisplaySansMedium'" font-size="14">Armagh</tspan></text>
</g>
<g id="upper_bann">
	<g>
		<g id="upper_bann_x5F_1">
			<path fill="#F1F1F1" d="M197.061,420.184c0,1.65-1.35,3-3,3h-40.156c-1.65,0-3-1.35-3-3v-40.153c0-1.649,1.35-3,3-3h40.156
				c1.65,0,3,1.351,3,3V420.184z"/>
			<path fill="none" stroke="#FFFFFF" stroke-width="0.5" stroke-miterlimit="10" d="M197.061,420.184c0,1.65-1.35,3-3,3h-40.156
				c-1.65,0-3-1.35-3-3v-40.153c0-1.649,1.35-3,3-3h40.156c1.65,0,3,1.351,3,3V420.184z"/>
		</g>
		<g id="upper_bann_x5F_4_1_">
			<path fill="#F1F1F1" d="M104.752,466.338c0,1.65-1.35,3-3,3H61.598c-1.65,0-3-1.35-3-3v-40.154c0-1.65,1.35-3,3-3h40.154
				c1.65,0,3,1.35,3,3V466.338z"/>
			<path fill="none" stroke="#FFFFFF" stroke-width="0.5" stroke-miterlimit="10" d="M104.752,466.338c0,1.65-1.35,3-3,3H61.598
				c-1.65,0-3-1.35-3-3v-40.154c0-1.65,1.35-3,3-3h40.154c1.65,0,3,1.35,3,3V466.338z"/>
		</g>
		<g id="upper_bann_x5F_2">
			<path fill="#F1F1F1" d="M150.905,420.184c0,1.65-1.35,3-3,3h-40.153c-1.65,0-3-1.35-3-3v-40.153c0-1.649,1.35-3,3-3h40.153
				c1.65,0,3,1.351,3,3V420.184z"/>
			<path fill="none" stroke="#FFFFFF" stroke-width="0.5" stroke-miterlimit="10" d="M150.905,420.184c0,1.65-1.35,3-3,3h-40.153
				c-1.65,0-3-1.35-3-3v-40.153c0-1.649,1.35-3,3-3h40.153c1.65,0,3,1.351,3,3V420.184z"/>
		</g>
		<g id="upper_bann_x5F_3">
			<path fill="#F1F1F1" d="M150.905,423.184v43.154c0,1.65-1.35,3-3,3h-40.153c-1.65,0-3-1.35-3-3v-40.154c0-1.65,1.35-3,3-3
				H150.905"/>
			<path fill="none" stroke="#FFFFFF" stroke-width="0.5" stroke-miterlimit="10" d="M150.905,423.184v43.154c0,1.65-1.35,3-3,3
				h-40.153c-1.65,0-3-1.35-3-3v-40.154c0-1.65,1.35-3,3-3H150.905"/>
		</g>
		<g id="upper_bann_x5F_5">
			<path fill="#F1F1F1" d="M104.752,512.492c0,1.65-1.35,3-3,3H61.598c-1.65,0-3-1.35-3-3v-40.154c0-1.65,1.35-3,3-3h40.154
				c1.65,0,3,1.35,3,3V512.492z"/>
			<path fill="none" stroke="#FFFFFF" stroke-width="0.5" stroke-miterlimit="10" d="M104.752,512.492c0,1.65-1.35,3-3,3H61.598
				c-1.65,0-3-1.35-3-3v-40.154c0-1.65,1.35-3,3-3h40.154c1.65,0,3,1.35,3,3V512.492z"/>
		</g>
		<g id="upper_bann_x5F_6_1_">
			<path fill="#F1F1F1" d="M150.905,512.492c0,1.65-1.35,3-3,3h-40.153c-1.65,0-3-1.35-3-3v-40.154c0-1.65,1.35-3,3-3h40.153
				c1.65,0,3,1.35,3,3V512.492z"/>
			<path fill="none" stroke="#FFFFFF" stroke-width="0.5" stroke-miterlimit="10" d="M150.905,512.492c0,1.65-1.35,3-3,3h-40.153
				c-1.65,0-3-1.35-3-3v-40.154c0-1.65,1.35-3,3-3h40.153c1.65,0,3,1.35,3,3V512.492z"/>
		</g>
	</g>
	<text transform="matrix(1 0 0 1 67.4463 452.2993)" fill="#333333" font-family="'DS4DisplaySansMedium'" font-size="14">Upper Bann</text>
</g>
<g id="south_down">
	<g>
		<g id="south_down_x5F_5_1_">
			<path fill="#F1F1F1" d="M381.676,558.646c0,1.65,1.35,3,3,3h40.153c1.65,0,3-1.35,3-3v-40.153c0-1.65-1.35-3-3-3h-40.153
				c-1.65,0-3,1.35-3,3V558.646z"/>
			<path fill="none" stroke="#FFFFFF" stroke-width="0.5" stroke-miterlimit="10" d="M381.676,558.646c0,1.65,1.35,3,3,3h40.153
				c1.65,0,3-1.35,3-3v-40.153c0-1.65-1.35-3-3-3h-40.153c-1.65,0-3,1.35-3,3V558.646z"/>
		</g>
		<g id="south_down_x5F_4">
			<path fill="#F1F1F1" d="M335.522,558.646c0,1.65,1.35,3,3,3h40.153c1.65,0,3-1.35,3-3v-40.153c0-1.65-1.35-3-3-3h-40.153
				c-1.65,0-3,1.35-3,3V558.646z"/>
			<path fill="none" stroke="#FFFFFF" stroke-width="0.5" stroke-miterlimit="10" d="M335.522,558.646c0,1.65,1.35,3,3,3h40.153
				c1.65,0,3-1.35,3-3v-40.153c0-1.65-1.35-3-3-3h-40.153c-1.65,0-3,1.35-3,3V558.646z"/>
		</g>
		<g id="south_down_x5F_1_1_">
			<path fill="#F1F1F1" d="M289.368,558.646c0,1.65,1.35,3,3,3h40.154c1.65,0,3-1.35,3-3v-40.153c0-1.65-1.35-3-3-3h-40.154
				c-1.65,0-3,1.35-3,3V558.646z"/>
			<path fill="none" stroke="#FFFFFF" stroke-width="0.5" stroke-miterlimit="10" d="M289.368,558.646c0,1.65,1.35,3,3,3h40.154
				c1.65,0,3-1.35,3-3v-40.153c0-1.65-1.35-3-3-3h-40.154c-1.65,0-3,1.35-3,3V558.646z"/>
		</g>
		<g id="south_down_x5F_6">
			<path fill="#F1F1F1" d="M427.829,558.646c0,1.65,1.35,3,3,3h40.154c1.65,0,3-1.35,3-3v-40.153c0-1.65-1.35-3-3-3h-40.154
				c-1.65,0-3,1.35-3,3V558.646z"/>
			<path fill="none" stroke="#FFFFFF" stroke-width="0.5" stroke-miterlimit="10" d="M427.829,558.646c0,1.65,1.35,3,3,3h40.154
				c1.65,0,3-1.35,3-3v-40.153c0-1.65-1.35-3-3-3h-40.154c-1.65,0-3,1.35-3,3V558.646z"/>
		</g>
		<g id="south_down_x5F_3">
			<path fill="#F1F1F1" d="M335.522,604.799c0,1.65,1.35,3,3,3h40.153c1.65,0,3-1.35,3-3v-40.154c0-1.65-1.35-3-3-3h-40.153
				c-1.65,0-3,1.35-3,3V604.799z"/>
			<path fill="none" stroke="#FFFFFF" stroke-width="0.5" stroke-miterlimit="10" d="M335.522,604.799c0,1.65,1.35,3,3,3h40.153
				c1.65,0,3-1.35,3-3v-40.154c0-1.65-1.35-3-3-3h-40.153c-1.65,0-3,1.35-3,3V604.799z"/>
		</g>
		<g id="south_down_x5F_2">
			<path fill="#F1F1F1" d="M289.368,604.799c0,1.65,1.35,3,3,3h40.154c1.65,0,3-1.35,3-3v-40.154c0-1.65-1.35-3-3-3h-40.154
				c-1.65,0-3,1.35-3,3V604.799z"/>
			<path fill="none" stroke="#FFFFFF" stroke-width="0.5" stroke-miterlimit="10" d="M289.368,604.799c0,1.65,1.35,3,3,3h40.154
				c1.65,0,3-1.35,3-3v-40.154c0-1.65-1.35-3-3-3h-40.154c-1.65,0-3,1.35-3,3V604.799z"/>
		</g>
	</g>
	<text transform="matrix(1 0 0 1 307.2012 534.895)" fill="#333333" font-family="'DS4DisplaySansMedium'" font-size="14">South Down</text>
</g>
<g id="lagan_valley">
	<g>
		<g id="lagan_valley_x5F_3">
			<path fill="#F1F1F1" d="M243.214,466.338c0,1.65,1.35,3,3,3h40.154c1.65,0,3-1.35,3-3v-40.154c0-1.65-1.35-3-3-3h-40.154
				c-1.65,0-3,1.35-3,3V466.338z"/>
			<path fill="none" stroke="#FFFFFF" stroke-width="0.5" stroke-miterlimit="10" d="M243.214,466.338c0,1.65,1.35,3,3,3h40.154
				c1.65,0,3-1.35,3-3v-40.154c0-1.65-1.35-3-3-3h-40.154c-1.65,0-3,1.35-3,3V466.338z"/>
		</g>
		<g id="lagan_valley_x5F_4">
			<path fill="#F1F1F1" d="M197.061,466.338c0,1.65,1.35,3,3,3h40.153c1.65,0,3-1.35,3-3v-40.154c0-1.65-1.35-3-3-3h-40.153
				c-1.65,0-3,1.35-3,3V466.338z"/>
			<path fill="none" stroke="#FFFFFF" stroke-width="0.5" stroke-miterlimit="10" d="M197.061,466.338c0,1.65,1.35,3,3,3h40.153
				c1.65,0,3-1.35,3-3v-40.154c0-1.65-1.35-3-3-3h-40.153c-1.65,0-3,1.35-3,3V466.338z"/>
		</g>
		<g id="lagan_valley_x5F_1">
			<path fill="#F1F1F1" d="M197.061,512.492c0,1.65,1.35,3,3,3h40.153c1.65,0,3-1.35,3-3v-40.154c0-1.65-1.35-3-3-3h-40.153
				c-1.65,0-3,1.35-3,3V512.492z"/>
			<path fill="none" stroke="#FFFFFF" stroke-width="0.5" stroke-miterlimit="10" d="M197.061,512.492c0,1.65,1.35,3,3,3h40.153
				c1.65,0,3-1.35,3-3v-40.154c0-1.65-1.35-3-3-3h-40.153c-1.65,0-3,1.35-3,3V512.492z"/>
		</g>
		<g id="lagan_valley_x5F_6">
			<path fill="#F1F1F1" d="M150.905,466.338c0,1.65,1.35,3,3,3h40.156c1.65,0,3-1.35,3-3v-40.154c0-1.65-1.35-3-3-3h-40.156
				c-1.65,0-3,1.35-3,3V466.338z"/>
			<path fill="none" stroke="#FFFFFF" stroke-width="0.5" stroke-miterlimit="10" d="M150.905,466.338c0,1.65,1.35,3,3,3h40.156
				c1.65,0,3-1.35,3-3v-40.154c0-1.65-1.35-3-3-3h-40.156c-1.65,0-3,1.35-3,3V466.338z"/>
		</g>
		<g id="lagan_valley_x5F_5">
			<path fill="#F1F1F1" d="M197.061,420.184c0,1.65,1.35,3,3,3h40.153c1.65,0,3-1.35,3-3v-40.153c0-1.649-1.35-3-3-3h-40.153
				c-1.65,0-3,1.351-3,3V420.184z"/>
			<path fill="none" stroke="#FFFFFF" stroke-width="0.5" stroke-miterlimit="10" d="M197.061,420.184c0,1.65,1.35,3,3,3h40.153
				c1.65,0,3-1.35,3-3v-40.153c0-1.649-1.35-3-3-3h-40.153c-1.65,0-3,1.351-3,3V420.184z"/>
		</g>
		<g id="lagan_valley_x5F_2">
			<path fill="#F1F1F1" d="M243.214,512.492c0,1.65,1.35,3,3,3h40.154c1.65,0,3-1.35,3-3v-40.154c0-1.65-1.35-3-3-3h-40.154
				c-1.65,0-3,1.35-3,3V512.492z"/>
			<path fill="none" stroke="#FFFFFF" stroke-width="0.5" stroke-miterlimit="10" d="M243.214,512.492c0,1.65,1.35,3,3,3h40.154
				c1.65,0,3-1.35,3-3v-40.154c0-1.65-1.35-3-3-3h-40.154c-1.65,0-3,1.35-3,3V512.492z"/>
		</g>
	</g>
	<text transform="matrix(1 0 0 1 170.2354 452.2993)" fill="#333333" font-family="'DS4DisplaySansMedium'" font-size="14">Lagan Valley</text>
</g>
<g id="strangford">
	<g>
		<g id="strangford_x5F_3_1_">
			<path fill="#F1F1F1" d="M473.983,466.338c0,1.65-1.35,3-3,3h-40.154c-1.65,0-3-1.35-3-3v-40.154c0-1.65,1.35-3,3-3h40.154
				c1.65,0,3,1.35,3,3V466.338z"/>
			<path fill="none" stroke="#FFFFFF" stroke-width="0.5" stroke-miterlimit="10" d="M473.983,466.338c0,1.65-1.35,3-3,3h-40.154
				c-1.65,0-3-1.35-3-3v-40.154c0-1.65,1.35-3,3-3h40.154c1.65,0,3,1.35,3,3V466.338z"/>
		</g>
		<g id="strangford_x5F_2">
			<path fill="#F1F1F1" d="M520.137,466.338c0,1.65-1.35,3-3,3h-40.153c-1.65,0-3-1.35-3-3v-40.154c0-1.65,1.35-3,3-3h40.153
				c1.65,0,3,1.35,3,3V466.338z"/>
			<path fill="none" stroke="#FFFFFF" stroke-width="0.5" stroke-miterlimit="10" d="M520.137,466.338c0,1.65-1.35,3-3,3h-40.153
				c-1.65,0-3-1.35-3-3v-40.154c0-1.65,1.35-3,3-3h40.153c1.65,0,3,1.35,3,3V466.338z"/>
		</g>
		<g id="strangford_x5F_1">
			<path fill="#F1F1F1" d="M566.29,466.338c0,1.65-1.35,3-3,3h-40.153c-1.65,0-3-1.35-3-3v-40.154c0-1.65,1.35-3,3-3h40.153
				c1.65,0,3,1.35,3,3V466.338z"/>
			<path fill="none" stroke="#FFFFFF" stroke-width="0.5" stroke-miterlimit="10" d="M566.29,466.338c0,1.65-1.35,3-3,3h-40.153
				c-1.65,0-3-1.35-3-3v-40.154c0-1.65,1.35-3,3-3h40.153c1.65,0,3,1.35,3,3V466.338z"/>
		</g>
		<g id="strangford_x5F_4">
			<path fill="#F1F1F1" d="M473.983,512.492c0,1.65-1.35,3-3,3h-40.154c-1.65,0-3-1.35-3-3v-40.154c0-1.65,1.35-3,3-3h40.154
				c1.65,0,3,1.35,3,3V512.492z"/>
			<path fill="none" stroke="#FFFFFF" stroke-width="0.5" stroke-miterlimit="10" d="M473.983,512.492c0,1.65-1.35,3-3,3h-40.154
				c-1.65,0-3-1.35-3-3v-40.154c0-1.65,1.35-3,3-3h40.154c1.65,0,3,1.35,3,3V512.492z"/>
		</g>
		<g id="strangford_x5F_5">
			<path fill="#F1F1F1" d="M520.137,512.492c0,1.65-1.35,3-3,3h-40.153c-1.65,0-3-1.35-3-3v-40.154c0-1.65,1.35-3,3-3h40.153
				c1.65,0,3,1.35,3,3V512.492z"/>
			<path fill="none" stroke="#FFFFFF" stroke-width="0.5" stroke-miterlimit="10" d="M520.137,512.492c0,1.65-1.35,3-3,3h-40.153
				c-1.65,0-3-1.35-3-3v-40.154c0-1.65,1.35-3,3-3h40.153c1.65,0,3,1.35,3,3V512.492z"/>
		</g>
		<g id="strangford_x5F_6">
			<path fill="#F1F1F1" d="M520.137,558.646c0,1.65-1.35,3-3,3h-40.153c-1.65,0-3-1.35-3-3v-40.153c0-1.65,1.35-3,3-3h40.153
				c1.65,0,3,1.35,3,3V558.646z"/>
			<path fill="none" stroke="#FFFFFF" stroke-width="0.5" stroke-miterlimit="10" d="M520.137,558.646c0,1.65-1.35,3-3,3h-40.153
				c-1.65,0-3-1.35-3-3v-40.153c0-1.65,1.35-3,3-3h40.153c1.65,0,3,1.35,3,3V558.646z"/>
		</g>
	</g>
	<text transform="matrix(1 0 0 1 443.8574 452.2993)" fill="#333333" font-family="'DS4DisplaySansMedium'" font-size="14">Strangford</text>
</g>
<g id="belfast_north">
	<g>
		<g id="belfast_north_x5F_2_1_">
			<path fill="#F1F1F1" d="M335.522,327.877c0,1.65-1.35,3-3,3h-40.154c-1.65,0-3-1.35-3-3v-40.155c0-1.65,1.35-3,3-3h40.154
				c1.65,0,3,1.35,3,3V327.877z"/>
			<path fill="none" stroke="#FFFFFF" stroke-width="0.5" stroke-miterlimit="10" d="M335.522,327.877c0,1.65-1.35,3-3,3h-40.154
				c-1.65,0-3-1.35-3-3v-40.155c0-1.65,1.35-3,3-3h40.154c1.65,0,3,1.35,3,3V327.877z"/>
		</g>
		<g id="belfast_north_x5F_3">
			<path fill="#F1F1F1" d="M381.676,327.877c0,1.65-1.35,3-3,3h-40.153c-1.65,0-3-1.35-3-3v-40.155c0-1.65,1.35-3,3-3h40.153
				c1.65,0,3,1.35,3,3V327.877z"/>
			<path fill="none" stroke="#FFFFFF" stroke-width="0.5" stroke-miterlimit="10" d="M381.676,327.877c0,1.65-1.35,3-3,3h-40.153
				c-1.65,0-3-1.35-3-3v-40.155c0-1.65,1.35-3,3-3h40.153c1.65,0,3,1.35,3,3V327.877z"/>
		</g>
		<g id="belfast_north_x5F_6">
			<path fill="#F1F1F1" d="M427.829,327.877c0,1.65-1.35,3-3,3h-40.153c-1.65,0-3-1.35-3-3v-40.155c0-1.65,1.35-3,3-3h40.153
				c1.65,0,3,1.35,3,3V327.877z"/>
			<path fill="none" stroke="#FFFFFF" stroke-width="0.5" stroke-miterlimit="10" d="M427.829,327.877c0,1.65-1.35,3-3,3h-40.153
				c-1.65,0-3-1.35-3-3v-40.155c0-1.65,1.35-3,3-3h40.153c1.65,0,3,1.35,3,3V327.877z"/>
		</g>
		<g id="belfast_north_x5F_1">
			<path fill="#F1F1F1" d="M335.522,281.722c0,1.649-1.35,3-3,3h-40.154c-1.65,0-3-1.351-3-3v-40.153c0-1.65,1.35-3,3-3h40.154
				c1.65,0,3,1.35,3,3V281.722z"/>
			<path fill="none" stroke="#FFFFFF" stroke-width="0.5" stroke-miterlimit="10" d="M335.522,281.722c0,1.649-1.35,3-3,3h-40.154
				c-1.65,0-3-1.351-3-3v-40.153c0-1.65,1.35-3,3-3h40.154c1.65,0,3,1.35,3,3V281.722z"/>
		</g>
		<g id="belfast_north_x5F_4">
			<path fill="#F1F1F1" d="M381.676,281.722c0,1.649-1.35,3-3,3h-40.153c-1.65,0-3-1.351-3-3v-40.153c0-1.65,1.35-3,3-3h40.153
				c1.65,0,3,1.35,3,3V281.722z"/>
			<path fill="none" stroke="#FFFFFF" stroke-width="0.5" stroke-miterlimit="10" d="M381.676,281.722c0,1.649-1.35,3-3,3h-40.153
				c-1.65,0-3-1.351-3-3v-40.153c0-1.65,1.35-3,3-3h40.153c1.65,0,3,1.35,3,3V281.722z"/>
		</g>
		<g id="belfast_north_x5F_5">
			<path fill="#F1F1F1" d="M427.829,281.722c0,1.649-1.35,3-3,3h-40.153c-1.65,0-3-1.351-3-3v-40.153c0-1.65,1.35-3,3-3h40.153
				c1.65,0,3,1.35,3,3V281.722z"/>
			<path fill="none" stroke="#FFFFFF" stroke-width="0.5" stroke-miterlimit="10" d="M427.829,281.722c0,1.649-1.35,3-3,3h-40.153
				c-1.65,0-3-1.351-3-3v-40.153c0-1.65,1.35-3,3-3h40.153c1.65,0,3,1.35,3,3V281.722z"/>
		</g>
	</g>
	<text transform="matrix(1 0 0 1 313.041 278.2017)"><tspan x="0" y="0" fill="#333333" font-family="'DS4DisplaySansMedium'" font-size="14">Belfast</tspan><tspan x="0" y="18" fill="#333333" font-family="'DS4DisplaySansMedium'" font-size="14">North</tspan></text>
</g>
<g id="belfast_east">
	<g>
		<g id="belfast_east_x5F_2_1_">
			<path fill="#F1F1F1" d="M381.676,420.184c0,1.65-1.35,3-3,3h-40.153c-1.65,0-3-1.35-3-3v-40.153c0-1.649,1.35-3,3-3h40.153
				c1.65,0,3,1.351,3,3V420.184z"/>
			<path fill="none" stroke="#FFFFFF" stroke-width="0.5" stroke-miterlimit="10" d="M381.676,420.184c0,1.65-1.35,3-3,3h-40.153
				c-1.65,0-3-1.35-3-3v-40.153c0-1.649,1.35-3,3-3h40.153c1.65,0,3,1.351,3,3V420.184z"/>
		</g>
		<g id="belfast_east_x5F_3">
			<path fill="#F1F1F1" d="M427.829,420.184c0,1.65-1.35,3-3,3h-40.153c-1.65,0-3-1.35-3-3v-40.153c0-1.649,1.35-3,3-3h40.153
				c1.65,0,3,1.351,3,3V420.184z"/>
			<path fill="none" stroke="#FFFFFF" stroke-width="0.5" stroke-miterlimit="10" d="M427.829,420.184c0,1.65-1.35,3-3,3h-40.153
				c-1.65,0-3-1.35-3-3v-40.153c0-1.649,1.35-3,3-3h40.153c1.65,0,3,1.351,3,3V420.184z"/>
		</g>
		<g id="belfast_east_x5F_6">
			<path fill="#F1F1F1" d="M473.983,420.184c0,1.65-1.35,3-3,3h-40.154c-1.65,0-3-1.35-3-3v-40.153c0-1.649,1.35-3,3-3h40.154
				c1.65,0,3,1.351,3,3V420.184z"/>
			<path fill="none" stroke="#FFFFFF" stroke-width="0.5" stroke-miterlimit="10" d="M473.983,420.184c0,1.65-1.35,3-3,3h-40.154
				c-1.65,0-3-1.35-3-3v-40.153c0-1.649,1.35-3,3-3h40.154c1.65,0,3,1.351,3,3V420.184z"/>
		</g>
		<g id="belfast_east_x5F_1_1_">
			<path fill="#F1F1F1" d="M381.676,374.031c0,1.65-1.35,3-3,3h-40.153c-1.65,0-3-1.35-3-3v-40.154c0-1.65,1.35-3,3-3h40.153
				c1.65,0,3,1.35,3,3V374.031z"/>
			<path fill="none" stroke="#FFFFFF" stroke-width="0.5" stroke-miterlimit="10" d="M381.676,374.031c0,1.65-1.35,3-3,3h-40.153
				c-1.65,0-3-1.35-3-3v-40.154c0-1.65,1.35-3,3-3h40.153c1.65,0,3,1.35,3,3V374.031z"/>
		</g>
		<g id="belfast_east_x5F_4">
			<path fill="#F1F1F1" d="M427.829,374.031c0,1.65-1.35,3-3,3h-40.153c-1.65,0-3-1.35-3-3v-40.154c0-1.65,1.35-3,3-3h40.153
				c1.65,0,3,1.35,3,3V374.031z"/>
			<path fill="none" stroke="#FFFFFF" stroke-width="0.5" stroke-miterlimit="10" d="M427.829,374.031c0,1.65-1.35,3-3,3h-40.153
				c-1.65,0-3-1.35-3-3v-40.154c0-1.65,1.35-3,3-3h40.153c1.65,0,3,1.35,3,3V374.031z"/>
		</g>
		<g id="belfast_east_x5F_5">
			<path fill="#F1F1F1" d="M473.983,374.031c0,1.65-1.35,3-3,3h-40.154c-1.65,0-3-1.35-3-3v-40.154c0-1.65,1.35-3,3-3h40.154
				c1.65,0,3,1.35,3,3V374.031z"/>
			<path fill="none" stroke="#FFFFFF" stroke-width="0.5" stroke-miterlimit="10" d="M473.983,374.031c0,1.65-1.35,3-3,3h-40.154
				c-1.65,0-3-1.35-3-3v-40.154c0-1.65,1.35-3,3-3h40.154c1.65,0,3,1.35,3,3V374.031z"/>
		</g>
	</g>
	<text transform="matrix(1 0 0 1 353.7578 359.4077)" fill="#333333" font-family="'DS4DisplaySansMedium'" font-size="14">Belfast East</text>
</g>
<g id="belfast_south">
	<g>
		<g id="belfast_south_x5F_2">
			<path fill="#F1F1F1" d="M335.522,512.492c0,1.65-1.35,3-3,3h-40.154c-1.65,0-3-1.35-3-3v-40.154c0-1.65,1.35-3,3-3h40.154
				c1.65,0,3,1.35,3,3V512.492z"/>
			<path fill="none" stroke="#FFFFFF" stroke-width="0.5" stroke-miterlimit="10" d="M335.522,512.492c0,1.65-1.35,3-3,3h-40.154
				c-1.65,0-3-1.35-3-3v-40.154c0-1.65,1.35-3,3-3h40.154c1.65,0,3,1.35,3,3V512.492z"/>
		</g>
		<g id="belfast_south_x5F_3">
			<path fill="#F1F1F1" d="M381.676,512.492c0,1.65-1.35,3-3,3h-40.153c-1.65,0-3-1.35-3-3v-40.154c0-1.65,1.35-3,3-3h40.153
				c1.65,0,3,1.35,3,3V512.492z"/>
			<path fill="none" stroke="#FFFFFF" stroke-width="0.5" stroke-miterlimit="10" d="M381.676,512.492c0,1.65-1.35,3-3,3h-40.153
				c-1.65,0-3-1.35-3-3v-40.154c0-1.65,1.35-3,3-3h40.153c1.65,0,3,1.35,3,3V512.492z"/>
		</g>
		<g id="belfast_south_x5F_6">
			<path fill="#F1F1F1" d="M427.829,512.492c0,1.65-1.35,3-3,3h-40.153c-1.65,0-3-1.35-3-3v-40.154c0-1.65,1.35-3,3-3h40.153
				c1.65,0,3,1.35,3,3V512.492z"/>
			<path fill="none" stroke="#FFFFFF" stroke-width="0.5" stroke-miterlimit="10" d="M427.829,512.492c0,1.65-1.35,3-3,3h-40.153
				c-1.65,0-3-1.35-3-3v-40.154c0-1.65,1.35-3,3-3h40.153c1.65,0,3,1.35,3,3V512.492z"/>
		</g>
		<g id="belfast_south_x5F_1_1_">
			<path fill="#F1F1F1" d="M335.522,466.338c0,1.65-1.35,3-3,3h-40.154c-1.65,0-3-1.35-3-3v-40.154c0-1.65,1.35-3,3-3h40.154
				c1.65,0,3,1.35,3,3V466.338z"/>
			<path fill="none" stroke="#FFFFFF" stroke-width="0.5" stroke-miterlimit="10" d="M335.522,466.338c0,1.65-1.35,3-3,3h-40.154
				c-1.65,0-3-1.35-3-3v-40.154c0-1.65,1.35-3,3-3h40.154c1.65,0,3,1.35,3,3V466.338z"/>
		</g>
		<g id="belfast_south_x5F_4">
			<path fill="#F1F1F1" d="M381.676,466.338c0,1.65-1.35,3-3,3h-40.153c-1.65,0-3-1.35-3-3v-40.154c0-1.65,1.35-3,3-3h40.153
				c1.65,0,3,1.35,3,3V466.338z"/>
			<path fill="none" stroke="#FFFFFF" stroke-width="0.5" stroke-miterlimit="10" d="M381.676,466.338c0,1.65-1.35,3-3,3h-40.153
				c-1.65,0-3-1.35-3-3v-40.154c0-1.65,1.35-3,3-3h40.153c1.65,0,3,1.35,3,3V466.338z"/>
		</g>
		<g id="belfast_south_x5F_5">
			<path fill="#F1F1F1" d="M427.829,466.338c0,1.65-1.35,3-3,3h-40.153c-1.65,0-3-1.35-3-3v-40.154c0-1.65,1.35-3,3-3h40.153
				c1.65,0,3,1.35,3,3V466.338z"/>
			<path fill="none" stroke="#FFFFFF" stroke-width="0.5" stroke-miterlimit="10" d="M427.829,466.338c0,1.65-1.35,3-3,3h-40.153
				c-1.65,0-3-1.35-3-3v-40.154c0-1.65,1.35-3,3-3h40.153c1.65,0,3,1.35,3,3V466.338z"/>
		</g>
	</g>
	<text transform="matrix(1 0 0 1 309.2617 452.2993)" fill="#333333" font-family="'DS4DisplaySansMedium'" font-size="14">Belfast South</text>
</g>
<g id="belfast_west">
	<g>
		<g id="belfast_west_x5F_1_1_">
			<path fill="#F1F1F1" d="M243.214,374.031c0,1.65-1.35,3-3,3h-40.153c-1.65,0-3-1.35-3-3v-40.154c0-1.65,1.35-3,3-3h40.153
				c1.65,0,3,1.35,3,3V374.031z"/>
			<path fill="none" stroke="#FFFFFF" stroke-width="0.5" stroke-miterlimit="10" d="M243.214,374.031c0,1.65-1.35,3-3,3h-40.153
				c-1.65,0-3-1.35-3-3v-40.154c0-1.65,1.35-3,3-3h40.153c1.65,0,3,1.35,3,3V374.031z"/>
		</g>
		<g id="belfast_west_x5F_4_1_">
			<path fill="#F1F1F1" d="M289.368,420.184c0,1.65-1.35,3-3,3h-40.154c-1.65,0-3-1.35-3-3v-40.153c0-1.649,1.35-3,3-3h40.154
				c1.65,0,3,1.351,3,3V420.184z"/>
			<path fill="none" stroke="#FFFFFF" stroke-width="0.5" stroke-miterlimit="10" d="M289.368,420.184c0,1.65-1.35,3-3,3h-40.154
				c-1.65,0-3-1.35-3-3v-40.153c0-1.649,1.35-3,3-3h40.154c1.65,0,3,1.351,3,3V420.184z"/>
		</g>
		<g id="belfast_west_x5F_5">
			<path fill="#F1F1F1" d="M335.522,420.184c0,1.65-1.35,3-3,3h-40.154c-1.65,0-3-1.35-3-3v-40.153c0-1.649,1.35-3,3-3h40.154
				c1.65,0,3,1.351,3,3V420.184z"/>
			<path fill="none" stroke="#FFFFFF" stroke-width="0.5" stroke-miterlimit="10" d="M335.522,420.184c0,1.65-1.35,3-3,3h-40.154
				c-1.65,0-3-1.35-3-3v-40.153c0-1.649,1.35-3,3-3h40.154c1.65,0,3,1.351,3,3V420.184z"/>
		</g>
		<g id="belfast_west_x5F_2">
			<path fill="#F1F1F1" d="M289.368,327.877c0,1.65-1.35,3-3,3h-40.154c-1.65,0-3-1.35-3-3v-40.155c0-1.65,1.35-3,3-3h40.154
				c1.65,0,3,1.35,3,3V327.877z"/>
			<path fill="none" stroke="#FFFFFF" stroke-width="0.5" stroke-miterlimit="10" d="M289.368,327.877c0,1.65-1.35,3-3,3h-40.154
				c-1.65,0-3-1.35-3-3v-40.155c0-1.65,1.35-3,3-3h40.154c1.65,0,3,1.35,3,3V327.877z"/>
		</g>
		<g id="belfast_west_x5F_3">
			<path fill="#F1F1F1" d="M289.368,374.031c0,1.65-1.35,3-3,3h-40.154c-1.65,0-3-1.35-3-3v-40.154c0-1.65,1.35-3,3-3h40.154
				c1.65,0,3,1.35,3,3V374.031z"/>
			<path fill="none" stroke="#FFFFFF" stroke-width="0.5" stroke-miterlimit="10" d="M289.368,374.031c0,1.65-1.35,3-3,3h-40.154
				c-1.65,0-3-1.35-3-3v-40.154c0-1.65,1.35-3,3-3h40.154c1.65,0,3,1.35,3,3V374.031z"/>
		</g>
		<g id="belfast_west_x5F_6">
			<path fill="#F1F1F1" d="M335.522,374.031c0,1.65-1.35,3-3,3h-40.154c-1.65,0-3-1.35-3-3v-40.154c0-1.65,1.35-3,3-3h40.154
				c1.65,0,3,1.35,3,3V374.031z"/>
			<path fill="none" stroke="#FFFFFF" stroke-width="0.5" stroke-miterlimit="10" d="M335.522,374.031c0,1.65-1.35,3-3,3h-40.154
				c-1.65,0-3-1.35-3-3v-40.154c0-1.65,1.35-3,3-3h40.154c1.65,0,3,1.35,3,3V374.031z"/>
		</g>
	</g>
	<text transform="matrix(1 0 0 1 214.0688 359.4077)" fill="#333333" font-family="'DS4DisplaySansMedium'" font-size="14">Belfast West</text>
</g>
<g id="north_down">
	<g>
		<g id="north_down_x5F_6_1_">
			<path fill="#F1F1F1" d="M520.137,420.184c0,1.65-1.35,3-3,3h-40.153c-1.65,0-3-1.35-3-3v-40.153c0-1.649,1.35-3,3-3h40.153
				c1.65,0,3,1.351,3,3V420.184z"/>
			<path fill="none" stroke="#FFFFFF" stroke-width="0.5" stroke-miterlimit="10" d="M520.137,420.184c0,1.65-1.35,3-3,3h-40.153
				c-1.65,0-3-1.35-3-3v-40.153c0-1.649,1.35-3,3-3h40.153c1.65,0,3,1.351,3,3V420.184z"/>
		</g>
		<g id="north_down_x5F_5_1_">
			<path fill="#F1F1F1" d="M566.29,420.184c0,1.65-1.35,3-3,3h-40.153c-1.65,0-3-1.35-3-3v-40.153c0-1.649,1.35-3,3-3h40.153
				c1.65,0,3,1.351,3,3V420.184z"/>
			<path fill="none" stroke="#FFFFFF" stroke-width="0.5" stroke-miterlimit="10" d="M566.29,420.184c0,1.65-1.35,3-3,3h-40.153
				c-1.65,0-3-1.35-3-3v-40.153c0-1.649,1.35-3,3-3h40.153c1.65,0,3,1.351,3,3V420.184z"/>
		</g>
		<g id="north_down_x5F_4_1_">
			<path fill="#F1F1F1" d="M612.444,420.184c0,1.65-1.35,3-3,3H569.29c-1.65,0-3-1.35-3-3v-40.153c0-1.649,1.35-3,3-3h40.154
				c1.65,0,3,1.351,3,3V420.184z"/>
			<path fill="none" stroke="#FFFFFF" stroke-width="0.5" stroke-miterlimit="10" d="M612.444,420.184c0,1.65-1.35,3-3,3H569.29
				c-1.65,0-3-1.35-3-3v-40.153c0-1.649,1.35-3,3-3h40.154c1.65,0,3,1.351,3,3V420.184z"/>
		</g>
		<g id="north_down_x5F_1">
			<path fill="#F1F1F1" d="M520.137,374.031c0,1.65-1.35,3-3,3h-40.153c-1.65,0-3-1.35-3-3v-40.154c0-1.65,1.35-3,3-3h40.153
				c1.65,0,3,1.35,3,3V374.031z"/>
			<path fill="none" stroke="#FFFFFF" stroke-width="0.5" stroke-miterlimit="10" d="M520.137,374.031c0,1.65-1.35,3-3,3h-40.153
				c-1.65,0-3-1.35-3-3v-40.154c0-1.65,1.35-3,3-3h40.153c1.65,0,3,1.35,3,3V374.031z"/>
		</g>
		<g id="north_down_x5F_2_1_">
			<path fill="#F1F1F1" d="M566.29,374.031c0,1.65-1.35,3-3,3h-40.153c-1.65,0-3-1.35-3-3v-40.154c0-1.65,1.35-3,3-3h40.153
				c1.65,0,3,1.35,3,3V374.031z"/>
			<path fill="none" stroke="#FFFFFF" stroke-width="0.5" stroke-miterlimit="10" d="M566.29,374.031c0,1.65-1.35,3-3,3h-40.153
				c-1.65,0-3-1.35-3-3v-40.154c0-1.65,1.35-3,3-3h40.153c1.65,0,3,1.35,3,3V374.031z"/>
		</g>
		<g id="north_down_x5F_3">
			<path fill="#F1F1F1" d="M612.444,374.031c0,1.65-1.35,3-3,3H569.29c-1.65,0-3-1.35-3-3v-40.154c0-1.65,1.35-3,3-3h40.154
				c1.65,0,3,1.35,3,3V374.031z"/>
			<path fill="none" stroke="#FFFFFF" stroke-width="0.5" stroke-miterlimit="10" d="M612.444,374.031c0,1.65-1.35,3-3,3H569.29
				c-1.65,0-3-1.35-3-3v-40.154c0-1.65,1.35-3,3-3h40.154c1.65,0,3,1.35,3,3V374.031z"/>
		</g>
	</g>
	<text transform="matrix(1 0 0 1 495.9785 359.4077)" fill="#333333" font-family="'DS4DisplaySansMedium'" font-size="14">North Down</text>
</g>
<g id="constit_borders">
	<g id="all_x5F_constit_x5F_border">
		
			<polygon fill="none" stroke="#DADADA" stroke-width="1.5" stroke-linecap="round" stroke-linejoin="round" stroke-miterlimit="10" points="
			381.676,7.799 335.522,7.799 335.522,53.954 335.522,100.107 335.522,146.261 381.676,146.261 427.829,146.261 427.829,100.107 
			427.829,53.954 427.829,7.799 		"/>
		
			<polygon fill="none" stroke="#DADADA" stroke-width="1.5" stroke-linecap="round" stroke-linejoin="round" stroke-miterlimit="10" points="
			473.983,53.954 427.829,53.954 427.829,100.107 427.829,146.261 427.829,192.415 473.983,192.415 520.137,192.415 
			520.137,146.261 520.137,100.107 520.137,53.954 		"/>
		
			<polygon fill="none" stroke="#DADADA" stroke-width="1.5" stroke-linecap="round" stroke-linejoin="round" stroke-miterlimit="10" points="
			473.983,192.415 427.829,192.415 427.829,146.261 381.676,146.261 381.676,192.415 381.676,238.57 427.829,238.57 
			427.829,284.722 473.983,284.722 520.137,284.722 520.137,238.57 520.137,238.569 520.137,192.415 		"/>
		
			<polygon fill="none" stroke="#DADADA" stroke-width="1.5" stroke-linecap="round" stroke-linejoin="round" stroke-miterlimit="10" points="
			289.368,53.954 243.214,53.954 243.214,100.107 197.061,100.107 150.905,100.107 150.905,146.261 197.061,146.261 
			243.214,146.261 289.368,146.261 335.522,146.261 335.522,100.107 335.522,53.954 		"/>
		
			<polygon fill="none" stroke="#DADADA" stroke-width="1.5" stroke-linecap="round" stroke-linejoin="round" stroke-miterlimit="10" points="
			243.214,146.261 197.061,146.261 150.905,146.261 150.905,192.415 197.061,192.415 197.061,238.569 243.214,238.569 
			243.214,284.722 289.368,284.722 289.368,238.569 289.368,192.415 289.368,146.261 		"/>
		
			<polygon fill="none" stroke="#DADADA" stroke-width="1.5" stroke-linecap="round" stroke-linejoin="round" stroke-miterlimit="10" points="
			104.755,192.415 104.755,238.571 150.905,238.571 150.905,238.569 150.909,238.569 150.905,284.722 197.061,284.722 
			197.062,284.722 243.214,284.722 243.216,238.569 197.061,238.569 197.061,192.415 150.909,192.415 150.909,146.259 
			150.904,146.259 150.905,100.107 104.75,100.107 104.75,146.261 104.752,146.261 104.752,192.415 		"/>
		
			<polygon fill="none" stroke="#DADADA" stroke-width="1.5" stroke-linecap="round" stroke-linejoin="round" stroke-miterlimit="10" points="
			197.061,284.722 150.905,284.722 150.905,330.877 104.752,330.877 58.598,330.877 58.598,377.031 58.598,423.184 104.752,423.184 
			104.752,377.031 150.905,377.031 197.061,377.031 197.061,330.877 243.214,330.877 243.214,284.722 		"/>
		
			<polygon fill="none" stroke="#DADADA" stroke-width="1.5" stroke-linecap="round" stroke-linejoin="round" stroke-miterlimit="10" points="
			150.905,377.031 104.752,377.031 104.752,423.184 58.598,423.184 58.598,469.338 58.598,515.492 104.752,515.492 150.905,515.492 
			150.905,469.338 150.905,423.184 197.061,423.184 197.061,377.031 		"/>
		
			<polygon fill="none" stroke="#DADADA" stroke-width="1.5" stroke-linecap="round" stroke-linejoin="round" stroke-miterlimit="10" points="
			427.829,515.492 381.676,515.492 335.522,515.492 289.368,515.492 289.368,561.646 289.368,607.799 335.522,607.799 
			381.676,607.799 381.676,561.646 427.829,561.646 473.983,561.646 473.983,515.492 		"/>
		
			<polygon fill="none" stroke="#DADADA" stroke-width="1.5" stroke-linecap="round" stroke-linejoin="round" stroke-miterlimit="10" points="
			243.214,423.184 243.214,377.031 197.061,377.031 197.061,423.184 150.905,423.184 150.905,469.338 197.061,469.338 
			197.061,515.492 243.214,515.492 289.368,515.492 289.368,469.338 289.368,423.184 		"/>
		
			<polygon fill="none" stroke="#DADADA" stroke-width="1.5" stroke-linecap="round" stroke-linejoin="round" stroke-miterlimit="10" points="
			520.137,423.184 473.983,423.184 427.829,423.184 427.829,469.338 427.829,515.492 473.983,515.492 473.983,561.646 
			520.137,561.646 520.137,515.492 520.137,469.338 566.29,469.338 566.29,423.184 		"/>
		
			<polygon fill="none" stroke="#DADADA" stroke-width="1.5" stroke-linecap="round" stroke-linejoin="round" stroke-miterlimit="10" points="
			381.676,238.569 335.522,238.569 289.368,238.569 289.368,284.722 289.368,330.877 335.522,330.877 381.676,330.877 
			427.829,330.877 427.829,284.722 427.829,238.569 		"/>
		
			<polygon fill="none" stroke="#DADADA" stroke-width="1.5" stroke-linecap="round" stroke-linejoin="round" stroke-miterlimit="10" points="
			427.829,330.877 381.676,330.877 335.522,330.877 335.522,377.031 335.522,423.184 381.676,423.184 427.829,423.184 
			473.983,423.184 473.983,377.031 473.983,330.877 		"/>
		
			<polygon fill="none" stroke="#DADADA" stroke-width="1.5" stroke-linecap="round" stroke-linejoin="round" stroke-miterlimit="10" points="
			381.676,423.184 335.522,423.184 289.368,423.184 289.368,469.338 289.368,515.492 335.522,515.492 381.676,515.492 
			427.829,515.492 427.829,469.338 427.829,423.184 		"/>
		
			<polygon fill="none" stroke="#DADADA" stroke-width="1.5" stroke-linecap="round" stroke-linejoin="round" stroke-miterlimit="10" points="
			289.368,330.877 289.368,284.722 243.214,284.722 243.214,330.877 197.061,330.877 197.061,377.031 243.214,377.031 
			243.214,423.184 289.368,423.184 335.522,423.184 335.522,377.031 335.522,330.877 		"/>
		
			<polygon fill="none" stroke="#DADADA" stroke-width="1.5" stroke-linecap="round" stroke-linejoin="round" stroke-miterlimit="10" points="
			566.29,330.877 520.137,330.877 473.983,330.877 473.983,377.031 473.983,423.184 520.137,423.184 566.29,423.184 
			612.444,423.184 612.444,377.031 612.444,330.877 		"/>
	</g>
	
		<polygon id="belfast_x5F_border" fill="none" stroke="#DADADA" stroke-width="5" stroke-linecap="round" stroke-linejoin="round" stroke-miterlimit="10" points="
		427.829,330.877 427.829,284.722 427.829,238.569 381.676,238.569 335.522,238.569 289.368,238.569 289.368,284.722 
		243.214,284.722 243.214,330.877 197.061,330.877 197.061,377.031 243.214,377.031 243.214,423.184 289.368,423.184 
		289.368,469.338 289.368,515.492 335.522,515.492 381.676,515.492 427.829,515.492 427.829,469.338 427.829,423.184 
		473.983,423.184 473.983,377.031 473.983,330.877 	"/>
	
		<polygon fill="none" stroke="#DADADA" stroke-width="1.5" stroke-linecap="round" stroke-linejoin="round" stroke-miterlimit="10" points="
		104.752,515.492 58.598,515.492 58.598,469.338 58.598,423.184 58.598,377.031 12.444,377.031 12.444,423.184 12.444,469.338 
		12.444,515.492 12.444,561.646 58.598,561.646 104.752,561.646 150.905,561.646 150.905,515.492 	"/>
	
		<polygon fill="none" stroke="#DADADA" stroke-width="1.5" stroke-linecap="round" stroke-linejoin="round" stroke-miterlimit="10" points="
		243.214,515.492 197.062,515.492 197.061,469.338 150.909,469.338 150.909,515.49 150.909,561.646 197.061,561.644 
		197.061,561.646 197.061,607.799 243.214,607.799 289.368,607.799 289.368,561.646 289.368,515.492 	"/>
</g>
</svg>
