<?xml version="1.0" encoding="utf-8"?>
<!-- Generator: Adobe Illustrator 16.0.1, SVG Export Plug-In . SVG Version: 6.00 Build 0)  -->
<!DOCTYPE svg PUBLIC "-//W3C//DTD SVG 1.1//EN" "http://www.w3.org/Graphics/SVG/1.1/DTD/svg11.dtd">
<svg version="1.1" xmlns="http://www.w3.org/2000/svg" xmlns:xlink="http://www.w3.org/1999/xlink" x="0px" y="0px" width="300px"
	 height="365.747px" viewBox="0 0 300 365.747" enable-background="new 0 0 300 365.747" xml:space="preserve">
<g id="north_antrim">
	<g>
		<g id="north_antrim_x5F_1_1_">
			<path fill="#F1F1F1" d="M224.505,34.995c0,1.65-1.35,3-3,3h-18.83c-1.65,0-3-1.35-3-3V16.164c0-1.65,1.35-3,3-3h18.83
				c1.65,0,3,1.35,3,3V34.995z"/>
			<path fill="none" stroke="#FFFFFF" stroke-width="0.5" stroke-miterlimit="10" d="M224.505,34.995c0,1.65-1.35,3-3,3h-18.83
				c-1.65,0-3-1.35-3-3V16.164c0-1.65,1.35-3,3-3h18.83c1.65,0,3,1.35,3,3V34.995z"/>
		</g>
		<g id="north_antrim_x5F_2_1_">
			<path fill="#F1F1F1" d="M224.505,59.827c0,1.65-1.35,3-3,3h-18.83c-1.65,0-3-1.35-3-3V40.995c0-1.65,1.35-3,3-3h18.83
				c1.65,0,3,1.35,3,3V59.827z"/>
			<path fill="none" stroke="#FFFFFF" stroke-width="0.5" stroke-miterlimit="10" d="M224.505,59.827c0,1.65-1.35,3-3,3h-18.83
				c-1.65,0-3-1.35-3-3V40.995c0-1.65,1.35-3,3-3h18.83c1.65,0,3,1.35,3,3V59.827z"/>
		</g>
		<g id="north_antrim_x5F_4">
			<path fill="#F1F1F1" d="M199.675,34.995c0,1.65-1.35,3-3,3h-18.832c-1.65,0-3-1.35-3-3V16.164c0-1.65,1.35-3,3-3h18.832
				c1.65,0,3,1.35,3,3V34.995z"/>
			<path fill="none" stroke="#FFFFFF" stroke-width="0.5" stroke-miterlimit="10" d="M199.675,34.995c0,1.65-1.35,3-3,3h-18.832
				c-1.65,0-3-1.35-3-3V16.164c0-1.65,1.35-3,3-3h18.832c1.65,0,3,1.35,3,3V34.995z"/>
		</g>
		<g id="north_antrim_x5F_3_1_">
			<path fill="#F1F1F1" d="M224.505,84.657c0,1.65-1.35,3-3,3h-18.83c-1.65,0-3-1.35-3-3V65.827c0-1.65,1.35-3,3-3h18.83
				c1.65,0,3,1.35,3,3V84.657z"/>
			<path fill="none" stroke="#FFFFFF" stroke-width="0.5" stroke-miterlimit="10" d="M224.505,84.657c0,1.65-1.35,3-3,3h-18.83
				c-1.65,0-3-1.35-3-3V65.827c0-1.65,1.35-3,3-3h18.83c1.65,0,3,1.35,3,3V84.657z"/>
		</g>
		<g id="north_antrim_x5F_5">
			<path fill="#F1F1F1" d="M199.675,59.826c0,1.65-1.35,3-3,3h-18.832c-1.65,0-3-1.35-3-3V40.995c0-1.65,1.35-3,3-3h18.832
				c1.65,0,3,1.35,3,3V59.826z"/>
			<path fill="none" stroke="#FFFFFF" stroke-width="0.5" stroke-miterlimit="10" d="M199.675,59.826c0,1.65-1.35,3-3,3h-18.832
				c-1.65,0-3-1.35-3-3V40.995c0-1.65,1.35-3,3-3h18.832c1.65,0,3,1.35,3,3V59.826z"/>
		</g>
	</g>
	<g>
		<g id="north_antrim_x5F_1_2_">
			<path fill="#DB58A4" d="M-731.146,108.107c0,1.65-1.35,3-3,3h-40.153c-1.65,0-3-1.35-3-3V67.953c0-1.65,1.35-3,3-3h40.153
				c1.65,0,3,1.35,3,3V108.107z"/>
			<path fill="none" stroke="#FFFFFF" stroke-width="0.5" stroke-miterlimit="10" d="M-731.146,108.107c0,1.65-1.35,3-3,3h-40.153
				c-1.65,0-3-1.35-3-3V67.953c0-1.65,1.35-3,3-3h40.153c1.65,0,3,1.35,3,3V108.107z"/>
		</g>
		<g id="north_antrim_x5F_2_2_">
			<path fill="#DB58A4" d="M-731.146,154.262c0,1.65-1.35,3-3,3h-40.153c-1.65,0-3-1.35-3-3v-40.154c0-1.65,1.35-3,3-3h40.153
				c1.65,0,3,1.35,3,3V154.262z"/>
			<path fill="none" stroke="#FFFFFF" stroke-width="0.5" stroke-miterlimit="10" d="M-731.146,154.262c0,1.65-1.35,3-3,3h-40.153
				c-1.65,0-3-1.35-3-3v-40.154c0-1.65,1.35-3,3-3h40.153c1.65,0,3,1.35,3,3V154.262z"/>
		</g>
		<g id="north_antrim_x5F_4_1_">
			<path fill="#DB58A4" d="M-777.299,108.107c0,1.65-1.35,3-3,3h-40.153c-1.65,0-3-1.35-3-3V67.954c0-1.65,1.35-3,3-3h40.153
				c1.65,0,3,1.35,3,3V108.107z"/>
			<path fill="none" stroke="#FFFFFF" stroke-width="0.5" stroke-miterlimit="10" d="M-777.299,108.107c0,1.65-1.35,3-3,3h-40.153
				c-1.65,0-3-1.35-3-3V67.954c0-1.65,1.35-3,3-3h40.153c1.65,0,3,1.35,3,3V108.107z"/>
		</g>
		<g id="north_antrim_x5F_3_2_">
			<path fill="#DB58A4" d="M-731.146,200.416c0,1.65-1.35,3-3,3h-40.153c-1.65,0-3-1.35-3-3v-40.154c0-1.65,1.35-3,3-3h40.153
				c1.65,0,3,1.35,3,3V200.416z"/>
			<path fill="none" stroke="#FFFFFF" stroke-width="0.5" stroke-miterlimit="10" d="M-731.146,200.416c0,1.65-1.35,3-3,3h-40.153
				c-1.65,0-3-1.35-3-3v-40.154c0-1.65,1.35-3,3-3h40.153c1.65,0,3,1.35,3,3V200.416z"/>
		</g>
		<g id="north_antrim_x5F_5_1_">
			<path fill="#DB58A4" d="M-777.299,154.261c0,1.65-1.35,3-3,3h-40.153c-1.65,0-3-1.35-3-3v-40.153c0-1.65,1.35-3,3-3h40.153
				c1.65,0,3,1.35,3,3V154.261z"/>
			<path fill="none" stroke="#FFFFFF" stroke-width="0.5" stroke-miterlimit="10" d="M-777.299,154.261c0,1.65-1.35,3-3,3h-40.153
				c-1.65,0-3-1.35-3-3v-40.153c0-1.65,1.35-3,3-3h40.153c1.65,0,3,1.35,3,3V154.261z"/>
		</g>
	</g>
</g>
<g id="east_antrim">
	<g>
		<g>
			<g id="east_antrim_x5F_1_6_">
				<path fill="#F1F1F1" d="M249.336,59.827c0,1.65-1.35,3-3,3h-18.831c-1.65,0-3-1.35-3-3V40.995c0-1.65,1.35-3,3-3h18.831
					c1.65,0,3,1.35,3,3V59.827z"/>
				<path fill="none" stroke="#FFFFFF" stroke-width="0.3" stroke-miterlimit="10" d="M249.336,59.827c0,1.65-1.35,3-3,3h-18.831
					c-1.65,0-3-1.35-3-3V40.995c0-1.65,1.35-3,3-3h18.831c1.65,0,3,1.35,3,3V59.827z"/>
			</g>
			<g id="east_antrim_x5F_4_6_">
				<path fill="#F1F1F1" d="M249.336,84.657c0,1.65-1.35,3-3,3h-18.831c-1.65,0-3-1.35-3-3V65.827c0-1.65,1.35-3,3-3h18.831
					c1.65,0,3,1.35,3,3V84.657z"/>
				<path fill="none" stroke="#FFFFFF" stroke-width="0.3" stroke-miterlimit="10" d="M249.336,84.657c0,1.65-1.35,3-3,3h-18.831
					c-1.65,0-3-1.35-3-3V65.827c0-1.65,1.35-3,3-3h18.831c1.65,0,3,1.35,3,3V84.657z"/>
			</g>
			<g id="east_antrim_x5F_5_6_">
				<path fill="#F1F1F1" d="M249.336,109.489c0,1.65-1.35,3-3,3h-18.831c-1.65,0-3-1.35-3-3V90.657c0-1.65,1.35-3,3-3h18.831
					c1.65,0,3,1.35,3,3V109.489z"/>
				<path fill="none" stroke="#FFFFFF" stroke-width="0.3" stroke-miterlimit="10" d="M249.336,109.489c0,1.65-1.35,3-3,3h-18.831
					c-1.65,0-3-1.35-3-3V90.657c0-1.65,1.35-3,3-3h18.831c1.65,0,3,1.35,3,3V109.489z"/>
			</g>
			<g id="east_antrim_x5F_2_6_">
				<path fill="#F1F1F1" d="M274.167,84.658c0,1.65-1.35,3-3,3h-18.831c-1.65,0-3-1.35-3-3V65.827c0-1.65,1.35-3,3-3h18.831
					c1.65,0,3,1.35,3,3V84.658z"/>
				<path fill="none" stroke="#FFFFFF" stroke-width="0.3" stroke-miterlimit="10" d="M274.167,84.658c0,1.65-1.35,3-3,3h-18.831
					c-1.65,0-3-1.35-3-3V65.827c0-1.65,1.35-3,3-3h18.831c1.65,0,3,1.35,3,3V84.658z"/>
			</g>
			<g id="east_antrim_x5F_3_6_">
				<path fill="#F1F1F1" d="M274.167,109.489c0,1.65-1.35,3-3,3h-18.831c-1.65,0-3-1.35-3-3V90.658c0-1.65,1.35-3,3-3h18.831
					c1.65,0,3,1.35,3,3V109.489z"/>
				<path fill="none" stroke="#FFFFFF" stroke-width="0.3" stroke-miterlimit="10" d="M274.167,109.489c0,1.65-1.35,3-3,3h-18.831
					c-1.65,0-3-1.35-3-3V90.658c0-1.65,1.35-3,3-3h18.831c1.65,0,3,1.35,3,3V109.489z"/>
			</g>
		</g>
	</g>
	<g>
		<g>
			<g id="east_antrim_x5F_1_1_">
				<path fill="#9DC1CE" d="M-684.991,154.262c0,1.65-1.35,3-3,3h-40.154c-1.65,0-3-1.35-3-3v-40.154c0-1.65,1.35-3,3-3h40.154
					c1.65,0,3,1.35,3,3V154.262z"/>
				<path fill="none" stroke="#FFFFFF" stroke-width="0.3" stroke-miterlimit="10" d="M-684.991,154.262c0,1.65-1.35,3-3,3h-40.154
					c-1.65,0-3-1.35-3-3v-40.154c0-1.65,1.35-3,3-3h40.154c1.65,0,3,1.35,3,3V154.262z"/>
			</g>
			<g id="east_antrim_x5F_4_1_">
				<path fill="#9DC1CE" d="M-684.991,200.416c0,1.65-1.35,3-3,3h-40.154c-1.65,0-3-1.35-3-3v-40.153c0-1.65,1.35-3,3-3h40.154
					c1.65,0,3,1.35,3,3V200.416z"/>
				<path fill="none" stroke="#FFFFFF" stroke-width="0.3" stroke-miterlimit="10" d="M-684.991,200.416c0,1.65-1.35,3-3,3h-40.154
					c-1.65,0-3-1.35-3-3v-40.153c0-1.65,1.35-3,3-3h40.154c1.65,0,3,1.35,3,3V200.416z"/>
			</g>
			<g id="east_antrim_x5F_5_1_">
				<path fill="#9DC1CE" d="M-684.991,246.569c0,1.65-1.35,3-3,3h-40.154c-1.65,0-3-1.35-3-3v-40.154c0-1.65,1.35-3,3-3h40.154
					c1.65,0,3,1.35,3,3V246.569z"/>
				<path fill="none" stroke="#FFFFFF" stroke-width="0.3" stroke-miterlimit="10" d="M-684.991,246.569c0,1.65-1.35,3-3,3h-40.154
					c-1.65,0-3-1.35-3-3v-40.154c0-1.65,1.35-3,3-3h40.154c1.65,0,3,1.35,3,3V246.569z"/>
			</g>
			<g id="east_antrim_x5F_2_1_">
				<path fill="#9DC1CE" d="M-638.838,200.416c0,1.65-1.35,3-3,3h-40.153c-1.65,0-3-1.35-3-3v-40.154c0-1.65,1.35-3,3-3h40.153
					c1.65,0,3,1.35,3,3V200.416z"/>
				<path fill="none" stroke="#FFFFFF" stroke-width="0.3" stroke-miterlimit="10" d="M-638.838,200.416c0,1.65-1.35,3-3,3h-40.153
					c-1.65,0-3-1.35-3-3v-40.154c0-1.65,1.35-3,3-3h40.153c1.65,0,3,1.35,3,3V200.416z"/>
			</g>
			<g id="east_antrim_x5F_3_1_">
				<path fill="#9DC1CE" d="M-638.838,246.569c0,1.65-1.35,3-3,3h-40.153c-1.65,0-3-1.35-3-3v-40.153c0-1.65,1.35-3,3-3h40.153
					c1.65,0,3,1.35,3,3V246.569z"/>
				<path fill="none" stroke="#FFFFFF" stroke-width="0.3" stroke-miterlimit="10" d="M-638.838,246.569c0,1.65-1.35,3-3,3h-40.153
					c-1.65,0-3-1.35-3-3v-40.153c0-1.65,1.35-3,3-3h40.153c1.65,0,3,1.35,3,3V246.569z"/>
			</g>
		</g>
	</g>
</g>
<g id="south_antrim">
	<g>
		<g id="south_antrim_x5F_5">
			<path fill="#F1F1F1" d="M249.336,159.151c0,1.65-1.35,3-3,3h-18.831c-1.65,0-3-1.35-3-3V140.32c0-1.65,1.35-3,3-3h18.831
				c1.65,0,3,1.35,3,3V159.151z"/>
			<path fill="none" stroke="#FFFFFF" stroke-width="0.5" stroke-miterlimit="10" d="M249.336,159.151c0,1.65-1.35,3-3,3h-18.831
				c-1.65,0-3-1.35-3-3V140.32c0-1.65,1.35-3,3-3h18.831c1.65,0,3,1.35,3,3V159.151z"/>
		</g>
		<g id="south_antrim_x5F_4">
			<path fill="#F1F1F1" d="M274.167,134.321c0,1.65-1.35,3-3,3h-18.831c-1.65,0-3-1.35-3-3v-18.833c0-1.65,1.35-3,3-3h18.831
				c1.65,0,3,1.35,3,3V134.321z"/>
			<path fill="none" stroke="#FFFFFF" stroke-width="0.5" stroke-miterlimit="10" d="M274.167,134.321c0,1.65-1.35,3-3,3h-18.831
				c-1.65,0-3-1.35-3-3v-18.833c0-1.65,1.35-3,3-3h18.831c1.65,0,3,1.35,3,3V134.321z"/>
		</g>
		<g id="south_antrim_x5F_3_2_">
			<path fill="#F1F1F1" d="M249.336,134.321c0,1.65-1.35,3-3,3h-18.831c-1.65,0-3-1.35-3-3v-18.833c0-1.65,1.35-3,3-3h18.831
				c1.65,0,3,1.35,3,3V134.321z"/>
			<path fill="none" stroke="#FFFFFF" stroke-width="0.5" stroke-miterlimit="10" d="M249.336,134.321c0,1.65-1.35,3-3,3h-18.831
				c-1.65,0-3-1.35-3-3v-18.833c0-1.65,1.35-3,3-3h18.831c1.65,0,3,1.35,3,3V134.321z"/>
		</g>
		<g id="south_antrim_x5F_2_1_">
			<path fill="#F1F1F1" d="M224.505,134.321c0,1.65-1.35,3-3,3h-18.83c-1.65,0-3-1.35-3-3v-18.833c0-1.65,1.35-3,3-3h18.83
				c1.65,0,3,1.35,3,3V134.321z"/>
			<path fill="none" stroke="#FFFFFF" stroke-width="0.5" stroke-miterlimit="10" d="M224.505,134.321c0,1.65-1.35,3-3,3h-18.83
				c-1.65,0-3-1.35-3-3v-18.833c0-1.65,1.35-3,3-3h18.83c1.65,0,3,1.35,3,3V134.321z"/>
		</g>
		<g id="south_antrim_x5F_1">
			<path fill="#F1F1F1" d="M224.505,109.489c0,1.65-1.35,3-3,3h-18.83c-1.65,0-3-1.35-3-3V90.657c0-1.65,1.35-3,3-3h18.83
				c1.65,0,3,1.35,3,3V109.489z"/>
			<path fill="none" stroke="#FFFFFF" stroke-width="0.5" stroke-miterlimit="10" d="M224.505,109.489c0,1.65-1.35,3-3,3h-18.83
				c-1.65,0-3-1.35-3-3V90.657c0-1.65,1.35-3,3-3h18.83c1.65,0,3,1.35,3,3V109.489z"/>
		</g>
	</g>
	<g>
		<g id="south_antrim_x5F_5_1_">
			<path fill="#FF9B0B" d="M-684.992,338.877c0,1.65-1.35,3-3,3h-40.153c-1.65,0-3-1.35-3-3v-40.153c0-1.65,1.35-3,3-3h40.153
				c1.65,0,3,1.35,3,3V338.877z"/>
			<path fill="none" stroke="#FFFFFF" stroke-width="0.5" stroke-miterlimit="10" d="M-684.992,338.877c0,1.65-1.35,3-3,3h-40.153
				c-1.65,0-3-1.35-3-3v-40.153c0-1.65,1.35-3,3-3h40.153c1.65,0,3,1.35,3,3V338.877z"/>
		</g>
		<g id="south_antrim_x5F_4_1_">
			<path fill="#FF9B0B" d="M-638.838,292.725c0,1.65-1.35,3-3,3h-40.153c-1.65,0-3-1.35-3-3v-40.155c0-1.65,1.35-3,3-3h40.153
				c1.65,0,3,1.35,3,3V292.725z"/>
			<path fill="none" stroke="#FFFFFF" stroke-width="0.5" stroke-miterlimit="10" d="M-638.838,292.725c0,1.65-1.35,3-3,3h-40.153
				c-1.65,0-3-1.35-3-3v-40.155c0-1.65,1.35-3,3-3h40.153c1.65,0,3,1.35,3,3V292.725z"/>
		</g>
		<g id="south_antrim_x5F_3_1_">
			<path fill="#FF9B0B" d="M-684.991,292.725c0,1.65-1.35,3-3,3h-40.154c-1.65,0-3-1.35-3-3v-40.155c0-1.65,1.35-3,3-3h40.154
				c1.65,0,3,1.35,3,3V292.725z"/>
			<path fill="none" stroke="#FFFFFF" stroke-width="0.5" stroke-miterlimit="10" d="M-684.991,292.725c0,1.65-1.35,3-3,3h-40.154
				c-1.65,0-3-1.35-3-3v-40.155c0-1.65,1.35-3,3-3h40.154c1.65,0,3,1.35,3,3V292.725z"/>
		</g>
		<g id="south_antrim_x5F_2_2_">
			<path fill="#FF9B0B" d="M-731.146,292.725c0,1.65-1.35,3-3,3h-40.153c-1.65,0-3-1.35-3-3v-40.155c0-1.65,1.35-3,3-3h40.153
				c1.65,0,3,1.35,3,3V292.725z"/>
			<path fill="none" stroke="#FFFFFF" stroke-width="0.5" stroke-miterlimit="10" d="M-731.146,292.725c0,1.65-1.35,3-3,3h-40.153
				c-1.65,0-3-1.35-3-3v-40.155c0-1.65,1.35-3,3-3h40.153c1.65,0,3,1.35,3,3V292.725z"/>
		</g>
		<g id="south_antrim_x5F_1_1_">
			<path fill="#FF9B0B" d="M-731.146,246.569c0,1.65-1.35,3-3,3h-40.153c-1.65,0-3-1.35-3-3v-40.154c0-1.65,1.35-3,3-3h40.153
				c1.65,0,3,1.35,3,3V246.569z"/>
			<path fill="none" stroke="#FFFFFF" stroke-width="0.5" stroke-miterlimit="10" d="M-731.146,246.569c0,1.65-1.35,3-3,3h-40.153
				c-1.65,0-3-1.35-3-3v-40.154c0-1.65,1.35-3,3-3h40.153c1.65,0,3,1.35,3,3V246.569z"/>
		</g>
	</g>
</g>
<g id="east_londonderry">
	<g>
		<g id="east_londonderry_x5F_5_5_">
			<path fill="#F1F1F1" d="M174.843,34.995c0,1.65-1.35,3-3,3h-18.831c-1.65,0-3-1.35-3-3V16.164c0-1.65,1.35-3,3-3h18.831
				c1.65,0,3,1.35,3,3V34.995z"/>
			<path fill="none" stroke="#FFFFFF" stroke-width="0.5" stroke-miterlimit="10" d="M174.843,34.995c0,1.65-1.35,3-3,3h-18.831
				c-1.65,0-3-1.35-3-3V16.164c0-1.65,1.35-3,3-3h18.831c1.65,0,3,1.35,3,3V34.995z"/>
		</g>
		<g id="east_londonderry_x5F_4_4_">
			<path fill="#F1F1F1" d="M174.843,59.827c0,1.65-1.35,3-3,3h-18.831c-1.65,0-3-1.35-3-3V40.995c0-1.65,1.35-3,3-3h18.831
				c1.65,0,3,1.35,3,3V59.827z"/>
			<path fill="none" stroke="#FFFFFF" stroke-width="0.5" stroke-miterlimit="10" d="M174.843,59.827c0,1.65-1.35,3-3,3h-18.831
				c-1.65,0-3-1.35-3-3V40.995c0-1.65,1.35-3,3-3h18.831c1.65,0,3,1.35,3,3V59.827z"/>
		</g>
		<g id="east_londonderry_x5F_3_4_">
			<path fill="#F1F1F1" d="M150.012,84.657c0,1.65-1.35,3-3,3H128.18c-1.65,0-3-1.35-3-3V65.826c0-1.65,1.35-3,3-3h18.832
				c1.65,0,3,1.35,3,3V84.657z"/>
			<path fill="none" stroke="#FFFFFF" stroke-width="0.5" stroke-miterlimit="10" d="M150.012,84.657c0,1.65-1.35,3-3,3H128.18
				c-1.65,0-3-1.35-3-3V65.826c0-1.65,1.35-3,3-3h18.832c1.65,0,3,1.35,3,3V84.657z"/>
		</g>
		<g id="east_londonderry_x5F_1_4_">
			<path fill="#F1F1F1" d="M125.18,59.826c0,1.65-1.35,3-3,3h-18.831c-1.65,0-3-1.35-3-3V40.995c0-1.65,1.35-3,3-3h18.831
				c1.65,0,3,1.35,3,3V59.826z"/>
			<path fill="none" stroke="#FFFFFF" stroke-width="0.5" stroke-miterlimit="10" d="M125.18,59.826c0,1.65-1.35,3-3,3h-18.831
				c-1.65,0-3-1.35-3-3V40.995c0-1.65,1.35-3,3-3h18.831c1.65,0,3,1.35,3,3V59.826z"/>
		</g>
		<g id="east_londonderry_x5F_2_4_">
			<path fill="#F1F1F1" d="M150.012,59.826c0,1.65-1.35,3-3,3H128.18c-1.65,0-3-1.35-3-3V40.995c0-1.65,1.35-3,3-3h18.832
				c1.65,0,3,1.35,3,3V59.826z"/>
			<path fill="none" stroke="#FFFFFF" stroke-width="0.5" stroke-miterlimit="10" d="M150.012,59.826c0,1.65-1.35,3-3,3H128.18
				c-1.65,0-3-1.35-3-3V40.995c0-1.65,1.35-3,3-3h18.832c1.65,0,3,1.35,3,3V59.826z"/>
		</g>
	</g>
	<g>
		<g id="east_londonderry_x5F_5_1_">
			<path fill="#AAD801" d="M-823.452,108.107c0,1.65-1.35,3-3,3h-40.154c-1.65,0-3-1.35-3-3V67.954c0-1.65,1.35-3,3-3h40.154
				c1.65,0,3,1.35,3,3V108.107z"/>
			<path fill="none" stroke="#FFFFFF" stroke-width="0.5" stroke-miterlimit="10" d="M-823.452,108.107c0,1.65-1.35,3-3,3h-40.154
				c-1.65,0-3-1.35-3-3V67.954c0-1.65,1.35-3,3-3h40.154c1.65,0,3,1.35,3,3V108.107z"/>
		</g>
		<g id="east_londonderry_x5F_4_1_">
			<path fill="#AAD801" d="M-823.452,154.261c0,1.65-1.35,3-3,3h-40.154c-1.65,0-3-1.35-3-3v-40.154c0-1.65,1.35-3,3-3h40.154
				c1.65,0,3,1.35,3,3V154.261z"/>
			<path fill="none" stroke="#FFFFFF" stroke-width="0.5" stroke-miterlimit="10" d="M-823.452,154.261c0,1.65-1.35,3-3,3h-40.154
				c-1.65,0-3-1.35-3-3v-40.154c0-1.65,1.35-3,3-3h40.154c1.65,0,3,1.35,3,3V154.261z"/>
		</g>
		<g id="east_londonderry_x5F_3_1_">
			<path fill="#AAD801" d="M-869.606,200.414c0,1.65-1.35,3-3,3h-40.154c-1.65,0-3-1.35-3-3v-40.153c0-1.65,1.35-3,3-3h40.154
				c1.65,0,3,1.35,3,3V200.414z"/>
			<path fill="none" stroke="#FFFFFF" stroke-width="0.5" stroke-miterlimit="10" d="M-869.606,200.414c0,1.65-1.35,3-3,3h-40.154
				c-1.65,0-3-1.35-3-3v-40.153c0-1.65,1.35-3,3-3h40.154c1.65,0,3,1.35,3,3V200.414z"/>
		</g>
		<g id="east_londonderry_x5F_1_1_">
			<path fill="#AAD801" d="M-915.76,154.261c0,1.65-1.35,3-3,3h-40.155c-1.65,0-3-1.35-3-3v-40.153c0-1.65,1.35-3,3-3h40.155
				c1.65,0,3,1.35,3,3V154.261z"/>
			<path fill="none" stroke="#FFFFFF" stroke-width="0.5" stroke-miterlimit="10" d="M-915.76,154.261c0,1.65-1.35,3-3,3h-40.155
				c-1.65,0-3-1.35-3-3v-40.153c0-1.65,1.35-3,3-3h40.155c1.65,0,3,1.35,3,3V154.261z"/>
		</g>
		<g id="east_londonderry_x5F_2_1_">
			<path fill="#AAD801" d="M-869.606,154.261c0,1.65-1.35,3-3,3h-40.153c-1.65,0-3-1.35-3-3v-40.153c0-1.65,1.35-3,3-3h40.153
				c1.65,0,3,1.35,3,3V154.261z"/>
			<path fill="none" stroke="#FFFFFF" stroke-width="0.5" stroke-miterlimit="10" d="M-869.606,154.261c0,1.65-1.35,3-3,3h-40.153
				c-1.65,0-3-1.35-3-3v-40.153c0-1.65,1.35-3,3-3h40.153c1.65,0,3,1.35,3,3V154.261z"/>
		</g>
	</g>
</g>
<g id="mid_ulster">
	<g>
		<g id="mid_ulster_x5F_4_1_">
			<path fill="#F1F1F1" d="M150.012,109.488c0,1.65-1.35,3-3,3H128.18c-1.65,0-3-1.35-3-3V90.657c0-1.65,1.35-3,3-3h18.832
				c1.65,0,3,1.35,3,3V109.488z"/>
			<path fill="none" stroke="#FFFFFF" stroke-width="0.5" stroke-miterlimit="10" d="M150.012,109.488c0,1.65-1.35,3-3,3H128.18
				c-1.65,0-3-1.35-3-3V90.657c0-1.65,1.35-3,3-3h18.832c1.65,0,3,1.35,3,3V109.488z"/>
		</g>
		<g id="mid_ulster_x5F_2_1_">
			<path fill="#F1F1F1" d="M125.18,84.657c0,1.65-1.35,3-3,3h-18.831c-1.65,0-3-1.35-3-3V65.826c0-1.65,1.35-3,3-3h18.831
				c1.65,0,3,1.35,3,3V84.657z"/>
			<path fill="none" stroke="#FFFFFF" stroke-width="0.5" stroke-miterlimit="10" d="M125.18,84.657c0,1.65-1.35,3-3,3h-18.831
				c-1.65,0-3-1.35-3-3V65.826c0-1.65,1.35-3,3-3h18.831c1.65,0,3,1.35,3,3V84.657z"/>
		</g>
		<g id="mid_ulster_x5F_5_1_">
			<path fill="#F1F1F1" d="M150.012,134.319c0,1.65-1.35,3-3,3H128.18c-1.65,0-3-1.35-3-3v-18.831c0-1.65,1.35-3,3-3h18.832
				c1.65,0,3,1.35,3,3V134.319z"/>
			<path fill="none" stroke="#FFFFFF" stroke-width="0.5" stroke-miterlimit="10" d="M150.012,134.319c0,1.65-1.35,3-3,3H128.18
				c-1.65,0-3-1.35-3-3v-18.831c0-1.65,1.35-3,3-3h18.832c1.65,0,3,1.35,3,3V134.319z"/>
		</g>
		<g id="mid_ulster_x5F_1_1_">
			<path fill="#F1F1F1" d="M100.349,84.657c0,1.65-1.35,3-3,3H78.518c-1.65,0-3-1.35-3-3V65.826c0-1.65,1.35-3,3-3h18.831
				c1.65,0,3,1.35,3,3V84.657z"/>
			<path fill="none" stroke="#FFFFFF" stroke-width="0.5" stroke-miterlimit="10" d="M100.349,84.657c0,1.65-1.35,3-3,3H78.518
				c-1.65,0-3-1.35-3-3V65.826c0-1.65,1.35-3,3-3h18.831c1.65,0,3,1.35,3,3V84.657z"/>
		</g>
		<g id="mid_ulster_x5F_3_1_">
			<path fill="#F1F1F1" d="M125.18,109.489c0,1.65-1.35,3-3,3h-18.831c-1.65,0-3-1.35-3-3V90.657c0-1.65,1.35-3,3-3h18.831
				c1.65,0,3,1.35,3,3V109.489z"/>
			<path fill="none" stroke="#FFFFFF" stroke-width="0.5" stroke-miterlimit="10" d="M125.18,109.489c0,1.65-1.35,3-3,3h-18.831
				c-1.65,0-3-1.35-3-3V90.657c0-1.65,1.35-3,3-3h18.831c1.65,0,3,1.35,3,3V109.489z"/>
		</g>
	</g>
	<g>
		<g id="mid_ulster_x5F_4_2_">
			<path fill="#676767" d="M-869.606,246.568c0,1.65-1.35,3-3,3h-40.154c-1.65,0-3-1.35-3-3v-40.154c0-1.65,1.35-3,3-3h40.154
				c1.65,0,3,1.35,3,3V246.568z"/>
			<path fill="none" stroke="#FFFFFF" stroke-width="0.5" stroke-miterlimit="10" d="M-869.606,246.568c0,1.65-1.35,3-3,3h-40.154
				c-1.65,0-3-1.35-3-3v-40.154c0-1.65,1.35-3,3-3h40.154c1.65,0,3,1.35,3,3V246.568z"/>
		</g>
		<g id="mid_ulster_x5F_2_2_">
			<path fill="#676767" d="M-915.761,200.415c0,1.65-1.35,3-3,3h-40.153c-1.65,0-3-1.35-3-3v-40.154c0-1.65,1.35-3,3-3h40.153
				c1.65,0,3,1.35,3,3V200.415z"/>
			<path fill="none" stroke="#FFFFFF" stroke-width="0.5" stroke-miterlimit="10" d="M-915.761,200.415c0,1.65-1.35,3-3,3h-40.153
				c-1.65,0-3-1.35-3-3v-40.154c0-1.65,1.35-3,3-3h40.153c1.65,0,3,1.35,3,3V200.415z"/>
		</g>
		<g id="mid_ulster_x5F_5_2_">
			<path fill="#676767" d="M-869.606,292.722c0,1.65-1.35,3-3,3h-40.154c-1.65,0-3-1.35-3-3v-40.154c0-1.65,1.35-3,3-3h40.154
				c1.65,0,3,1.35,3,3V292.722z"/>
			<path fill="none" stroke="#FFFFFF" stroke-width="0.5" stroke-miterlimit="10" d="M-869.606,292.722c0,1.65-1.35,3-3,3h-40.154
				c-1.65,0-3-1.35-3-3v-40.154c0-1.65,1.35-3,3-3h40.154c1.65,0,3,1.35,3,3V292.722z"/>
		</g>
		<g id="mid_ulster_x5F_1_2_">
			<path fill="#676767" d="M-961.914,200.415c0,1.65-1.35,3-3,3h-40.156c-1.65,0-3-1.35-3-3v-40.154c0-1.65,1.35-3,3-3h40.156
				c1.65,0,3,1.35,3,3V200.415z"/>
			<path fill="none" stroke="#FFFFFF" stroke-width="0.5" stroke-miterlimit="10" d="M-961.914,200.415c0,1.65-1.35,3-3,3h-40.156
				c-1.65,0-3-1.35-3-3v-40.154c0-1.65,1.35-3,3-3h40.156c1.65,0,3,1.35,3,3V200.415z"/>
		</g>
		<g id="mid_ulster_x5F_3_2_">
			<path fill="#676767" d="M-915.761,246.569c0,1.65-1.35,3-3,3h-40.153c-1.65,0-3-1.35-3-3v-40.154c0-1.65,1.35-3,3-3h40.153
				c1.65,0,3,1.35,3,3V246.569z"/>
			<path fill="none" stroke="#FFFFFF" stroke-width="0.5" stroke-miterlimit="10" d="M-915.761,246.569c0,1.65-1.35,3-3,3h-40.153
				c-1.65,0-3-1.35-3-3v-40.154c0-1.65,1.35-3,3-3h40.153c1.65,0,3,1.35,3,3V246.569z"/>
		</g>
	</g>
</g>
<g id="foyle">
	<g>
		<g id="foyle_x5F_4_5_">
			<path fill="#F1F1F1" d="M78.518,112.489c-1.65,0-3-1.35-3-3V90.657c0-1.65,1.35-3,3-3h18.831c1.65,0,3,1.35,3,3v18.832
				c0,1.65-1.35,3-3,3H78.518z"/>
			<path fill="none" stroke="#FFFFFF" stroke-width="0.5" stroke-miterlimit="10" d="M78.518,112.489c-1.65,0-3-1.35-3-3V90.657
				c0-1.65,1.35-3,3-3h18.831c1.65,0,3,1.35,3,3v18.832c0,1.65-1.35,3-3,3H78.518z"/>
		</g>
		<g id="foyle_x5F_1_5_">
			<path fill="#F1F1F1" d="M103.349,137.319c-1.65,0-3-1.35-3-3v-18.83c0-1.65,1.35-3,3-3h18.831c1.65,0,3,1.35,3,3v18.83
				c0,1.65-1.35,3-3,3H103.349z"/>
			<path fill="none" stroke="#FFFFFF" stroke-width="0.5" stroke-miterlimit="10" d="M103.349,137.319c-1.65,0-3-1.35-3-3v-18.83
				c0-1.65,1.35-3,3-3h18.831c1.65,0,3,1.35,3,3v18.83c0,1.65-1.35,3-3,3H103.349z"/>
		</g>
		<g id="foyle_x5F_5_4_">
			<path fill="#F1F1F1" d="M78.518,137.319c-1.65,0-3-1.35-3-3l0.002-18.83c0-1.65,1.35-3,3-3h18.829c1.65,0,3,1.35,3,3l0.002,18.83
				c0,1.65-1.35,3-3,3H78.518z"/>
			<path fill="none" stroke="#FFFFFF" stroke-width="0.5" stroke-miterlimit="10" d="M78.518,137.319c-1.65,0-3-1.35-3-3
				l0.002-18.83c0-1.65,1.35-3,3-3h18.829c1.65,0,3,1.35,3,3l0.002,18.83c0,1.65-1.35,3-3,3H78.518z"/>
		</g>
		<g id="foyle_x5F_2_4_">
			<path fill="#F1F1F1" d="M53.688,87.657c-1.65,0-3-1.35-3-3V65.826c0-1.65,1.35-3,3-3l18.832-0.001c1.65,0,3,1.35,3,3v18.832
				c0,1.65-1.35,3-3,3H53.688z"/>
			<path fill="none" stroke="#FFFFFF" stroke-width="0.5" stroke-miterlimit="10" d="M53.688,87.657c-1.65,0-3-1.35-3-3V65.826
				c0-1.65,1.35-3,3-3l18.832-0.001c1.65,0,3,1.35,3,3v18.832c0,1.65-1.35,3-3,3H53.688z"/>
		</g>
		<g id="foyle_x5F_3_4_">
			<path fill="#F1F1F1" d="M53.688,112.49c-1.65,0-3-1.35-3-3V90.657c0-1.65,1.35-3,3-3l18.829,0.001c1.65,0,3,1.35,3,3v18.831
				c0,1.65-1.35,3-3,3H53.688z"/>
			<path fill="none" stroke="#FFFFFF" stroke-width="0.5" stroke-miterlimit="10" d="M53.688,112.49c-1.65,0-3-1.35-3-3V90.657
				c0-1.65,1.35-3,3-3l18.829,0.001c1.65,0,3,1.35,3,3v18.831c0,1.65-1.35,3-3,3H53.688z"/>
		</g>
	</g>
	<g>
		<g id="foyle_x5F_4_2_">
			<path fill="#4DC6DD" d="M-1005.069,249.569c-1.65,0-3-1.35-3-3v-40.154c0-1.65,1.35-3,3-3h40.156c1.65,0,3,1.35,3,3v40.154
				c0,1.65-1.35,3-3,3H-1005.069z"/>
			<path fill="none" stroke="#FFFFFF" stroke-width="0.5" stroke-miterlimit="10" d="M-1005.069,249.569c-1.65,0-3-1.35-3-3v-40.154
				c0-1.65,1.35-3,3-3h40.156c1.65,0,3,1.35,3,3v40.154c0,1.65-1.35,3-3,3H-1005.069z"/>
		</g>
		<g id="foyle_x5F_1_2_">
			<path fill="#4DC6DD" d="M-958.914,295.722c-1.65,0-3-1.35-3-3v-40.153c0-1.65,1.35-3,3-3h40.154c1.65,0,3,1.35,3,3v40.153
				c0,1.65-1.35,3-3,3H-958.914z"/>
			<path fill="none" stroke="#FFFFFF" stroke-width="0.5" stroke-miterlimit="10" d="M-958.914,295.722c-1.65,0-3-1.35-3-3v-40.153
				c0-1.65,1.35-3,3-3h40.154c1.65,0,3,1.35,3,3v40.153c0,1.65-1.35,3-3,3H-958.914z"/>
		</g>
		<g id="foyle_x5F_5_1_">
			<path fill="#4DC6DD" d="M-1005.069,295.722c-1.65,0-3-1.35-3-3l0.004-40.153c0-1.65,1.35-3,3-3h40.152c1.65,0,3,1.35,3,3
				l0.001,40.153c0,1.65-1.35,3-3,3H-1005.069z"/>
			<path fill="none" stroke="#FFFFFF" stroke-width="0.5" stroke-miterlimit="10" d="M-1005.069,295.722c-1.65,0-3-1.35-3-3
				l0.004-40.153c0-1.65,1.35-3,3-3h40.152c1.65,0,3,1.35,3,3l0.001,40.153c0,1.65-1.35,3-3,3H-1005.069z"/>
		</g>
		<g id="foyle_x5F_2_1_">
			<path fill="#4DC6DD" d="M-1051.222,203.415c-1.65,0-3-1.35-3-3v-40.154c0-1.65,1.35-3,3-3l40.157-0.001c1.65,0,3,1.35,3,3v40.156
				c0,1.65-1.35,3-3,3H-1051.222z"/>
			<path fill="none" stroke="#FFFFFF" stroke-width="0.5" stroke-miterlimit="10" d="M-1051.222,203.415c-1.65,0-3-1.35-3-3v-40.154
				c0-1.65,1.35-3,3-3l40.157-0.001c1.65,0,3,1.35,3,3v40.156c0,1.65-1.35,3-3,3H-1051.222z"/>
		</g>
		<g id="foyle_x5F_3_1_">
			<path fill="#4DC6DD" d="M-1051.219,249.571c-1.65,0-3-1.35-3-3v-40.156c0-1.65,1.35-3,3-3l40.15,0.003c1.65,0,3,1.35,3,3v40.153
				c0,1.65-1.35,3-3,3H-1051.219z"/>
			<path fill="none" stroke="#FFFFFF" stroke-width="0.5" stroke-miterlimit="10" d="M-1051.219,249.571c-1.65,0-3-1.35-3-3v-40.156
				c0-1.65,1.35-3,3-3l40.15,0.003c1.65,0,3,1.35,3,3v40.153c0,1.65-1.35,3-3,3H-1051.219z"/>
		</g>
	</g>
</g>
<g id="west_tyrone">
	<g>
		<g id="west_tyrone_x5F_2">
			<path fill="#F1F1F1" d="M100.349,159.151c0,1.65-1.35,3-3,3H78.518c-1.65,0-3-1.35-3-3v-18.832c0-1.65,1.35-3,3-3h18.831
				c1.65,0,3,1.35,3,3V159.151z"/>
			<path fill="none" stroke="#FFFFFF" stroke-width="0.5" stroke-miterlimit="10" d="M100.349,159.151c0,1.65-1.35,3-3,3H78.518
				c-1.65,0-3-1.35-3-3v-18.832c0-1.65,1.35-3,3-3h18.831c1.65,0,3,1.35,3,3V159.151z"/>
		</g>
		<g id="west_tyrone_x5F_1_1_">
			<path fill="#F1F1F1" d="M125.18,159.151c0,1.65-1.35,3-3,3h-18.831c-1.65,0-3-1.35-3-3v-18.832c0-1.65,1.35-3,3-3h18.831
				c1.65,0,3,1.35,3,3V159.151z"/>
			<path fill="none" stroke="#FFFFFF" stroke-width="0.5" stroke-miterlimit="10" d="M125.18,159.151c0,1.65-1.35,3-3,3h-18.831
				c-1.65,0-3-1.35-3-3v-18.832c0-1.65,1.35-3,3-3h18.831c1.65,0,3,1.35,3,3V159.151z"/>
		</g>
		<g id="west_tyrone_x5F_4">
			<path fill="#F1F1F1" d="M75.518,183.982c0,1.65-1.35,3-3,3h-18.83c-1.65,0-3-1.35-3-3v-18.832c0-1.65,1.35-3,3-3h18.83
				c1.65,0,3,1.35,3,3V183.982z"/>
			<path fill="none" stroke="#FFFFFF" stroke-width="0.5" stroke-miterlimit="10" d="M75.518,183.982c0,1.65-1.35,3-3,3h-18.83
				c-1.65,0-3-1.35-3-3v-18.832c0-1.65,1.35-3,3-3h18.83c1.65,0,3,1.35,3,3V183.982z"/>
		</g>
		<g id="west_tyrone_x5F_3">
			<path fill="#F1F1F1" d="M100.349,183.982c0,1.65-1.35,3-3,3H78.518c-1.65,0-3-1.35-3-3v-18.832c0-1.65,1.35-3,3-3h18.831
				c1.65,0,3,1.35,3,3V183.982z"/>
			<path fill="none" stroke="#FFFFFF" stroke-width="0.5" stroke-miterlimit="10" d="M100.349,183.982c0,1.65-1.35,3-3,3H78.518
				c-1.65,0-3-1.35-3-3v-18.832c0-1.65,1.35-3,3-3h18.831c1.65,0,3,1.35,3,3V183.982z"/>
		</g>
		<g id="west_tyrone_x5F_5_1_">
			<path fill="#F1F1F1" d="M75.518,159.151c0,1.65-1.35,3-3,3H53.687c-1.65,0-3-1.35-3-3V140.32c0-1.65,1.35-3,3-3h18.831
				c1.65,0,3,1.35,3,3V159.151z"/>
			<path fill="none" stroke="#FFFFFF" stroke-width="0.5" stroke-miterlimit="10" d="M75.518,159.151c0,1.65-1.35,3-3,3H53.687
				c-1.65,0-3-1.35-3-3V140.32c0-1.65,1.35-3,3-3h18.831c1.65,0,3,1.35,3,3V159.151z"/>
		</g>
	</g>
	<g>
		<g id="west_tyrone_x5F_2_1_">
			<path fill="#1387BA" d="M-961.914,338.877c0,1.65-1.35,3-3,3h-40.156c-1.65,0-3-1.35-3-3v-40.155c0-1.65,1.35-3,3-3h40.156
				c1.65,0,3,1.35,3,3V338.877z"/>
			<path fill="none" stroke="#FFFFFF" stroke-width="0.5" stroke-miterlimit="10" d="M-961.914,338.877c0,1.65-1.35,3-3,3h-40.156
				c-1.65,0-3-1.35-3-3v-40.155c0-1.65,1.35-3,3-3h40.156c1.65,0,3,1.35,3,3V338.877z"/>
		</g>
		<g id="west_tyrone_x5F_1_2_">
			<path fill="#1387BA" d="M-915.761,338.877c0,1.65-1.35,3-3,3h-40.153c-1.65,0-3-1.35-3-3v-40.155c0-1.65,1.35-3,3-3h40.153
				c1.65,0,3,1.35,3,3V338.877z"/>
			<path fill="none" stroke="#FFFFFF" stroke-width="0.5" stroke-miterlimit="10" d="M-915.761,338.877c0,1.65-1.35,3-3,3h-40.153
				c-1.65,0-3-1.35-3-3v-40.155c0-1.65,1.35-3,3-3h40.153c1.65,0,3,1.35,3,3V338.877z"/>
		</g>
		<g id="west_tyrone_x5F_4_1_">
			<path fill="#1387BA" d="M-1008.069,385.031c0,1.65-1.35,3-3,3h-40.153c-1.65,0-3-1.35-3-3v-40.154c0-1.65,1.35-3,3-3h40.153
				c1.65,0,3,1.35,3,3V385.031z"/>
			<path fill="none" stroke="#FFFFFF" stroke-width="0.5" stroke-miterlimit="10" d="M-1008.069,385.031c0,1.65-1.35,3-3,3h-40.153
				c-1.65,0-3-1.35-3-3v-40.154c0-1.65,1.35-3,3-3h40.153c1.65,0,3,1.35,3,3V385.031z"/>
		</g>
		<g id="west_tyrone_x5F_3_1_">
			<path fill="#1387BA" d="M-961.914,385.031c0,1.65-1.35,3-3,3h-40.156c-1.65,0-3-1.35-3-3v-40.154c0-1.65,1.35-3,3-3h40.156
				c1.65,0,3,1.35,3,3V385.031z"/>
			<path fill="none" stroke="#FFFFFF" stroke-width="0.5" stroke-miterlimit="10" d="M-961.914,385.031c0,1.65-1.35,3-3,3h-40.156
				c-1.65,0-3-1.35-3-3v-40.154c0-1.65,1.35-3,3-3h40.156c1.65,0,3,1.35,3,3V385.031z"/>
		</g>
		<g id="west_tyrone_x5F_5_2_">
			<path fill="#1387BA" d="M-1008.069,338.877c0,1.65-1.35,3-3,3h-40.154c-1.65,0-3-1.35-3-3v-40.154c0-1.65,1.35-3,3-3h40.154
				c1.65,0,3,1.35,3,3V338.877z"/>
			<path fill="none" stroke="#FFFFFF" stroke-width="0.5" stroke-miterlimit="10" d="M-1008.069,338.877c0,1.65-1.35,3-3,3h-40.154
				c-1.65,0-3-1.35-3-3v-40.154c0-1.65,1.35-3,3-3h40.154c1.65,0,3,1.35,3,3V338.877z"/>
		</g>
	</g>
</g>
<g id="fermanagh_and_south_tyrone">
	<g>
		<g id="fermanagh_and_south_tyrone_x5F_3_5_">
			<path fill="#F1F1F1" d="M25.856,233.644c0,1.65-1.35,3-3,3H4.025c-1.65,0-3-1.35-3-3v-18.831c0-1.65,1.35-3,3-3h18.831
				c1.65,0,3,1.35,3,3V233.644z"/>
			<path fill="none" stroke="#FFFFFF" stroke-width="0.5" stroke-miterlimit="10" d="M25.856,233.644c0,1.65-1.35,3-3,3H4.025
				c-1.65,0-3-1.35-3-3v-18.831c0-1.65,1.35-3,3-3h18.831c1.65,0,3,1.35,3,3V233.644z"/>
		</g>
		<g id="fermanagh_and_south_tyrone_x5F_2_5_">
			<path fill="#F1F1F1" d="M50.688,258.476c0,1.65-1.35,3-3,3H28.855c-1.65,0-3-1.35-3-3v-18.832c0-1.65,1.35-3,3-3h18.832
				c1.65,0,3,1.35,3,3V258.476z"/>
			<path fill="none" stroke="#FFFFFF" stroke-width="0.5" stroke-miterlimit="10" d="M50.688,258.476c0,1.65-1.35,3-3,3H28.855
				c-1.65,0-3-1.35-3-3v-18.832c0-1.65,1.35-3,3-3h18.832c1.65,0,3,1.35,3,3V258.476z"/>
		</g>
		<g id="fermanagh_and_south_tyrone_x5F_1_5_">
			<path fill="#F1F1F1" d="M50.688,208.813c0,1.65-1.35,3-3,3H28.856c-1.65,0-3-1.35-3-3v-18.831c0-1.65,1.35-3,3-3h18.831
				c1.65,0,3,1.35,3,3V208.813z"/>
			<path fill="none" stroke="#FFFFFF" stroke-width="0.5" stroke-miterlimit="10" d="M50.688,208.813c0,1.65-1.35,3-3,3H28.856
				c-1.65,0-3-1.35-3-3v-18.831c0-1.65,1.35-3,3-3h18.831c1.65,0,3,1.35,3,3V208.813z"/>
		</g>
		<g id="fermanagh_and_south_tyrone_x5F_5_4_">
			<path fill="#F1F1F1" d="M75.518,283.306c0,1.65-1.35,3-3,3h-18.83c-1.65,0-3-1.35-3-3v-18.831c0-1.65,1.35-3,3-3h18.83
				c1.65,0,3,1.35,3,3V283.306z"/>
			<path fill="none" stroke="#FFFFFF" stroke-width="0.5" stroke-miterlimit="10" d="M75.518,283.306c0,1.65-1.35,3-3,3h-18.83
				c-1.65,0-3-1.35-3-3v-18.831c0-1.65,1.35-3,3-3h18.83c1.65,0,3,1.35,3,3V283.306z"/>
		</g>
		<g id="fermanagh_and_south_tyrone_x5F_4_4_">
			<path fill="#F1F1F1" d="M75.518,208.813c0,1.65-1.35,3-3,3h-18.83c-1.65,0-3-1.35-3-3v-18.831c0-1.65,1.35-3,3-3h18.83
				c1.65,0,3,1.35,3,3V208.813z"/>
			<path fill="none" stroke="#FFFFFF" stroke-width="0.5" stroke-miterlimit="10" d="M75.518,208.813c0,1.65-1.35,3-3,3h-18.83
				c-1.65,0-3-1.35-3-3v-18.831c0-1.65,1.35-3,3-3h18.83c1.65,0,3,1.35,3,3V208.813z"/>
		</g>
	</g>
	<g>
		<g id="fermanagh_and_south_tyrone_x5F_3_2_">
			<path fill="#AAD8F1" d="M-1100.375,477.337c0,1.65-1.35,3-3,3h-40.154c-1.65,0-3-1.35-3-3v-40.153c0-1.65,1.35-3,3-3h40.154
				c1.65,0,3,1.35,3,3V477.337z"/>
			<path fill="none" stroke="#FFFFFF" stroke-width="0.5" stroke-miterlimit="10" d="M-1100.375,477.337c0,1.65-1.35,3-3,3h-40.154
				c-1.65,0-3-1.35-3-3v-40.153c0-1.65,1.35-3,3-3h40.154c1.65,0,3,1.35,3,3V477.337z"/>
		</g>
		<g id="fermanagh_and_south_tyrone_x5F_2_2_">
			<path fill="#AAD8F1" d="M-1054.222,523.491c0,1.65-1.35,3-3,3h-40.154c-1.65,0-3-1.35-3-3v-40.153c0-1.65,1.35-3,3-3h40.154
				c1.65,0,3,1.35,3,3V523.491z"/>
			<path fill="none" stroke="#FFFFFF" stroke-width="0.5" stroke-miterlimit="10" d="M-1054.222,523.491c0,1.65-1.35,3-3,3h-40.154
				c-1.65,0-3-1.35-3-3v-40.153c0-1.65,1.35-3,3-3h40.154c1.65,0,3,1.35,3,3V523.491z"/>
		</g>
		<g id="fermanagh_and_south_tyrone_x5F_1_2_">
			<path fill="#AAD8F1" d="M-1054.222,431.184c0,1.65-1.35,3-3,3h-40.153c-1.65,0-3-1.35-3-3v-40.153c0-1.65,1.35-3,3-3h40.153
				c1.65,0,3,1.35,3,3V431.184z"/>
			<path fill="none" stroke="#FFFFFF" stroke-width="0.5" stroke-miterlimit="10" d="M-1054.222,431.184c0,1.65-1.35,3-3,3h-40.153
				c-1.65,0-3-1.35-3-3v-40.153c0-1.65,1.35-3,3-3h40.153c1.65,0,3,1.35,3,3V431.184z"/>
		</g>
		<g id="fermanagh_and_south_tyrone_x5F_5_1_">
			<path fill="#AAD8F1" d="M-1008.068,569.645c0,1.65-1.35,3-3,3h-40.154c-1.65,0-3-1.35-3-3v-40.154c0-1.65,1.35-3,3-3h40.154
				c1.65,0,3,1.35,3,3V569.645z"/>
			<path fill="none" stroke="#FFFFFF" stroke-width="0.5" stroke-miterlimit="10" d="M-1008.068,569.645c0,1.65-1.35,3-3,3h-40.154
				c-1.65,0-3-1.35-3-3v-40.154c0-1.65,1.35-3,3-3h40.154c1.65,0,3,1.35,3,3V569.645z"/>
		</g>
		<g id="fermanagh_and_south_tyrone_x5F_4_1_">
			<path fill="#AAD8F1" d="M-1008.068,431.184c0,1.65-1.35,3-3,3h-40.154c-1.65,0-3-1.35-3-3V391.03c0-1.65,1.35-3,3-3h40.154
				c1.65,0,3,1.35,3,3V431.184z"/>
			<path fill="none" stroke="#FFFFFF" stroke-width="0.5" stroke-miterlimit="10" d="M-1008.068,431.184c0,1.65-1.35,3-3,3h-40.154
				c-1.65,0-3-1.35-3-3V391.03c0-1.65,1.35-3,3-3h40.154c1.65,0,3,1.35,3,3V431.184z"/>
		</g>
	</g>
</g>
<g id="newry_and_armagh">
	<g>
		<g id="newry_and_armagh_x5F_5">
			<path fill="#F1F1F1" d="M128.18,286.307c-1.65,0-3-1.35-3-3v-18.831c0-1.65,1.35-3,3-3h18.832c1.65,0,3,1.35,3,3v18.831
				c0,1.65-1.35,3-3,3H128.18z"/>
			<path fill="none" stroke="#FFFFFF" stroke-width="0.5" stroke-miterlimit="10" d="M128.18,286.307c-1.65,0-3-1.35-3-3v-18.831
				c0-1.65,1.35-3,3-3h18.832c1.65,0,3,1.35,3,3v18.831c0,1.65-1.35,3-3,3H128.18z"/>
		</g>
		<g id="newry_and_armagh_x5F_3_1_">
			<path fill="#F1F1F1" d="M103.349,286.307c-1.65,0-3-1.35-3-3v-18.831c0-1.65,1.35-3,3-3h18.831c1.65,0,3,1.35,3,3v18.831
				c0,1.65-1.35,3-3,3H103.349z"/>
			<path fill="none" stroke="#FFFFFF" stroke-width="0.5" stroke-miterlimit="10" d="M103.349,286.307c-1.65,0-3-1.35-3-3v-18.831
				c0-1.65,1.35-3,3-3h18.831c1.65,0,3,1.35,3,3v18.831c0,1.65-1.35,3-3,3H103.349z"/>
		</g>
		<g id="newry_and_armagh_x5F_4">
			<path fill="#F1F1F1" d="M153.012,286.307c-1.65,0-3-1.35-3-3v-18.831c0-1.65,1.35-3,3-3h18.831c1.65,0,3,1.35,3,3v18.831
				c0,1.65-1.35,3-3,3H153.012z"/>
			<path fill="none" stroke="#FFFFFF" stroke-width="0.5" stroke-miterlimit="10" d="M153.012,286.307c-1.65,0-3-1.35-3-3v-18.831
				c0-1.65,1.35-3,3-3h18.831c1.65,0,3,1.35,3,3v18.831c0,1.65-1.35,3-3,3H153.012z"/>
		</g>
		<g id="newry_and_armagh_x5F_2_1_">
			<path fill="#F1F1F1" d="M75.52,264.475c0-1.65,1.35-3,3-3l18.831,0.001c1.65,0,3,1.35,3,3v18.83c0,1.65-1.35,3-3,3l-18.831,0.001
				c-1.65,0-3-1.35-3-3V264.475z"/>
			<path fill="none" stroke="#FFFFFF" stroke-width="0.5" stroke-miterlimit="10" d="M75.52,264.475c0-1.65,1.35-3,3-3l18.831,0.001
				c1.65,0,3,1.35,3,3v18.83c0,1.65-1.35,3-3,3l-18.831,0.001c-1.65,0-3-1.35-3-3V264.475z"/>
		</g>
		<g id="newry_and_armagh_x5F_1">
			<path fill="#F1F1F1" d="M100.351,261.476l-21.831-0.001c-1.65,0-3-1.35-3-3v-18.831c0-1.65,1.35-3,3-3h18.829c1.65,0,3,1.35,3,3
				L100.351,261.476"/>
			<path fill="none" stroke="#FFFFFF" stroke-width="0.5" stroke-miterlimit="10" d="M100.351,261.476l-21.831-0.001
				c-1.65,0-3-1.35-3-3v-18.831c0-1.65,1.35-3,3-3h18.829c1.65,0,3,1.35,3,3L100.351,261.476"/>
		</g>
	</g>
	<g>
		<g id="newry_and_armagh_x5F_5_1_">
			<path fill="#1387BA" d="M-912.761,572.646c-1.65,0-3-1.35-3-3v-40.154c0-1.65,1.35-3,3-3h40.154c1.65,0,3,1.35,3,3v40.154
				c0,1.65-1.35,3-3,3H-912.761z"/>
			<path fill="none" stroke="#FFFFFF" stroke-width="0.5" stroke-miterlimit="10" d="M-912.761,572.646c-1.65,0-3-1.35-3-3v-40.154
				c0-1.65,1.35-3,3-3h40.154c1.65,0,3,1.35,3,3v40.154c0,1.65-1.35,3-3,3H-912.761z"/>
		</g>
		<g id="newry_and_armagh_x5F_3_2_">
			<path fill="#1387BA" d="M-958.914,572.646c-1.65,0-3-1.35-3-3v-40.153c0-1.65,1.35-3,3-3h40.153c1.65,0,3,1.35,3,3v40.153
				c0,1.65-1.35,3-3,3H-958.914z"/>
			<path fill="none" stroke="#FFFFFF" stroke-width="0.5" stroke-miterlimit="10" d="M-958.914,572.646c-1.65,0-3-1.35-3-3v-40.153
				c0-1.65,1.35-3,3-3h40.153c1.65,0,3,1.35,3,3v40.153c0,1.65-1.35,3-3,3H-958.914z"/>
		</g>
		<g id="newry_and_armagh_x5F_4_1_">
			<path fill="#1387BA" d="M-866.606,572.646c-1.65,0-3-1.35-3-3v-40.154c0-1.65,1.35-3,3-3h40.153c1.65,0,3,1.35,3,3v40.154
				c0,1.65-1.35,3-3,3H-866.606z"/>
			<path fill="none" stroke="#FFFFFF" stroke-width="0.5" stroke-miterlimit="10" d="M-866.606,572.646c-1.65,0-3-1.35-3-3v-40.154
				c0-1.65,1.35-3,3-3h40.153c1.65,0,3,1.35,3,3v40.154c0,1.65-1.35,3-3,3H-866.606z"/>
		</g>
		<g id="newry_and_armagh_x5F_2_2_">
			<path fill="#1387BA" d="M-1008.065,529.49c0-1.65,1.35-3,3-3l40.153,0.002c1.65,0,3,1.351,3,3v40.151c0,1.65-1.35,3-3,3
				l-40.153,0.001c-1.65,0-3-1.35-3-3V529.49z"/>
			<path fill="none" stroke="#FFFFFF" stroke-width="0.5" stroke-miterlimit="10" d="M-1008.065,529.49c0-1.65,1.35-3,3-3
				l40.153,0.002c1.65,0,3,1.351,3,3v40.151c0,1.65-1.35,3-3,3l-40.153,0.001c-1.65,0-3-1.35-3-3V529.49z"/>
		</g>
		<g id="newry_and_armagh_x5F_1_1_">
			<path fill="#1387BA" d="M-961.913,526.492l-43.153-0.002c-1.65,0-3-1.35-3-3v-40.152c0-1.65,1.35-3,3-3h40.152c1.65,0,3,1.35,3,3
				L-961.913,526.492"/>
			<path fill="none" stroke="#FFFFFF" stroke-width="0.5" stroke-miterlimit="10" d="M-961.913,526.492l-43.153-0.002
				c-1.65,0-3-1.35-3-3v-40.152c0-1.65,1.35-3,3-3h40.152c1.65,0,3,1.35,3,3L-961.913,526.492"/>
		</g>
	</g>
</g>
<g id="upper_bann">
	<g>
		<g id="upper_bann_x5F_1_4_">
			<path fill="#F1F1F1" d="M100.349,233.644c0,1.65-1.35,3-3,3H78.518c-1.65,0-3-1.35-3-3v-18.831c0-1.65,1.35-3,3-3h18.831
				c1.65,0,3,1.35,3,3V233.644z"/>
			<path fill="none" stroke="#FFFFFF" stroke-width="0.5" stroke-miterlimit="10" d="M100.349,233.644c0,1.65-1.35,3-3,3H78.518
				c-1.65,0-3-1.35-3-3v-18.831c0-1.65,1.35-3,3-3h18.831c1.65,0,3,1.35,3,3V233.644z"/>
		</g>
		<g id="upper_bann_x5F_4_5_">
			<path fill="#F1F1F1" d="M50.688,233.644c0,1.65-1.35,3-3,3H28.855c-1.65,0-3-1.35-3-3v-18.831c0-1.65,1.35-3,3-3h18.832
				c1.65,0,3,1.35,3,3V233.644z"/>
			<path fill="none" stroke="#FFFFFF" stroke-width="0.5" stroke-miterlimit="10" d="M50.688,233.644c0,1.65-1.35,3-3,3H28.855
				c-1.65,0-3-1.35-3-3v-18.831c0-1.65,1.35-3,3-3h18.832c1.65,0,3,1.35,3,3V233.644z"/>
		</g>
		<g id="upper_bann_x5F_2_4_">
			<path fill="#F1F1F1" d="M100.349,208.813c0,1.65-1.35,3-3,3H78.52c-1.65,0-3-1.35-3-3v-18.831c0-1.65,1.35-3,3-3h18.829
				c1.65,0,3,1.35,3,3V208.813z"/>
			<path fill="none" stroke="#FFFFFF" stroke-width="0.5" stroke-miterlimit="10" d="M100.349,208.813c0,1.65-1.35,3-3,3H78.52
				c-1.65,0-3-1.35-3-3v-18.831c0-1.65,1.35-3,3-3h18.829c1.65,0,3,1.35,3,3V208.813z"/>
		</g>
		<g id="upper_bann_x5F_3_4_">
			<path fill="#F1F1F1" d="M75.518,211.813v21.831c0,1.65-1.35,3-3,3h-18.83c-1.65,0-3-1.35-3-3v-18.831c0-1.65,1.35-3,3-3H75.518"
				/>
			<path fill="none" stroke="#FFFFFF" stroke-width="0.5" stroke-miterlimit="10" d="M75.518,211.813v21.831c0,1.65-1.35,3-3,3
				h-18.83c-1.65,0-3-1.35-3-3v-18.831c0-1.65,1.35-3,3-3H75.518"/>
		</g>
		<g id="upper_bann_x5F_5_4_">
			<path fill="#F1F1F1" d="M75.52,258.476c0,1.65-1.35,3-3,3H53.688c-1.65,0-3-1.35-3-3v-18.832c0-1.65,1.35-3,3-3H72.52
				c1.65,0,3,1.35,3,3V258.476z"/>
			<path fill="none" stroke="#FFFFFF" stroke-width="0.5" stroke-miterlimit="10" d="M75.52,258.476c0,1.65-1.35,3-3,3H53.688
				c-1.65,0-3-1.35-3-3v-18.832c0-1.65,1.35-3,3-3H72.52c1.65,0,3,1.35,3,3V258.476z"/>
		</g>
	</g>
	<g>
		<g id="upper_bann_x5F_1_1_">
			<path fill="#B3B3B4" d="M-961.914,477.338c0,1.65-1.35,3-3,3h-40.156c-1.65,0-3-1.35-3-3v-40.153c0-1.65,1.35-3,3-3h40.156
				c1.65,0,3,1.35,3,3V477.338z"/>
			<path fill="none" stroke="#FFFFFF" stroke-width="0.5" stroke-miterlimit="10" d="M-961.914,477.338c0,1.65-1.35,3-3,3h-40.156
				c-1.65,0-3-1.35-3-3v-40.153c0-1.65,1.35-3,3-3h40.156c1.65,0,3,1.35,3,3V477.338z"/>
		</g>
		<g id="upper_bann_x5F_4_2_">
			<path fill="#B3B3B4" d="M-1054.222,477.338c0,1.65-1.35,3-3,3h-40.154c-1.65,0-3-1.35-3-3v-40.154c0-1.65,1.35-3,3-3h40.154
				c1.65,0,3,1.35,3,3V477.338z"/>
			<path fill="none" stroke="#FFFFFF" stroke-width="0.5" stroke-miterlimit="10" d="M-1054.222,477.338c0,1.65-1.35,3-3,3h-40.154
				c-1.65,0-3-1.35-3-3v-40.154c0-1.65,1.35-3,3-3h40.154c1.65,0,3,1.35,3,3V477.338z"/>
		</g>
		<g id="upper_bann_x5F_2_1_">
			<path fill="#B3B3B4" d="M-961.914,431.184c0,1.65-1.35,3-3,3h-40.153c-1.65,0-3-1.35-3-3v-40.153c0-1.65,1.35-3,3-3h40.153
				c1.65,0,3,1.35,3,3V431.184z"/>
			<path fill="none" stroke="#FFFFFF" stroke-width="0.5" stroke-miterlimit="10" d="M-961.914,431.184c0,1.65-1.35,3-3,3h-40.153
				c-1.65,0-3-1.35-3-3v-40.153c0-1.65,1.35-3,3-3h40.153c1.65,0,3,1.35,3,3V431.184z"/>
		</g>
		<g id="upper_bann_x5F_3_1_">
			<path fill="#B3B3B4" d="M-1008.069,434.184v43.154c0,1.65-1.35,3-3,3h-40.153c-1.65,0-3-1.35-3-3v-40.154c0-1.65,1.35-3,3-3
				H-1008.069"/>
			<path fill="none" stroke="#FFFFFF" stroke-width="0.5" stroke-miterlimit="10" d="M-1008.069,434.184v43.154c0,1.65-1.35,3-3,3
				h-40.153c-1.65,0-3-1.35-3-3v-40.154c0-1.65,1.35-3,3-3H-1008.069"/>
		</g>
		<g id="upper_bann_x5F_5_1_">
			<path fill="#B3B3B4" d="M-1008.065,523.492c0,1.65-1.35,3-3,3h-40.154c-1.65,0-3-1.35-3-3v-40.154c0-1.65,1.35-3,3-3h40.154
				c1.65,0,3,1.35,3,3V523.492z"/>
			<path fill="none" stroke="#FFFFFF" stroke-width="0.5" stroke-miterlimit="10" d="M-1008.065,523.492c0,1.65-1.35,3-3,3h-40.154
				c-1.65,0-3-1.35-3-3v-40.154c0-1.65,1.35-3,3-3h40.154c1.65,0,3,1.35,3,3V523.492z"/>
		</g>
	</g>
</g>
<g id="south_down">
	<g>
		<g id="south_down_x5F_5_1_">
			<path fill="#F1F1F1" d="M199.675,283.307c0,1.65,1.35,3,3,3h18.83c1.65,0,3-1.35,3-3v-18.831c0-1.65-1.35-3-3-3h-18.83
				c-1.65,0-3,1.35-3,3V283.307z"/>
			<path fill="none" stroke="#FFFFFF" stroke-width="0.5" stroke-miterlimit="10" d="M199.675,283.307c0,1.65,1.35,3,3,3h18.83
				c1.65,0,3-1.35,3-3v-18.831c0-1.65-1.35-3-3-3h-18.83c-1.65,0-3,1.35-3,3V283.307z"/>
		</g>
		<g id="south_down_x5F_4">
			<path fill="#F1F1F1" d="M174.843,283.307c0,1.65,1.35,3,3,3h18.832c1.65,0,3-1.35,3-3v-18.831c0-1.65-1.35-3-3-3h-18.832
				c-1.65,0-3,1.35-3,3V283.307z"/>
			<path fill="none" stroke="#FFFFFF" stroke-width="0.5" stroke-miterlimit="10" d="M174.843,283.307c0,1.65,1.35,3,3,3h18.832
				c1.65,0,3-1.35,3-3v-18.831c0-1.65-1.35-3-3-3h-18.832c-1.65,0-3,1.35-3,3V283.307z"/>
		</g>
		<g id="south_down_x5F_1_1_">
			<path fill="#F1F1F1" d="M174.843,308.138c0,1.65,1.35,3,3,3h18.832c1.65,0,3-1.35,3-3v-18.831c0-1.65-1.35-3-3-3h-18.832
				c-1.65,0-3,1.35-3,3V308.138z"/>
			<path fill="none" stroke="#FFFFFF" stroke-width="0.5" stroke-miterlimit="10" d="M174.843,308.138c0,1.65,1.35,3,3,3h18.832
				c1.65,0,3-1.35,3-3v-18.831c0-1.65-1.35-3-3-3h-18.832c-1.65,0-3,1.35-3,3V308.138z"/>
		</g>
		<g id="south_down_x5F_3">
			<path fill="#F1F1F1" d="M224.505,283.307c0,1.65,1.35,3,3,3h18.831c1.65,0,3-1.35,3-3v-18.831c0-1.65-1.35-3-3-3h-18.831
				c-1.65,0-3,1.35-3,3V283.307z"/>
			<path fill="none" stroke="#FFFFFF" stroke-width="0.5" stroke-miterlimit="10" d="M224.505,283.307c0,1.65,1.35,3,3,3h18.831
				c1.65,0,3-1.35,3-3v-18.831c0-1.65-1.35-3-3-3h-18.831c-1.65,0-3,1.35-3,3V283.307z"/>
		</g>
		<g id="south_down_x5F_2">
			<path fill="#F1F1F1" d="M199.675,258.476c0,1.65,1.35,3,3,3h18.832c1.65,0,3-1.35,3-3v-18.832c0-1.65-1.35-3-3-3h-18.832
				c-1.65,0-3,1.35-3,3V258.476z"/>
			<path fill="none" stroke="#FFFFFF" stroke-width="0.5" stroke-miterlimit="10" d="M199.675,258.476c0,1.65,1.35,3,3,3h18.832
				c1.65,0,3-1.35,3-3v-18.832c0-1.65-1.35-3-3-3h-18.832c-1.65,0-3,1.35-3,3V258.476z"/>
		</g>
	</g>
	<g>
		<g id="south_down_x5F_5_2_">
			<path fill="#FCDD03" d="M-777.299,569.646c0,1.65,1.35,3,3,3h40.153c1.65,0,3-1.35,3-3v-40.153c0-1.65-1.35-3-3-3h-40.153
				c-1.65,0-3,1.35-3,3V569.646z"/>
			<path fill="none" stroke="#FFFFFF" stroke-width="0.5" stroke-miterlimit="10" d="M-777.299,569.646c0,1.65,1.35,3,3,3h40.153
				c1.65,0,3-1.35,3-3v-40.153c0-1.65-1.35-3-3-3h-40.153c-1.65,0-3,1.35-3,3V569.646z"/>
		</g>
		<g id="south_down_x5F_4_1_">
			<path fill="#FCDD03" d="M-823.452,569.646c0,1.65,1.35,3,3,3h40.153c1.65,0,3-1.35,3-3v-40.153c0-1.65-1.35-3-3-3h-40.153
				c-1.65,0-3,1.35-3,3V569.646z"/>
			<path fill="none" stroke="#FFFFFF" stroke-width="0.5" stroke-miterlimit="10" d="M-823.452,569.646c0,1.65,1.35,3,3,3h40.153
				c1.65,0,3-1.35,3-3v-40.153c0-1.65-1.35-3-3-3h-40.153c-1.65,0-3,1.35-3,3V569.646z"/>
		</g>
		<g id="south_down_x5F_1_2_">
			<path fill="#FCDD03" d="M-823.452,615.799c0,1.65,1.35,3,3,3h40.154c1.65,0,3-1.35,3-3v-40.153c0-1.65-1.35-3-3-3h-40.154
				c-1.65,0-3,1.35-3,3V615.799z"/>
			<path fill="none" stroke="#FFFFFF" stroke-width="0.5" stroke-miterlimit="10" d="M-823.452,615.799c0,1.65,1.35,3,3,3h40.154
				c1.65,0,3-1.35,3-3v-40.153c0-1.65-1.35-3-3-3h-40.154c-1.65,0-3,1.35-3,3V615.799z"/>
		</g>
		<g id="south_down_x5F_3_1_">
			<path fill="#FCDD03" d="M-731.146,569.646c0,1.65,1.35,3,3,3h40.153c1.65,0,3-1.35,3-3v-40.154c0-1.65-1.35-3-3-3h-40.153
				c-1.65,0-3,1.35-3,3V569.646z"/>
			<path fill="none" stroke="#FFFFFF" stroke-width="0.5" stroke-miterlimit="10" d="M-731.146,569.646c0,1.65,1.35,3,3,3h40.153
				c1.65,0,3-1.35,3-3v-40.154c0-1.65-1.35-3-3-3h-40.153c-1.65,0-3,1.35-3,3V569.646z"/>
		</g>
		<g id="south_down_x5F_2_1_">
			<path fill="#FCDD03" d="M-777.299,523.492c0,1.65,1.35,3,3,3h40.154c1.65,0,3-1.35,3-3v-40.154c0-1.65-1.35-3-3-3h-40.154
				c-1.65,0-3,1.35-3,3V523.492z"/>
			<path fill="none" stroke="#FFFFFF" stroke-width="0.5" stroke-miterlimit="10" d="M-777.299,523.492c0,1.65,1.35,3,3,3h40.154
				c1.65,0,3-1.35,3-3v-40.154c0-1.65-1.35-3-3-3h-40.154c-1.65,0-3,1.35-3,3V523.492z"/>
		</g>
	</g>
</g>
<g id="lagan_valley">
	<g>
		<g id="lagan_valley_x5F_3_4_">
			<path fill="#F1F1F1" d="M125.18,233.644c0,1.65,1.35,3,3,3h18.832c1.65,0,3-1.35,3-3v-18.831c0-1.65-1.35-3-3-3H128.18
				c-1.65,0-3,1.35-3,3V233.644z"/>
			<path fill="none" stroke="#FFFFFF" stroke-width="0.5" stroke-miterlimit="10" d="M125.18,233.644c0,1.65,1.35,3,3,3h18.832
				c1.65,0,3-1.35,3-3v-18.831c0-1.65-1.35-3-3-3H128.18c-1.65,0-3,1.35-3,3V233.644z"/>
		</g>
		<g id="lagan_valley_x5F_4_4_">
			<path fill="#F1F1F1" d="M100.349,233.644c0,1.65,1.35,3,3,3h18.831c1.65,0,3-1.35,3-3v-18.831c0-1.65-1.35-3-3-3h-18.831
				c-1.65,0-3,1.35-3,3V233.644z"/>
			<path fill="none" stroke="#FFFFFF" stroke-width="0.5" stroke-miterlimit="10" d="M100.349,233.644c0,1.65,1.35,3,3,3h18.831
				c1.65,0,3-1.35,3-3v-18.831c0-1.65-1.35-3-3-3h-18.831c-1.65,0-3,1.35-3,3V233.644z"/>
		</g>
		<g id="lagan_valley_x5F_1_4_">
			<path fill="#F1F1F1" d="M100.349,258.476c0,1.65,1.35,3,3,3h18.831c1.65,0,3-1.35,3-3v-18.832c0-1.65-1.35-3-3-3h-18.831
				c-1.65,0-3,1.35-3,3V258.476z"/>
			<path fill="none" stroke="#FFFFFF" stroke-width="0.5" stroke-miterlimit="10" d="M100.349,258.476c0,1.65,1.35,3,3,3h18.831
				c1.65,0,3-1.35,3-3v-18.832c0-1.65-1.35-3-3-3h-18.831c-1.65,0-3,1.35-3,3V258.476z"/>
		</g>
		<g id="lagan_valley_x5F_5_4_">
			<path fill="#F1F1F1" d="M100.349,208.813c0,1.65,1.35,3,3,3h18.831c1.65,0,3-1.35,3-3v-18.831c0-1.65-1.35-3-3-3h-18.831
				c-1.65,0-3,1.35-3,3V208.813z"/>
			<path fill="none" stroke="#FFFFFF" stroke-width="0.5" stroke-miterlimit="10" d="M100.349,208.813c0,1.65,1.35,3,3,3h18.831
				c1.65,0,3-1.35,3-3v-18.831c0-1.65-1.35-3-3-3h-18.831c-1.65,0-3,1.35-3,3V208.813z"/>
		</g>
		<g id="lagan_valley_x5F_2_4_">
			<path fill="#F1F1F1" d="M125.18,258.476c0,1.65,1.35,3,3,3h18.832c1.65,0,3-1.35,3-3v-18.832c0-1.65-1.35-3-3-3H128.18
				c-1.65,0-3,1.35-3,3V258.476z"/>
			<path fill="none" stroke="#FFFFFF" stroke-width="0.5" stroke-miterlimit="10" d="M125.18,258.476c0,1.65,1.35,3,3,3h18.832
				c1.65,0,3-1.35,3-3v-18.832c0-1.65-1.35-3-3-3H128.18c-1.65,0-3,1.35-3,3V258.476z"/>
		</g>
	</g>
	<g>
		<g id="lagan_valley_x5F_3_1_">
			<path fill="#D03D54" d="M-915.761,477.338c0,1.65,1.35,3,3,3h40.154c1.65,0,3-1.35,3-3v-40.154c0-1.65-1.35-3-3-3h-40.154
				c-1.65,0-3,1.35-3,3V477.338z"/>
			<path fill="none" stroke="#FFFFFF" stroke-width="0.5" stroke-miterlimit="10" d="M-915.761,477.338c0,1.65,1.35,3,3,3h40.154
				c1.65,0,3-1.35,3-3v-40.154c0-1.65-1.35-3-3-3h-40.154c-1.65,0-3,1.35-3,3V477.338z"/>
		</g>
		<g id="lagan_valley_x5F_4_1_">
			<path fill="#D03D54" d="M-961.914,477.338c0,1.65,1.35,3,3,3h40.153c1.65,0,3-1.35,3-3v-40.154c0-1.65-1.35-3-3-3h-40.153
				c-1.65,0-3,1.35-3,3V477.338z"/>
			<path fill="none" stroke="#FFFFFF" stroke-width="0.5" stroke-miterlimit="10" d="M-961.914,477.338c0,1.65,1.35,3,3,3h40.153
				c1.65,0,3-1.35,3-3v-40.154c0-1.65-1.35-3-3-3h-40.153c-1.65,0-3,1.35-3,3V477.338z"/>
		</g>
		<g id="lagan_valley_x5F_1_1_">
			<path fill="#D03D54" d="M-961.914,523.492c0,1.65,1.35,3,3,3h40.153c1.65,0,3-1.35,3-3v-40.154c0-1.65-1.35-3-3-3h-40.153
				c-1.65,0-3,1.35-3,3V523.492z"/>
			<path fill="none" stroke="#FFFFFF" stroke-width="0.5" stroke-miterlimit="10" d="M-961.914,523.492c0,1.65,1.35,3,3,3h40.153
				c1.65,0,3-1.35,3-3v-40.154c0-1.65-1.35-3-3-3h-40.153c-1.65,0-3,1.35-3,3V523.492z"/>
		</g>
		<g id="lagan_valley_x5F_5_1_">
			<path fill="#D03D54" d="M-961.914,431.184c0,1.65,1.35,3,3,3h40.153c1.65,0,3-1.35,3-3v-40.153c0-1.65-1.35-3-3-3h-40.153
				c-1.65,0-3,1.35-3,3V431.184z"/>
			<path fill="none" stroke="#FFFFFF" stroke-width="0.5" stroke-miterlimit="10" d="M-961.914,431.184c0,1.65,1.35,3,3,3h40.153
				c1.65,0,3-1.35,3-3v-40.153c0-1.65-1.35-3-3-3h-40.153c-1.65,0-3,1.35-3,3V431.184z"/>
		</g>
		<g id="lagan_valley_x5F_2_1_">
			<path fill="#D03D54" d="M-915.761,523.492c0,1.65,1.35,3,3,3h40.154c1.65,0,3-1.35,3-3v-40.154c0-1.65-1.35-3-3-3h-40.154
				c-1.65,0-3,1.35-3,3V523.492z"/>
			<path fill="none" stroke="#FFFFFF" stroke-width="0.5" stroke-miterlimit="10" d="M-915.761,523.492c0,1.65,1.35,3,3,3h40.154
				c1.65,0,3-1.35,3-3v-40.154c0-1.65-1.35-3-3-3h-40.154c-1.65,0-3,1.35-3,3V523.492z"/>
		</g>
	</g>
</g>
<g id="strangford">
	<g>
		<g id="strangford_x5F_3_1_">
			<path fill="#F1F1F1" d="M249.336,233.644c0,1.65-1.35,3-3,3h-18.831c-1.65,0-3-1.35-3-3v-18.831c0-1.65,1.35-3,3-3h18.831
				c1.65,0,3,1.35,3,3V233.644z"/>
			<path fill="none" stroke="#FFFFFF" stroke-width="0.5" stroke-miterlimit="10" d="M249.336,233.644c0,1.65-1.35,3-3,3h-18.831
				c-1.65,0-3-1.35-3-3v-18.831c0-1.65,1.35-3,3-3h18.831c1.65,0,3,1.35,3,3V233.644z"/>
		</g>
		<g id="strangford_x5F_2">
			<path fill="#F1F1F1" d="M274.167,233.644c0,1.65-1.35,3-3,3h-18.831c-1.65,0-3-1.35-3-3v-18.831c0-1.65,1.35-3,3-3h18.831
				c1.65,0,3,1.35,3,3V233.644z"/>
			<path fill="none" stroke="#FFFFFF" stroke-width="0.5" stroke-miterlimit="10" d="M274.167,233.644c0,1.65-1.35,3-3,3h-18.831
				c-1.65,0-3-1.35-3-3v-18.831c0-1.65,1.35-3,3-3h18.831c1.65,0,3,1.35,3,3V233.644z"/>
		</g>
		<g id="strangford_x5F_1">
			<path fill="#F1F1F1" d="M299,233.644c0,1.65-1.35,3-3,3h-18.833c-1.65,0-3-1.35-3-3v-18.831c0-1.65,1.35-3,3-3H296
				c1.65,0,3,1.35,3,3V233.644z"/>
			<path fill="none" stroke="#FFFFFF" stroke-width="0.5" stroke-miterlimit="10" d="M299,233.644c0,1.65-1.35,3-3,3h-18.833
				c-1.65,0-3-1.35-3-3v-18.831c0-1.65,1.35-3,3-3H296c1.65,0,3,1.35,3,3V233.644z"/>
		</g>
		<g id="strangford_x5F_4">
			<path fill="#F1F1F1" d="M249.336,258.476c0,1.65-1.35,3-3,3h-18.831c-1.65,0-3-1.35-3-3v-18.832c0-1.65,1.35-3,3-3h18.831
				c1.65,0,3,1.35,3,3V258.476z"/>
			<path fill="none" stroke="#FFFFFF" stroke-width="0.5" stroke-miterlimit="10" d="M249.336,258.476c0,1.65-1.35,3-3,3h-18.831
				c-1.65,0-3-1.35-3-3v-18.832c0-1.65,1.35-3,3-3h18.831c1.65,0,3,1.35,3,3V258.476z"/>
		</g>
		<g id="strangford_x5F_5">
			<path fill="#F1F1F1" d="M299,258.476c0,1.65-1.35,3-3,3h-18.833c-1.65,0-3-1.35-3-3v-18.832c0-1.65,1.35-3,3-3H296
				c1.65,0,3,1.35,3,3V258.476z"/>
			<path fill="none" stroke="#FFFFFF" stroke-width="0.5" stroke-miterlimit="10" d="M299,258.476c0,1.65-1.35,3-3,3h-18.833
				c-1.65,0-3-1.35-3-3v-18.832c0-1.65,1.35-3,3-3H296c1.65,0,3,1.35,3,3V258.476z"/>
		</g>
	</g>
	<g>
		<g id="strangford_x5F_3_2_">
			<path fill="#929297" d="M-684.991,477.338c0,1.65-1.35,3-3,3h-40.154c-1.65,0-3-1.35-3-3v-40.154c0-1.65,1.35-3,3-3h40.154
				c1.65,0,3,1.35,3,3V477.338z"/>
			<path fill="none" stroke="#FFFFFF" stroke-width="0.5" stroke-miterlimit="10" d="M-684.991,477.338c0,1.65-1.35,3-3,3h-40.154
				c-1.65,0-3-1.35-3-3v-40.154c0-1.65,1.35-3,3-3h40.154c1.65,0,3,1.35,3,3V477.338z"/>
		</g>
		<g id="strangford_x5F_2_1_">
			<path fill="#929297" d="M-638.838,477.338c0,1.65-1.35,3-3,3h-40.153c-1.65,0-3-1.35-3-3v-40.154c0-1.65,1.35-3,3-3h40.153
				c1.65,0,3,1.35,3,3V477.338z"/>
			<path fill="none" stroke="#FFFFFF" stroke-width="0.5" stroke-miterlimit="10" d="M-638.838,477.338c0,1.65-1.35,3-3,3h-40.153
				c-1.65,0-3-1.35-3-3v-40.154c0-1.65,1.35-3,3-3h40.153c1.65,0,3,1.35,3,3V477.338z"/>
		</g>
		<g id="strangford_x5F_1_1_">
			<path fill="#929297" d="M-592.685,477.338c0,1.65-1.35,3-3,3h-40.153c-1.65,0-3-1.35-3-3v-40.154c0-1.65,1.35-3,3-3h40.153
				c1.65,0,3,1.35,3,3V477.338z"/>
			<path fill="none" stroke="#FFFFFF" stroke-width="0.5" stroke-miterlimit="10" d="M-592.685,477.338c0,1.65-1.35,3-3,3h-40.153
				c-1.65,0-3-1.35-3-3v-40.154c0-1.65,1.35-3,3-3h40.153c1.65,0,3,1.35,3,3V477.338z"/>
		</g>
		<g id="strangford_x5F_4_1_">
			<path fill="#929297" d="M-684.991,523.492c0,1.65-1.35,3-3,3h-40.154c-1.65,0-3-1.35-3-3v-40.154c0-1.65,1.35-3,3-3h40.154
				c1.65,0,3,1.35,3,3V523.492z"/>
			<path fill="none" stroke="#FFFFFF" stroke-width="0.5" stroke-miterlimit="10" d="M-684.991,523.492c0,1.65-1.35,3-3,3h-40.154
				c-1.65,0-3-1.35-3-3v-40.154c0-1.65,1.35-3,3-3h40.154c1.65,0,3,1.35,3,3V523.492z"/>
		</g>
		<g id="strangford_x5F_5_1_">
			<path fill="#929297" d="M-592.685,523.492c0,1.65-1.35,3-3,3h-40.153c-1.65,0-3-1.35-3-3v-40.154c0-1.65,1.35-3,3-3h40.153
				c1.65,0,3,1.35,3,3V523.492z"/>
			<path fill="none" stroke="#FFFFFF" stroke-width="0.5" stroke-miterlimit="10" d="M-592.685,523.492c0,1.65-1.35,3-3,3h-40.153
				c-1.65,0-3-1.35-3-3v-40.154c0-1.65,1.35-3,3-3h40.153c1.65,0,3,1.35,3,3V523.492z"/>
		</g>
	</g>
</g>
<g id="belfast_north">
	<g>
		<g id="belfast_north_x5F_2_5_">
			<path fill="#F1F1F1" d="M174.843,159.151c0,1.65-1.35,3-3,3h-18.831c-1.65,0-3-1.35-3-3v-18.832c0-1.65,1.35-3,3-3h18.831
				c1.65,0,3,1.35,3,3V159.151z"/>
			<path fill="none" stroke="#FFFFFF" stroke-width="0.5" stroke-miterlimit="10" d="M174.843,159.151c0,1.65-1.35,3-3,3h-18.831
				c-1.65,0-3-1.35-3-3v-18.832c0-1.65,1.35-3,3-3h18.831c1.65,0,3,1.35,3,3V159.151z"/>
		</g>
		<g id="belfast_north_x5F_3_4_">
			<path fill="#F1F1F1" d="M199.675,159.151c0,1.65-1.35,3-3,3h-18.832c-1.65,0-3-1.35-3-3v-18.832c0-1.65,1.35-3,3-3h18.832
				c1.65,0,3,1.35,3,3V159.151z"/>
			<path fill="none" stroke="#FFFFFF" stroke-width="0.5" stroke-miterlimit="10" d="M199.675,159.151c0,1.65-1.35,3-3,3h-18.832
				c-1.65,0-3-1.35-3-3v-18.832c0-1.65,1.35-3,3-3h18.832c1.65,0,3,1.35,3,3V159.151z"/>
		</g>
		<g id="belfast_north_x5F_1_4_">
			<path fill="#F1F1F1" d="M174.843,134.319c0,1.65-1.35,3-3,3h-18.831c-1.65,0-3-1.35-3-3v-18.83c0-1.65,1.35-3,3-3h18.831
				c1.65,0,3,1.35,3,3V134.319z"/>
			<path fill="none" stroke="#FFFFFF" stroke-width="0.5" stroke-miterlimit="10" d="M174.843,134.319c0,1.65-1.35,3-3,3h-18.831
				c-1.65,0-3-1.35-3-3v-18.83c0-1.65,1.35-3,3-3h18.831c1.65,0,3,1.35,3,3V134.319z"/>
		</g>
		<g id="belfast_north_x5F_4_4_">
			<path fill="#F1F1F1" d="M199.675,134.319c0,1.65-1.35,3-3,3h-18.832c-1.65,0-3-1.35-3-3v-18.83c0-1.65,1.35-3,3-3h18.832
				c1.65,0,3,1.35,3,3V134.319z"/>
			<path fill="none" stroke="#FFFFFF" stroke-width="0.5" stroke-miterlimit="10" d="M199.675,134.319c0,1.65-1.35,3-3,3h-18.832
				c-1.65,0-3-1.35-3-3v-18.83c0-1.65,1.35-3,3-3h18.832c1.65,0,3,1.35,3,3V134.319z"/>
		</g>
		<g id="belfast_north_x5F_5_5_">
			<path fill="#F1F1F1" d="M224.505,159.151c0,1.65-1.35,3-3,3h-18.83c-1.65,0-3-1.35-3-3V140.32c0-1.65,1.35-3,3-3h18.83
				c1.65,0,3,1.35,3,3V159.151z"/>
			<path fill="none" stroke="#FFFFFF" stroke-width="0.5" stroke-miterlimit="10" d="M224.505,159.151c0,1.65-1.35,3-3,3h-18.83
				c-1.65,0-3-1.35-3-3V140.32c0-1.65,1.35-3,3-3h18.83c1.65,0,3,1.35,3,3V159.151z"/>
		</g>
	</g>
	<g>
		<g id="belfast_north_x5F_2_2_">
			<path fill="#E31F26" d="M-823.452,338.877c0,1.65-1.35,3-3,3h-40.154c-1.65,0-3-1.35-3-3v-40.155c0-1.65,1.35-3,3-3h40.154
				c1.65,0,3,1.35,3,3V338.877z"/>
			<path fill="none" stroke="#FFFFFF" stroke-width="0.5" stroke-miterlimit="10" d="M-823.452,338.877c0,1.65-1.35,3-3,3h-40.154
				c-1.65,0-3-1.35-3-3v-40.155c0-1.65,1.35-3,3-3h40.154c1.65,0,3,1.35,3,3V338.877z"/>
		</g>
		<g id="belfast_north_x5F_3_1_">
			<path fill="#E31F26" d="M-777.299,338.877c0,1.65-1.35,3-3,3h-40.153c-1.65,0-3-1.35-3-3v-40.155c0-1.65,1.35-3,3-3h40.153
				c1.65,0,3,1.35,3,3V338.877z"/>
			<path fill="none" stroke="#FFFFFF" stroke-width="0.5" stroke-miterlimit="10" d="M-777.299,338.877c0,1.65-1.35,3-3,3h-40.153
				c-1.65,0-3-1.35-3-3v-40.155c0-1.65,1.35-3,3-3h40.153c1.65,0,3,1.35,3,3V338.877z"/>
		</g>
		<g id="belfast_north_x5F_1_1_">
			<path fill="#E31F26" d="M-823.452,292.722c0,1.65-1.35,3-3,3h-40.154c-1.65,0-3-1.35-3-3v-40.153c0-1.65,1.35-3,3-3h40.154
				c1.65,0,3,1.35,3,3V292.722z"/>
			<path fill="none" stroke="#FFFFFF" stroke-width="0.5" stroke-miterlimit="10" d="M-823.452,292.722c0,1.65-1.35,3-3,3h-40.154
				c-1.65,0-3-1.35-3-3v-40.153c0-1.65,1.35-3,3-3h40.154c1.65,0,3,1.35,3,3V292.722z"/>
		</g>
		<g id="belfast_north_x5F_4_1_">
			<path fill="#E31F26" d="M-777.299,292.722c0,1.65-1.35,3-3,3h-40.153c-1.65,0-3-1.35-3-3v-40.153c0-1.65,1.35-3,3-3h40.153
				c1.65,0,3,1.35,3,3V292.722z"/>
			<path fill="none" stroke="#FFFFFF" stroke-width="0.5" stroke-miterlimit="10" d="M-777.299,292.722c0,1.65-1.35,3-3,3h-40.153
				c-1.65,0-3-1.35-3-3v-40.153c0-1.65,1.35-3,3-3h40.153c1.65,0,3,1.35,3,3V292.722z"/>
		</g>
		<g id="belfast_north_x5F_5_1_">
			<path fill="#E31F26" d="M-731.146,338.877c0,1.65-1.35,3-3,3h-40.153c-1.65,0-3-1.35-3-3v-40.153c0-1.65,1.35-3,3-3h40.153
				c1.65,0,3,1.35,3,3V338.877z"/>
			<path fill="none" stroke="#FFFFFF" stroke-width="0.5" stroke-miterlimit="10" d="M-731.146,338.877c0,1.65-1.35,3-3,3h-40.153
				c-1.65,0-3-1.35-3-3v-40.153c0-1.65,1.35-3,3-3h40.153c1.65,0,3,1.35,3,3V338.877z"/>
		</g>
	</g>
</g>
<g id="belfast_east">
	<g>
		<g id="belfast_east_x5F_2_1_">
			<path fill="#F1F1F1" d="M174.843,208.813c0,1.65-1.35,3-3,3h-18.831c-1.65,0-3-1.35-3-3v-18.831c0-1.65,1.35-3,3-3h18.831
				c1.65,0,3,1.35,3,3V208.813z"/>
			<path fill="none" stroke="#FFFFFF" stroke-width="0.5" stroke-miterlimit="10" d="M174.843,208.813c0,1.65-1.35,3-3,3h-18.831
				c-1.65,0-3-1.35-3-3v-18.831c0-1.65,1.35-3,3-3h18.831c1.65,0,3,1.35,3,3V208.813z"/>
		</g>
		<g id="belfast_east_x5F_3">
			<path fill="#F1F1F1" d="M199.673,208.813c0,1.65-1.35,3-3,3h-18.83c-1.65,0-3-1.35-3-3v-18.831c0-1.65,1.35-3,3-3h18.83
				c1.65,0,3,1.35,3,3V208.813z"/>
			<path fill="none" stroke="#FFFFFF" stroke-width="0.5" stroke-miterlimit="10" d="M199.673,208.813c0,1.65-1.35,3-3,3h-18.83
				c-1.65,0-3-1.35-3-3v-18.831c0-1.65,1.35-3,3-3h18.83c1.65,0,3,1.35,3,3V208.813z"/>
		</g>
		<g id="belfast_east_x5F_1_1_">
			<path fill="#F1F1F1" d="M199.675,183.982c0,1.65-1.35,3-3,3h-18.832c-1.65,0-3-1.35-3-3v-18.832c0-1.65,1.35-3,3-3h18.832
				c1.65,0,3,1.35,3,3V183.982z"/>
			<path fill="none" stroke="#FFFFFF" stroke-width="0.5" stroke-miterlimit="10" d="M199.675,183.982c0,1.65-1.35,3-3,3h-18.832
				c-1.65,0-3-1.35-3-3v-18.832c0-1.65,1.35-3,3-3h18.832c1.65,0,3,1.35,3,3V183.982z"/>
		</g>
		<g id="belfast_east_x5F_4">
			<path fill="#F1F1F1" d="M224.505,183.982c0,1.65-1.35,3-3,3h-18.83c-1.65,0-3-1.35-3-3v-18.832c0-1.65,1.35-3,3-3h18.83
				c1.65,0,3,1.35,3,3V183.982z"/>
			<path fill="none" stroke="#FFFFFF" stroke-width="0.5" stroke-miterlimit="10" d="M224.505,183.982c0,1.65-1.35,3-3,3h-18.83
				c-1.65,0-3-1.35-3-3v-18.832c0-1.65,1.35-3,3-3h18.83c1.65,0,3,1.35,3,3V183.982z"/>
		</g>
		<g id="belfast_east_x5F_5">
			<path fill="#F1F1F1" d="M249.336,183.982c0,1.65-1.35,3-3,3h-18.831c-1.65,0-3-1.35-3-3v-18.832c0-1.65,1.35-3,3-3h18.831
				c1.65,0,3,1.35,3,3V183.982z"/>
			<path fill="none" stroke="#FFFFFF" stroke-width="0.5" stroke-miterlimit="10" d="M249.336,183.982c0,1.65-1.35,3-3,3h-18.831
				c-1.65,0-3-1.35-3-3v-18.832c0-1.65,1.35-3,3-3h18.831c1.65,0,3,1.35,3,3V183.982z"/>
		</g>
	</g>
	<g>
		<g id="belfast_east_x5F_2_2_">
			<path fill="#D03D54" d="M-823.453,431.184c0,1.65-1.35,3-3,3h-40.153c-1.65,0-3-1.35-3-3v-40.153c0-1.65,1.35-3,3-3h40.153
				c1.65,0,3,1.35,3,3V431.184z"/>
			<path fill="none" stroke="#FFFFFF" stroke-width="0.5" stroke-miterlimit="10" d="M-823.453,431.184c0,1.65-1.35,3-3,3h-40.153
				c-1.65,0-3-1.35-3-3v-40.153c0-1.65,1.35-3,3-3h40.153c1.65,0,3,1.35,3,3V431.184z"/>
		</g>
		<g id="belfast_east_x5F_3_1_">
			<path fill="#D03D54" d="M-777.3,431.184c0,1.65-1.35,3-3,3h-40.153c-1.65,0-3-1.35-3-3v-40.153c0-1.65,1.35-3,3-3h40.153
				c1.65,0,3,1.35,3,3V431.184z"/>
			<path fill="none" stroke="#FFFFFF" stroke-width="0.5" stroke-miterlimit="10" d="M-777.3,431.184c0,1.65-1.35,3-3,3h-40.153
				c-1.65,0-3-1.35-3-3v-40.153c0-1.65,1.35-3,3-3h40.153c1.65,0,3,1.35,3,3V431.184z"/>
		</g>
		<g id="belfast_east_x5F_1_2_">
			<path fill="#D03D54" d="M-777.299,385.031c0,1.65-1.35,3-3,3h-40.153c-1.65,0-3-1.35-3-3v-40.154c0-1.65,1.35-3,3-3h40.153
				c1.65,0,3,1.35,3,3V385.031z"/>
			<path fill="none" stroke="#FFFFFF" stroke-width="0.5" stroke-miterlimit="10" d="M-777.299,385.031c0,1.65-1.35,3-3,3h-40.153
				c-1.65,0-3-1.35-3-3v-40.154c0-1.65,1.35-3,3-3h40.153c1.65,0,3,1.35,3,3V385.031z"/>
		</g>
		<g id="belfast_east_x5F_4_1_">
			<path fill="#D03D54" d="M-731.146,385.031c0,1.65-1.35,3-3,3h-40.153c-1.65,0-3-1.35-3-3v-40.154c0-1.65,1.35-3,3-3h40.153
				c1.65,0,3,1.35,3,3V385.031z"/>
			<path fill="none" stroke="#FFFFFF" stroke-width="0.5" stroke-miterlimit="10" d="M-731.146,385.031c0,1.65-1.35,3-3,3h-40.153
				c-1.65,0-3-1.35-3-3v-40.154c0-1.65,1.35-3,3-3h40.153c1.65,0,3,1.35,3,3V385.031z"/>
		</g>
		<g id="belfast_east_x5F_5_1_">
			<path fill="#D03D54" d="M-684.993,385.031c0,1.65-1.35,3-3,3h-40.154c-1.65,0-3-1.35-3-3v-40.154c0-1.65,1.35-3,3-3h40.154
				c1.65,0,3,1.35,3,3V385.031z"/>
			<path fill="none" stroke="#FFFFFF" stroke-width="0.5" stroke-miterlimit="10" d="M-684.993,385.031c0,1.65-1.35,3-3,3h-40.154
				c-1.65,0-3-1.35-3-3v-40.154c0-1.65,1.35-3,3-3h40.154c1.65,0,3,1.35,3,3V385.031z"/>
		</g>
	</g>
</g>
<g id="belfast_south">
	<g>
		<g id="belfast_south_x5F_2_4_">
			<path fill="#F1F1F1" d="M174.843,258.476c0,1.65-1.35,3-3,3h-18.831c-1.65,0-3-1.35-3-3v-18.832c0-1.65,1.35-3,3-3h18.831
				c1.65,0,3,1.35,3,3V258.476z"/>
			<path fill="none" stroke="#FFFFFF" stroke-width="0.5" stroke-miterlimit="10" d="M174.843,258.476c0,1.65-1.35,3-3,3h-18.831
				c-1.65,0-3-1.35-3-3v-18.832c0-1.65,1.35-3,3-3h18.831c1.65,0,3,1.35,3,3V258.476z"/>
		</g>
		<g id="belfast_south_x5F_3_4_">
			<path fill="#F1F1F1" d="M199.675,258.476c0,1.65-1.35,3-3,3h-18.832c-1.65,0-3-1.35-3-3v-18.832c0-1.65,1.35-3,3-3h18.832
				c1.65,0,3,1.35,3,3V258.476z"/>
			<path fill="none" stroke="#FFFFFF" stroke-width="0.5" stroke-miterlimit="10" d="M199.675,258.476c0,1.65-1.35,3-3,3h-18.832
				c-1.65,0-3-1.35-3-3v-18.832c0-1.65,1.35-3,3-3h18.832c1.65,0,3,1.35,3,3V258.476z"/>
		</g>
		<g id="belfast_south_x5F_1_5_">
			<path fill="#F1F1F1" d="M174.843,233.644c0,1.65-1.35,3-3,3h-18.831c-1.65,0-3-1.35-3-3v-18.831c0-1.65,1.35-3,3-3h18.831
				c1.65,0,3,1.35,3,3V233.644z"/>
			<path fill="none" stroke="#FFFFFF" stroke-width="0.5" stroke-miterlimit="10" d="M174.843,233.644c0,1.65-1.35,3-3,3h-18.831
				c-1.65,0-3-1.35-3-3v-18.831c0-1.65,1.35-3,3-3h18.831c1.65,0,3,1.35,3,3V233.644z"/>
		</g>
		<g id="belfast_south_x5F_4_4_">
			<path fill="#F1F1F1" d="M199.675,233.644c0,1.65-1.35,3-3,3h-18.832c-1.65,0-3-1.35-3-3v-18.831c0-1.65,1.35-3,3-3h18.832
				c1.65,0,3,1.35,3,3V233.644z"/>
			<path fill="none" stroke="#FFFFFF" stroke-width="0.5" stroke-miterlimit="10" d="M199.675,233.644c0,1.65-1.35,3-3,3h-18.832
				c-1.65,0-3-1.35-3-3v-18.831c0-1.65,1.35-3,3-3h18.832c1.65,0,3,1.35,3,3V233.644z"/>
		</g>
		<g id="belfast_south_x5F_5_4_">
			<path fill="#F1F1F1" d="M224.505,233.644c0,1.65-1.35,3-3,3h-18.83c-1.65,0-3-1.35-3-3v-18.831c0-1.65,1.35-3,3-3h18.83
				c1.65,0,3,1.35,3,3V233.644z"/>
			<path fill="none" stroke="#FFFFFF" stroke-width="0.5" stroke-miterlimit="10" d="M224.505,233.644c0,1.65-1.35,3-3,3h-18.83
				c-1.65,0-3-1.35-3-3v-18.831c0-1.65,1.35-3,3-3h18.83c1.65,0,3,1.35,3,3V233.644z"/>
		</g>
	</g>
	<g>
		<g id="belfast_south_x5F_2_1_">
			<path fill="#FFB900" d="M-823.452,523.492c0,1.65-1.35,3-3,3h-40.154c-1.65,0-3-1.35-3-3v-40.154c0-1.65,1.35-3,3-3h40.154
				c1.65,0,3,1.35,3,3V523.492z"/>
			<path fill="none" stroke="#FFFFFF" stroke-width="0.5" stroke-miterlimit="10" d="M-823.452,523.492c0,1.65-1.35,3-3,3h-40.154
				c-1.65,0-3-1.35-3-3v-40.154c0-1.65,1.35-3,3-3h40.154c1.65,0,3,1.35,3,3V523.492z"/>
		</g>
		<g id="belfast_south_x5F_3_1_">
			<path fill="#FFB900" d="M-777.299,523.492c0,1.65-1.35,3-3,3h-40.153c-1.65,0-3-1.35-3-3v-40.154c0-1.65,1.35-3,3-3h40.153
				c1.65,0,3,1.35,3,3V523.492z"/>
			<path fill="none" stroke="#FFFFFF" stroke-width="0.5" stroke-miterlimit="10" d="M-777.299,523.492c0,1.65-1.35,3-3,3h-40.153
				c-1.65,0-3-1.35-3-3v-40.154c0-1.65,1.35-3,3-3h40.153c1.65,0,3,1.35,3,3V523.492z"/>
		</g>
		<g id="belfast_south_x5F_1_2_">
			<path fill="#FFB900" d="M-823.452,477.338c0,1.65-1.35,3-3,3h-40.154c-1.65,0-3-1.35-3-3v-40.154c0-1.65,1.35-3,3-3h40.154
				c1.65,0,3,1.35,3,3V477.338z"/>
			<path fill="none" stroke="#FFFFFF" stroke-width="0.5" stroke-miterlimit="10" d="M-823.452,477.338c0,1.65-1.35,3-3,3h-40.154
				c-1.65,0-3-1.35-3-3v-40.154c0-1.65,1.35-3,3-3h40.154c1.65,0,3,1.35,3,3V477.338z"/>
		</g>
		<g id="belfast_south_x5F_4_1_">
			<path fill="#FFB900" d="M-777.299,477.338c0,1.65-1.35,3-3,3h-40.153c-1.65,0-3-1.35-3-3v-40.154c0-1.65,1.35-3,3-3h40.153
				c1.65,0,3,1.35,3,3V477.338z"/>
			<path fill="none" stroke="#FFFFFF" stroke-width="0.5" stroke-miterlimit="10" d="M-777.299,477.338c0,1.65-1.35,3-3,3h-40.153
				c-1.65,0-3-1.35-3-3v-40.154c0-1.65,1.35-3,3-3h40.153c1.65,0,3,1.35,3,3V477.338z"/>
		</g>
		<g id="belfast_south_x5F_5_1_">
			<path fill="#FFB900" d="M-731.146,477.338c0,1.65-1.35,3-3,3h-40.153c-1.65,0-3-1.35-3-3v-40.154c0-1.65,1.35-3,3-3h40.153
				c1.65,0,3,1.35,3,3V477.338z"/>
			<path fill="none" stroke="#FFFFFF" stroke-width="0.5" stroke-miterlimit="10" d="M-731.146,477.338c0,1.65-1.35,3-3,3h-40.153
				c-1.65,0-3-1.35-3-3v-40.154c0-1.65,1.35-3,3-3h40.153c1.65,0,3,1.35,3,3V477.338z"/>
		</g>
	</g>
</g>
<g id="belfast_west">
	<g>
		<g id="belfast_west_x5F_1_1_">
			<path fill="#F1F1F1" d="M125.18,183.982c0,1.65-1.35,3-3,3h-18.831c-1.65,0-3-1.35-3-3v-18.832c0-1.65,1.35-3,3-3h18.831
				c1.65,0,3,1.35,3,3V183.982z"/>
			<path fill="none" stroke="#FFFFFF" stroke-width="0.5" stroke-miterlimit="10" d="M125.18,183.982c0,1.65-1.35,3-3,3h-18.831
				c-1.65,0-3-1.35-3-3v-18.832c0-1.65,1.35-3,3-3h18.831c1.65,0,3,1.35,3,3V183.982z"/>
		</g>
		<g id="belfast_west_x5F_4_1_">
			<path fill="#F1F1F1" d="M150.012,208.813c0,1.65-1.35,3-3,3H128.18c-1.65,0-3-1.35-3-3v-18.831c0-1.65,1.35-3,3-3h18.832
				c1.65,0,3,1.35,3,3V208.813z"/>
			<path fill="none" stroke="#FFFFFF" stroke-width="0.5" stroke-miterlimit="10" d="M150.012,208.813c0,1.65-1.35,3-3,3H128.18
				c-1.65,0-3-1.35-3-3v-18.831c0-1.65,1.35-3,3-3h18.832c1.65,0,3,1.35,3,3V208.813z"/>
		</g>
		<g id="belfast_west_x5F_5">
			<path fill="#F1F1F1" d="M174.843,183.982c0,1.65-1.35,3-3,3h-18.831c-1.65,0-3-1.35-3-3v-18.832c0-1.65,1.35-3,3-3h18.831
				c1.65,0,3,1.35,3,3V183.982z"/>
			<path fill="none" stroke="#FFFFFF" stroke-width="0.5" stroke-miterlimit="10" d="M174.843,183.982c0,1.65-1.35,3-3,3h-18.831
				c-1.65,0-3-1.35-3-3v-18.832c0-1.65,1.35-3,3-3h18.831c1.65,0,3,1.35,3,3V183.982z"/>
		</g>
		<g id="belfast_west_x5F_2">
			<path fill="#F1F1F1" d="M150.012,159.151c0,1.65-1.35,3-3,3H128.18c-1.65,0-3-1.35-3-3v-18.832c0-1.65,1.35-3,3-3h18.832
				c1.65,0,3,1.35,3,3V159.151z"/>
			<path fill="none" stroke="#FFFFFF" stroke-width="0.5" stroke-miterlimit="10" d="M150.012,159.151c0,1.65-1.35,3-3,3H128.18
				c-1.65,0-3-1.35-3-3v-18.832c0-1.65,1.35-3,3-3h18.832c1.65,0,3,1.35,3,3V159.151z"/>
		</g>
		<g id="belfast_west_x5F_3">
			<path fill="#F1F1F1" d="M150.012,183.982c0,1.65-1.35,3-3,3H128.18c-1.65,0-3-1.35-3-3v-18.832c0-1.65,1.35-3,3-3h18.832
				c1.65,0,3,1.35,3,3V183.982z"/>
			<path fill="none" stroke="#FFFFFF" stroke-width="0.5" stroke-miterlimit="10" d="M150.012,183.982c0,1.65-1.35,3-3,3H128.18
				c-1.65,0-3-1.35-3-3v-18.832c0-1.65,1.35-3,3-3h18.832c1.65,0,3,1.35,3,3V183.982z"/>
		</g>
	</g>
	<g>
		<g id="belfast_west_x5F_1_2_">
			<path fill="#F46980" d="M-915.761,385.031c0,1.65-1.35,3-3,3h-40.153c-1.65,0-3-1.35-3-3v-40.154c0-1.65,1.35-3,3-3h40.153
				c1.65,0,3,1.35,3,3V385.031z"/>
			<path fill="none" stroke="#FFFFFF" stroke-width="0.5" stroke-miterlimit="10" d="M-915.761,385.031c0,1.65-1.35,3-3,3h-40.153
				c-1.65,0-3-1.35-3-3v-40.154c0-1.65,1.35-3,3-3h40.153c1.65,0,3,1.35,3,3V385.031z"/>
		</g>
		<g id="belfast_west_x5F_4_2_">
			<path fill="#F46980" d="M-869.606,431.184c0,1.65-1.35,3-3,3h-40.154c-1.65,0-3-1.35-3-3v-40.153c0-1.65,1.35-3,3-3h40.154
				c1.65,0,3,1.35,3,3V431.184z"/>
			<path fill="none" stroke="#FFFFFF" stroke-width="0.5" stroke-miterlimit="10" d="M-869.606,431.184c0,1.65-1.35,3-3,3h-40.154
				c-1.65,0-3-1.35-3-3v-40.153c0-1.65,1.35-3,3-3h40.154c1.65,0,3,1.35,3,3V431.184z"/>
		</g>
		<g id="belfast_west_x5F_5_1_">
			<path fill="#F46980" d="M-823.452,385.03c0,1.65-1.35,3-3,3h-40.154c-1.65,0-3-1.35-3-3v-40.153c0-1.65,1.35-3,3-3h40.154
				c1.65,0,3,1.35,3,3V385.03z"/>
			<path fill="none" stroke="#FFFFFF" stroke-width="0.5" stroke-miterlimit="10" d="M-823.452,385.03c0,1.65-1.35,3-3,3h-40.154
				c-1.65,0-3-1.35-3-3v-40.153c0-1.65,1.35-3,3-3h40.154c1.65,0,3,1.35,3,3V385.03z"/>
		</g>
		<g id="belfast_west_x5F_2_1_">
			<path fill="#F46980" d="M-869.606,338.877c0,1.65-1.35,3-3,3h-40.154c-1.65,0-3-1.35-3-3v-40.155c0-1.65,1.35-3,3-3h40.154
				c1.65,0,3,1.35,3,3V338.877z"/>
			<path fill="none" stroke="#FFFFFF" stroke-width="0.5" stroke-miterlimit="10" d="M-869.606,338.877c0,1.65-1.35,3-3,3h-40.154
				c-1.65,0-3-1.35-3-3v-40.155c0-1.65,1.35-3,3-3h40.154c1.65,0,3,1.35,3,3V338.877z"/>
		</g>
		<g id="belfast_west_x5F_3_1_">
			<path fill="#F46980" d="M-869.606,385.031c0,1.65-1.35,3-3,3h-40.154c-1.65,0-3-1.35-3-3v-40.154c0-1.65,1.35-3,3-3h40.154
				c1.65,0,3,1.35,3,3V385.031z"/>
			<path fill="none" stroke="#FFFFFF" stroke-width="0.5" stroke-miterlimit="10" d="M-869.606,385.031c0,1.65-1.35,3-3,3h-40.154
				c-1.65,0-3-1.35-3-3v-40.154c0-1.65,1.35-3,3-3h40.154c1.65,0,3,1.35,3,3V385.031z"/>
		</g>
	</g>
</g>
<g id="north_down">
	<g>
		<g id="north_down_x5F_5_5_">
			<path fill="#F1F1F1" d="M249.336,208.813c0,1.65-1.35,3-3,3h-18.831c-1.65,0-3-1.35-3-3v-18.831c0-1.65,1.35-3,3-3h18.831
				c1.65,0,3,1.35,3,3V208.813z"/>
			<path fill="none" stroke="#FFFFFF" stroke-width="0.5" stroke-miterlimit="10" d="M249.336,208.813c0,1.65-1.35,3-3,3h-18.831
				c-1.65,0-3-1.35-3-3v-18.831c0-1.65,1.35-3,3-3h18.831c1.65,0,3,1.35,3,3V208.813z"/>
		</g>
		<g id="north_down_x5F_4_5_">
			<path fill="#F1F1F1" d="M274.167,208.813c0,1.65-1.35,3-3,3h-18.831c-1.65,0-3-1.35-3-3v-18.831c0-1.65,1.35-3,3-3h18.831
				c1.65,0,3,1.35,3,3V208.813z"/>
			<path fill="none" stroke="#FFFFFF" stroke-width="0.5" stroke-miterlimit="10" d="M274.167,208.813c0,1.65-1.35,3-3,3h-18.831
				c-1.65,0-3-1.35-3-3v-18.831c0-1.65,1.35-3,3-3h18.831c1.65,0,3,1.35,3,3V208.813z"/>
		</g>
		<g id="north_down_x5F_1_4_">
			<path fill="#F1F1F1" d="M274.167,183.982c0,1.65-1.35,3-3,3h-18.831c-1.65,0-3-1.35-3-3v-18.832c0-1.65,1.35-3,3-3h18.831
				c1.65,0,3,1.35,3,3V183.982z"/>
			<path fill="none" stroke="#FFFFFF" stroke-width="0.5" stroke-miterlimit="10" d="M274.167,183.982c0,1.65-1.35,3-3,3h-18.831
				c-1.65,0-3-1.35-3-3v-18.832c0-1.65,1.35-3,3-3h18.831c1.65,0,3,1.35,3,3V183.982z"/>
		</g>
		<g id="north_down_x5F_2_5_">
			<path fill="#F1F1F1" d="M299,183.982c0,1.65-1.35,3-3,3h-18.833c-1.65,0-3-1.35-3-3v-18.832c0-1.65,1.35-3,3-3H296
				c1.65,0,3,1.35,3,3V183.982z"/>
			<path fill="none" stroke="#FFFFFF" stroke-width="0.5" stroke-miterlimit="10" d="M299,183.982c0,1.65-1.35,3-3,3h-18.833
				c-1.65,0-3-1.35-3-3v-18.832c0-1.65,1.35-3,3-3H296c1.65,0,3,1.35,3,3V183.982z"/>
		</g>
		<g id="north_down_x5F_3_5_">
			<path fill="#F1F1F1" d="M224.505,208.813c0,1.65-1.35,3-3,3h-18.832c-1.65,0-3-1.35-3-3v-18.831c0-1.65,1.35-3,3-3h18.832
				c1.65,0,3,1.35,3,3V208.813z"/>
			<path fill="none" stroke="#FFFFFF" stroke-width="0.5" stroke-miterlimit="10" d="M224.505,208.813c0,1.65-1.35,3-3,3h-18.832
				c-1.65,0-3-1.35-3-3v-18.831c0-1.65,1.35-3,3-3h18.832c1.65,0,3,1.35,3,3V208.813z"/>
		</g>
	</g>
	<g>
		<g id="north_down_x5F_5_1_">
			<path fill="#676767" d="M-684.993,431.184c0,1.65-1.35,3-3,3h-40.153c-1.65,0-3-1.35-3-3v-40.153c0-1.65,1.35-3,3-3h40.153
				c1.65,0,3,1.35,3,3V431.184z"/>
			<path fill="none" stroke="#FFFFFF" stroke-width="0.5" stroke-miterlimit="10" d="M-684.993,431.184c0,1.65-1.35,3-3,3h-40.153
				c-1.65,0-3-1.35-3-3v-40.153c0-1.65,1.35-3,3-3h40.153c1.65,0,3,1.35,3,3V431.184z"/>
		</g>
		<g id="north_down_x5F_4_1_">
			<path fill="#676767" d="M-638.839,431.184c0,1.65-1.35,3-3,3h-40.154c-1.65,0-3-1.35-3-3v-40.153c0-1.65,1.35-3,3-3h40.154
				c1.65,0,3,1.35,3,3V431.184z"/>
			<path fill="none" stroke="#FFFFFF" stroke-width="0.5" stroke-miterlimit="10" d="M-638.839,431.184c0,1.65-1.35,3-3,3h-40.154
				c-1.65,0-3-1.35-3-3v-40.153c0-1.65,1.35-3,3-3h40.154c1.65,0,3,1.35,3,3V431.184z"/>
		</g>
		<g id="north_down_x5F_1_1_">
			<path fill="#676767" d="M-638.838,385.031c0,1.65-1.35,3-3,3h-40.153c-1.65,0-3-1.35-3-3v-40.154c0-1.65,1.35-3,3-3h40.153
				c1.65,0,3,1.35,3,3V385.031z"/>
			<path fill="none" stroke="#FFFFFF" stroke-width="0.5" stroke-miterlimit="10" d="M-638.838,385.031c0,1.65-1.35,3-3,3h-40.153
				c-1.65,0-3-1.35-3-3v-40.154c0-1.65,1.35-3,3-3h40.153c1.65,0,3,1.35,3,3V385.031z"/>
		</g>
		<g id="north_down_x5F_2_2_">
			<path fill="#676767" d="M-592.685,385.031c0,1.65-1.35,3-3,3h-40.153c-1.65,0-3-1.35-3-3v-40.154c0-1.65,1.35-3,3-3h40.153
				c1.65,0,3,1.35,3,3V385.031z"/>
			<path fill="none" stroke="#FFFFFF" stroke-width="0.5" stroke-miterlimit="10" d="M-592.685,385.031c0,1.65-1.35,3-3,3h-40.153
				c-1.65,0-3-1.35-3-3v-40.154c0-1.65,1.35-3,3-3h40.153c1.65,0,3,1.35,3,3V385.031z"/>
		</g>
		<g id="north_down_x5F_3_2_">
			<path fill="#676767" d="M-731.146,431.185c0,1.65-1.35,3-3,3H-774.3c-1.65,0-3-1.35-3-3v-40.154c0-1.65,1.35-3,3-3h40.154
				c1.65,0,3,1.35,3,3V431.185z"/>
			<path fill="none" stroke="#FFFFFF" stroke-width="0.5" stroke-miterlimit="10" d="M-731.146,431.185c0,1.65-1.35,3-3,3H-774.3
				c-1.65,0-3-1.35-3-3v-40.154c0-1.65,1.35-3,3-3h40.154c1.65,0,3,1.35,3,3V431.185z"/>
		</g>
	</g>
</g>
<g id="constit_borders">
	<g>
		<g>
			<path fill="none" stroke="#FFFFFF" stroke-width="5" stroke-linecap="round" stroke-linejoin="round" stroke-miterlimit="10" d="
				M227.505,162.15c-1.65,0-3-1.35-3-3V140.32c0-1.65-1.35-3-3-3h-18.83c-1.65,0-3,0-3,0s0-1.351,0-3v-18.831c0-1.65-1.35-3-3-3
				h-18.832c-1.65,0-4.35,0-6,0h-18.831c-1.65,0-3,1.35-3,3v18.831c0,1.65-1.35,3-3,3H128.18c-1.65,0-3,1.35-3,3v18.832
				c0,1.65-1.35,3-3,3h-18.831c-1.65,0-3,1.35-3,3v18.832c0,1.65,1.35,3,3,3h18.831c1.65,0,3,1.35,3,3v18.83c0,1.65,1.35,3,3,3
				h18.832c1.65,0,3,1.35,3,3v18.832c0,1.65,0,4.35,0,6v18.832c0,1.65,1.35,3,3,3h18.831c1.65,0,4.35,0,6,0h18.832
				c1.65,0,3-1.35,3-3v-18.832c0-1.65,1.35-3,3-3h18.83c1.65,0,3-1.35,3-3v-18.832c0-1.65-1.35-3-3-3h-18.83
				c-1.65,0-3.001,0-3.001,0s-0.001-1.35-0.001-3v-18.83c0-1.65,0.001-3,0.001-3s1.351,0,3.001,0h18.83c1.65,0,4.35,0,6,0h18.831
				c1.65,0,3-1.35,3-3V165.15c0-1.65-1.35-3-3-3H227.505z"/>
		</g>
	</g>
	<g>
		<g>
			<path fill="none" stroke="#FFFFFF" stroke-width="3" stroke-linecap="round" stroke-linejoin="round" stroke-miterlimit="10" d="
				M202.675,13.163c-1.65,0-3,0-3,0c0,0-1.35,0-3,0h-18.832c-1.65,0-3,1.35-3,3v18.831c0,1.65,0,4.35,0,6v18.832c0,1.65,1.35,3,3,3
				h18.832c1.65,0,3,0,3,0c0,0,0,1.35,0,3v18.831c0,1.65,1.35,3,3,3h18.83c1.65,0,3-1.35,3-3V65.827c0-1.65,0-4.35,0-6V40.995
				c0-1.65,0-4.35,0-6V16.163c0-1.65-1.35-3-3-3H202.675z"/>
		</g>
		
			<polygon fill="none" stroke="#FFFFFF" stroke-width="3" stroke-linecap="round" stroke-linejoin="round" stroke-miterlimit="10" points="
			249.336,62.827 249.336,37.995 224.505,37.995 224.505,62.827 224.505,87.657 224.505,112.489 249.336,112.489 274.167,112.489 
			274.167,87.657 274.167,62.827 		"/>
		<g>
			<path fill="none" stroke="#FFFFFF" stroke-width="3" stroke-linecap="round" stroke-linejoin="round" stroke-miterlimit="10" d="
				M252.336,112.489c-1.65,0-4.35,0-6,0h-18.831c-1.65,0-3-1.35-3-3V90.657c0-1.65-1.35-3-3-3h-18.83c-1.65,0-3,1.35-3,3v18.832
				c0,1.65,0,4.35,0,6v18.831c0,1.65,1.35,3,3,3h18.83c1.65,0,3,1.35,3,3v18.831c0,1.65,1.35,3,3,3h18.831c1.65,0,3-1.35,3-3V140.32
				c0-1.65,1.35-3,3-3h18.831c1.65,0,3-1.35,3-3v-18.831c0-1.65-1.35-3-3-3H252.336z"/>
		</g>
		<g>
			<path fill="none" stroke="#FFFFFF" stroke-width="3" stroke-linecap="round" stroke-linejoin="round" stroke-miterlimit="10" d="
				M153.012,13.164c-1.65,0-3,1.35-3,3v18.831c0,1.65-1.35,3-3,3H128.18c-1.65,0-4.35,0-6,0h-18.831c-1.65,0-3,1.35-3,3v18.832
				c0,1.65,1.35,3,3,3h18.831c1.65,0,3,1.35,3,3v18.83c0,1.65,1.35,3,3,3h18.832c1.65,0,3-1.35,3-3v-18.83c0-1.65,1.35-3,3-3h18.831
				c1.65,0,3-1.35,3-3V40.995c0-1.65,0-4.35,0-6V16.164c0-1.65-1.35-3-3-3H153.012z"/>
		</g>
		<g>
			<path fill="none" stroke="#FFFFFF" stroke-width="3" stroke-linecap="round" stroke-linejoin="round" stroke-miterlimit="10" d="
				M128.18,87.656c-1.65,0-3-1.35-3-3v-18.83c0-1.65-1.35-3-3-3h-18.831c-1.65,0-4.35,0-6,0H78.518c-1.65,0-3,1.35-3,3v18.831
				c0,1.65,1.35,3,3,3h18.831c1.65,0,3,1.35,3,3v18.832c0,1.65,1.35,3,3,3h18.831c1.65,0,3,1.35,3,3v18.831c0,1.65,1.35,3,3,3
				h18.832c1.65,0,3-1.35,3-3v-18.831c0-1.65,0-4.35,0-6V90.656c0-1.65-1.35-3-3-3H128.18z"/>
		</g>
		<g>
			<path fill="none" stroke="#FFFFFF" stroke-width="3" stroke-linecap="round" stroke-linejoin="round" stroke-miterlimit="10" d="
				M50.688,87.657c0,0,0,1.35,0,3v18.833c0,1.65,1.35,3,3,3h18.829c1.65,0,3,0,3-0.001c0,0,0,0,0.001,0s0.001,1.35,0.001,3
				l-0.002,18.831c0,1.65,1.35,3,3,3h18.831c1.65,0,3.001,0,3.001,0s1.351,0,3.001,0h18.829c1.65,0,3-1.35,3-3v-18.831
				c0-1.65-1.35-3-3-3h-18.831c-1.65,0-3-1.35-3-3V90.657c0-1.65-1.35-3-3-3H78.52c-1.65,0-3-1.35-3-3V65.825c0-1.65-1.35-3-3-3
				l-18.832,0.001c-1.65,0-3,1.35-3,3v18.831C50.688,86.307,50.688,87.657,50.688,87.657z"/>
		</g>
		<g>
			
				<line fill="none" stroke="#FFFFFF" stroke-width="3" stroke-linecap="round" stroke-linejoin="round" stroke-miterlimit="10" x1="75.518" y1="87.657" x2="75.518" y2="87.658"/>
		</g>
		<g>
			<path fill="none" stroke="#FFFFFF" stroke-width="3" stroke-linecap="round" stroke-linejoin="round" stroke-miterlimit="10" d="
				M103.349,137.319c-1.65,0-4.35,0-6,0H78.518c-1.65,0-3,0-3,0c0,0-1.35,0-3,0H53.687c-1.65,0-3,1.35-3,3v18.831c0,1.65,0,3,0,3
				s0,1.35,0,3v18.832c0,1.65,1.35,3,3,3h18.83c1.65,0,4.35,0,6,0h18.831c1.65,0,3-1.35,3-3V165.15c0-1.65,1.35-3,3-3h18.831
				c1.65,0,3-1.35,3-3v-18.832c0-1.65-1.35-3-3-3H103.349z"/>
		</g>
		<g>
			<g>
				
					<path fill="none" stroke="#FFFFFF" stroke-width="3" stroke-linecap="round" stroke-linejoin="round" stroke-miterlimit="10" d="
					M1.025,233.644c0,1.65,1.35,3,3,3h18.831c1.65,0,3-1.35,3-3v-18.832c0-1.65-1.35-3-3-3H4.025c-1.65,0-3,1.35-3,3V233.644z"/>
			</g>
			<g>
				
					<path fill="none" stroke="#FFFFFF" stroke-width="3" stroke-linecap="round" stroke-linejoin="round" stroke-miterlimit="10" d="
					M28.855,236.644c-1.65,0-3,1.35-3,3v18.831c0,1.65,1.35,3,3,3h18.832c1.65,0,3-1.35,3-3v-18.831c0-1.65-1.35-3-3-3H28.855z"/>
			</g>
			<g>
				
					<path fill="none" stroke="#FFFFFF" stroke-width="3" stroke-linecap="round" stroke-linejoin="round" stroke-miterlimit="10" d="
					M50.688,283.306c0,1.65,1.35,3,3,3h18.83c1.65,0,3-1.35,3-3v-18.831c0-1.65-1.35-3-3-3h-18.83c-1.65,0-3,1.35-3,3V283.306z"/>
			</g>
			<g>
				
					<path fill="none" stroke="#FFFFFF" stroke-width="3" stroke-linecap="round" stroke-linejoin="round" stroke-miterlimit="10" d="
					M53.688,186.981c-1.65,0-3,0-3,0s-1.35,0-3,0H28.856c-1.65,0-3,1.35-3,3v18.83c0,1.65,1.35,3,3,3h18.831c1.65,0,4.35,0,6,0
					h18.83c1.65,0,3-1.35,3-3v-18.831c0-1.65-1.35-3-3-3H53.688z"/>
			</g>
		</g>
		<g>
			<path fill="none" stroke="#FFFFFF" stroke-width="3" stroke-linecap="round" stroke-linejoin="round" stroke-miterlimit="10" d="
				M153.012,261.476c-1.65,0-4.35,0-6,0H128.18c-1.65,0-4.35,0-6,0h-18.829c-1.65,0-3-1.35-3-3l-0.002-18.832c0-1.65-1.35-3-3-3
				H78.52c-1.65,0-3,1.35-3,3v18.831c0,1.65,0,4.35,0,6v18.832c0,1.65,1.35,3,3,3l18.829-0.001c1.65,0,3,0,3,0s1.35,0,3,0h18.831
				c1.65,0,3,0,3,0c0,0,1.35,0,3,0h18.832c1.65,0,4.35,0,6,0h18.831c1.65,0,3-1.35,3-3v-18.831c0-1.65-1.35-3-3-3H153.012z"/>
		</g>
		<g>
			<g>
				
					<path fill="none" stroke="#FFFFFF" stroke-width="3" stroke-linecap="round" stroke-linejoin="round" stroke-miterlimit="10" d="
					M75.518,211.813L75.518,211.813c0,0-1.35,0-3,0h-18.83c-1.65,0-4.35,0-6,0H28.855c-1.65,0-3,1.35-3,3v18.832c0,1.65,1.35,3,3,3
					h18.832c1.65,0,3,0,3,0s0,1.35,0,3v18.832c0,1.65,1.35,3,3,3H72.52c1.65,0,3-1.35,3-3v-18.832c0-1.65,1.35-3,3-3h18.829
					c1.65,0,3-1.35,3-3v-18.832c0-1.65,0-4.35,0-6v-18.83c0-1.65-1.35-3-3-3H78.52c-1.65,0-3,1.35-3,3v21.83"/>
			</g>
		</g>
		<g>
			<g>
				
					<path fill="none" stroke="#FFFFFF" stroke-width="3" stroke-linecap="round" stroke-linejoin="round" stroke-miterlimit="10" d="
					M196.675,261.476c1.65,0,3-1.35,3-3v-18.832c0-1.65,1.35-3,3-3h18.832c1.65,0,3,1.35,3,3l-0.002,18.832c0,1.65,1.35,3,3,3
					h18.831c1.65,0,3,1.35,3,3v18.831c0,1.65-1.35,3-3,3h-18.831c-1.65,0-3,0-3,0c0,0-1.35,0-3,0h-18.83c-1.65,0-3,1.35-3,3v18.832
					c0,1.65-1.35,3-3,3h-18.832c-1.65,0-3-1.35-3-3v-18.832c0-1.65,0-4.35,0-6v-18.831c0-1.65,1.35-3,3-3H196.675z"/>
			</g>
		</g>
		<g>
			<path fill="none" stroke="#FFFFFF" stroke-width="3" stroke-linecap="round" stroke-linejoin="round" stroke-miterlimit="10" d="
				M128.18,211.812c-1.65,0-3-1.35-3-3v-18.83c0-1.65-1.35-3-3-3h-18.831c-1.65,0-3,1.35-3,3v18.83c0,1.65,0,4.35,0,6v18.832
				c0,1.65,0,4.35,0,6v18.832c0,1.65,1.35,3,3,3h18.831c1.65,0,4.35,0,6,0h18.832c1.65,0,3-1.35,3-3v-18.832c0-1.65,0-4.35,0-6
				v-18.832c0-1.65-1.35-3-3-3H128.18z"/>
		</g>
		<g>
			<path fill="none" stroke="#FFFFFF" stroke-width="3" stroke-linecap="round" stroke-linejoin="round" stroke-miterlimit="10" d="
				M277.167,211.812c-1.65,0-4.35,0-6,0h-18.831c-1.65,0-4.35,0-6,0h-18.831c-1.65,0-3,1.35-3,3v18.832c0,1.65,0,4.35,0,6v18.832
				c0,1.65,1.35,3,3,3h18.831c1.65,0,3-1.35,3-3v-18.832c0-1.65,1.35-3,3-3h18.831c1.65,0,3,1.35,3,3v18.832c0,1.65,1.35,3,3,3H296
				c1.65,0,3-1.35,3-3v-18.832c0-1.65,0-4.35,0-6v-18.832c0-1.65-1.35-3-3-3H277.167z"/>
		</g>
		<g>
			<path fill="none" stroke="#FFFFFF" stroke-width="3" stroke-linecap="round" stroke-linejoin="round" stroke-miterlimit="10" d="
				M202.675,137.32c-1.65,0-3,0-3,0s0-1.351,0-3v-18.831c0-1.65-1.35-3-3-3h-18.832c-1.65,0-4.35,0-6,0h-18.831c-1.65,0-3,1.35-3,3
				v18.831c0,1.65,0,4.35,0,6v18.832c0,1.65,1.35,3,3,3h18.831c1.65,0,4.35,0,6,0h18.832c1.65,0,4.35,0,6,0h18.83c1.65,0,3-1.35,3-3
				V140.32c0-1.65-1.35-3-3-3H202.675z"/>
		</g>
		<g>
			<path fill="none" stroke="#FFFFFF" stroke-width="3" stroke-linecap="round" stroke-linejoin="round" stroke-miterlimit="10" d="
				M227.505,162.15c-1.65,0-4.35,0-6,0h-18.83c-1.65,0-4.35,0-6,0h-18.832c-1.65,0-3,1.35-3,3v18.832c0,1.65-1.35,3-3,3h-18.831
				c-1.65,0-3,1.35-3,3v18.83c0,1.65,1.35,3,3,3h18.831c1.65,0,4.35,0,6,0h18.83c1.65,0,3-1.35,3-3v-18.83c0-1.65,0.001-3,0.001-3
				s1.351,0,3.001,0h18.83c1.65,0,4.35,0,6,0h18.831c1.65,0,3-1.35,3-3V165.15c0-1.65-1.35-3-3-3H227.505z"/>
		</g>
		<g>
			<path fill="none" stroke="#FFFFFF" stroke-width="3" stroke-linecap="round" stroke-linejoin="round" stroke-miterlimit="10" d="
				M202.675,211.812c-1.65,0-4.35,0-6,0h-18.832c-1.65,0-4.35,0-6,0h-18.831c-1.65,0-3,1.35-3,3v18.832c0,1.65,0,4.35,0,6v18.832
				c0,1.65,1.35,3,3,3h18.831c1.65,0,4.35,0,6,0h18.832c1.65,0,3-1.35,3-3v-18.832c0-1.65,1.35-3,3-3h18.83c1.65,0,3-1.35,3-3
				v-18.832c0-1.65-1.35-3-3-3H202.675z"/>
		</g>
		<g>
			<path fill="none" stroke="#FFFFFF" stroke-width="3" stroke-linecap="round" stroke-linejoin="round" stroke-miterlimit="10" d="
				M153.012,162.15c-1.65,0-3-1.35-3-3v-18.832c0-1.65-1.35-3-3-3H128.18c-1.65,0-3,1.35-3,3v18.832c0,1.65-1.35,3-3,3h-18.831
				c-1.65,0-3,1.35-3,3v18.832c0,1.65,1.35,3,3,3h18.831c1.65,0,3,1.35,3,3v18.83c0,1.65,1.35,3,3,3h18.832c1.65,0,3-1.35,3-3
				v-18.83c0-1.65,0-3,0-3c0,0,1.35,0,3,0h18.831c1.65,0,3-1.35,3-3V165.15c0-1.65-1.35-3-3-3H153.012z"/>
		</g>
		<g>
			<path fill="none" stroke="#FFFFFF" stroke-width="3" stroke-linecap="round" stroke-linejoin="round" stroke-miterlimit="10" d="
				M277.167,162.15c-1.65,0-4.35,0-6,0h-18.831c-1.65,0-3,1.35-3,3v18.832c0,1.65-1.35,3-3,3h-18.831c-1.65,0-4.35,0-6,0h-18.832
				c-1.65,0-3,1.35-3,3v18.831c0,1.65,1.35,3,3,3h18.832c1.65,0,3,0,3,0c0,0,1.35,0,3,0h18.831c1.65,0,4.35,0,6,0h18.831
				c1.65,0,3-1.35,3-3v-18.83c0-1.65,1.35-3,3-3H296c1.65,0,3-1.35,3-3V165.15c0-1.65-1.35-3-3-3H277.167z"/>
		</g>
	</g>
</g>
<g id="constit_names">
	<text id="North_Antrim_2_" transform="matrix(1 0 0 1 181.8086 33.7583)"><tspan x="0" y="0" fill="#333333" font-family="'DS3DisplaySans'" font-size="12">North</tspan><tspan x="0" y="16" fill="#333333" font-family="'DS3DisplaySans'" font-size="12">Antrim</tspan></text>
	<text transform="matrix(1 0 0 1 233.1475 83.3286)"><tspan x="0" y="0" fill="#333333" font-family="'DS3DisplaySans'" font-size="12">East</tspan><tspan x="0" y="16" fill="#333333" font-family="'DS3DisplaySans'" font-size="12">Antrim</tspan></text>
	<text transform="matrix(1 0 0 1 207.8145 127.9038)" fill="#333333" font-family="'DS3DisplaySans'" font-size="12">South Antrim</text>
	<text transform="matrix(1 0 0 1 37.8477 11.5938)" fill="#333333" font-family="'DS3DisplaySans'" font-size="12">East Londonderry</text>
	<text transform="matrix(1 0 0 1 105.6367 86.2681)"><tspan x="0" y="0" fill="#333333" font-family="'DS3DisplaySans'" font-size="12">Mid</tspan><tspan x="0" y="16" fill="#333333" font-family="'DS3DisplaySans'" font-size="12">Ulster</tspan></text>
	<text transform="matrix(1 0 0 1 61.0986 102.2681)" fill="#333333" font-family="'DS3DisplaySans'" font-size="12">Foyle</text>
	<text transform="matrix(1 0 0 1 56.3589 159.272)"><tspan x="0" y="0" fill="#333333" font-family="'DS3DisplaySans'" font-size="12">West</tspan><tspan x="0" y="16" fill="#333333" font-family="'DS3DisplaySans'" font-size="12">Tyrone</tspan></text>
	<text transform="matrix(1 0 0 1 37.8481 344.2134)"><tspan x="0" y="0" fill="#333333" font-family="'DS3DisplaySans'" font-size="12">Fermanagh and</tspan><tspan x="0" y="16" fill="#333333" font-family="'DS3DisplaySans'" font-size="12">South Tyrone</tspan></text>
	<text transform="matrix(1 0 0 1 128.3574 344.2134)"><tspan x="0" y="0" fill="#333333" font-family="'DS3DisplaySans'" font-size="12">Newry and</tspan><tspan x="0" y="16" fill="#333333" font-family="'DS3DisplaySans'" font-size="12">Armagh</tspan></text>
	<text transform="matrix(1 0 0 1 32.0488 227.3354)" fill="#333333" font-family="'DS3DisplaySans'" font-size="12">Upper Bann</text>
	<text transform="matrix(1 0 0 1 225.0684 343.6831)" fill="#333333" font-family="'DS3DisplaySans'" font-size="12">South Down</text>
	<text transform="matrix(1 0 0 1 105.7715 232.0479)"><tspan x="0" y="0" fill="#333333" font-family="'DS3DisplaySans'" font-size="12">Lagan</tspan><tspan x="0" y="16" fill="#333333" font-family="'DS3DisplaySans'" font-size="12">Valley</tspan></text>
	<text transform="matrix(1 0 0 1 232.6816 228.769)" fill="#333333" font-family="'DS3DisplaySans'" font-size="12">Strangford</text>
	<text transform="matrix(1 0 0 1 156.3604 133.5942)"><tspan x="0" y="0" fill="#333333" font-family="'DS3DisplaySans'" font-size="12">Belfast</tspan><tspan x="0" y="16" fill="#333333" font-family="'DS3DisplaySans'" font-size="12">North</tspan></text>
	<text transform="matrix(1 0 0 1 181.2061 178.2373)" fill="#333333" font-family="'DS3DisplaySans'" font-size="12">Belfast East</text>
	<text transform="matrix(1 0 0 1 156.3604 232.0479)"><tspan x="0" y="0" fill="#333333" font-family="'DS3DisplaySans'" font-size="12">Belfast</tspan><tspan x="0" y="16" fill="#333333" font-family="'DS3DisplaySans'" font-size="12">South</tspan></text>
	<text transform="matrix(1 0 0 1 106.2529 178.2373)" fill="#333333" font-family="'DS3DisplaySans'" font-size="12">Belfast West</text>
	<text transform="matrix(1 0 0 1 206.0371 203.104)" fill="#333333" font-family="'DS3DisplaySans'" font-size="12">North Down</text>
	<path fill="none" stroke="#333333" stroke-miterlimit="10" d="M245.653,75.242"/>
	<line fill="none" stroke="#333333" stroke-miterlimit="10" x1="112.764" y1="50.411" x2="112.764" y2="21.063"/>
	<line fill="none" stroke="#333333" stroke-miterlimit="10" x1="63.103" y1="273.891" x2="63.103" y2="330.321"/>
	<line fill="none" stroke="#333333" stroke-miterlimit="10" x1="137.596" y1="273.891" x2="137.596" y2="330.321"/>
	<line fill="none" stroke="#333333" stroke-miterlimit="10" x1="236.92" y1="273.891" x2="236.92" y2="330.321"/>
</g>
</svg>
